<?xml version="1.0" encoding="utf-8"?>
<!-- Generator: Adobe Illustrator 26.0.0, SVG Export Plug-In . SVG Version: 6.00 Build 0)  -->
<svg version="1.1" id="圖層_1" xmlns="http://www.w3.org/2000/svg" xmlns:xlink="http://www.w3.org/1999/xlink" x="0px" y="0px"
	 viewBox="0 0 696 962" style="enable-background:new 0 0 696 962;" xml:space="preserve">
<style type="text/css">
	.st0{fill-rule:evenodd;clip-rule:evenodd;fill:#F4BA97;}
	.st1{fill-rule:evenodd;clip-rule:evenodd;fill:#191847;}
	.st2{fill-rule:evenodd;clip-rule:evenodd;fill:#696C83;}
	.st3{fill-rule:evenodd;clip-rule:evenodd;fill:#E6AF93;}
	.st4{fill-rule:evenodd;clip-rule:evenodd;fill:#F8BD9D;}
	.st5{fill-rule:evenodd;clip-rule:evenodd;fill:#E4E4E4;}
	.st6{fill-rule:evenodd;clip-rule:evenodd;fill:#969CB3;}
	.st7{fill-rule:evenodd;clip-rule:evenodd;fill:#F3BA99;}
	.st8{fill-rule:evenodd;clip-rule:evenodd;fill:#322554;}
	.st9{fill-rule:evenodd;clip-rule:evenodd;fill:#DDE3E9;}
	.st10{fill-rule:evenodd;clip-rule:evenodd;fill:#463F80;}
	.st11{fill-rule:evenodd;clip-rule:evenodd;fill-opacity:0.1;}
	.st12{fill-rule:evenodd;clip-rule:evenodd;fill:#FFFFFF;fill-opacity:0.2;}
</style>
<desc>Created with Sketch.</desc>
<g id="Sited">
	<g id="Artboard" transform="translate(0.000000, -12.000000)">
		
			<g id="hero-1" transform="translate(356.081138, 457.511076) rotate(-8.000000) translate(-356.081138, -457.511076) translate(-40.918862, -80.988924)">
			
				<g id="Head_x2F_Front_x2F_Rad" transform="translate(541.237150, 199.908269) rotate(32.000000) translate(-541.237150, -199.908269) translate(371.955607, 70.501292)">
				<g id="Head" transform="translate(134.602941, 77.201923)">
					<path class="st0" d="M20.6,85.9c-11.5-13.5-19.3-30-18-48.5c3.7-53.3,78-41.6,92.4-14.7s12.7,95.1-5.9,99.9
						c-7.4,1.9-23.3-2.8-39.4-12.5l10.1,71.6H0L20.6,85.9z"/>
				</g>
				<path id="hair" class="st1" d="M111.2,96.9c-1.9-1.9-3-4.6-3.9-7.2c-0.9-2.7-1.9-5.4-2.5-8.2c-1.3-5.6-1.3-12,2.7-16.4
					c3.2-3.5,8-5.1,12.5-5.4c3-0.2,6,0.2,8.8,1.1c2.8,0.9,5.2,2.8,8,3.9c0.1-6,1.1-12.4,4.2-17.5c2.9-5,7.7-7.7,13-8.5
					c5.5-0.8,10.9,0.5,15.8,3.2c1.2,0.7,2.5,1.4,3.6,2.2c1,0.7,2,1.5,3.1,1.7c1.3,0.3,1.9-0.4,2.7-1.4c1-1.1,2.1-2.1,3.2-2.9
					c5.1-3.8,11.9-5.3,17.8-3.1c2.7,1,5.4,2.8,7.3,5.3c1.7,2.2,2.8,5.6,5.1,7.1c1,0.6,1.7-0.2,2.5-0.8c1.3-0.9,2.6-2,3.9-2.9
					c1.9-1.3,3.9-2.3,6.1-2.8c3.2-0.7,7.6-0.6,8.6,3.6c0.3,1.6,0.1,3.3,0,4.8c-0.2,2.2-0.3,4.4-0.5,6.5c-0.1,1.7-0.3,3.2-0.6,4.9
					c-0.2,0.9-0.7,2.5-0.3,3.3c0.5,1.1,2.6,0.5,3.5,0.5c1.8,0.1,3.6,0.4,5.3,1.2c1.3,0.6,2.7,1.5,3.2,3c0.3,0.9,0.2,1.8,0.1,2.8
					c-0.2,1.1,0,1.7,0.2,2.9c2.4-1.2,10.8-3.8,11.9,0.5c0.4,1.4-0.5,3.1-1.1,4.3c-1.1,2.1-2.5,4.1-3.9,6c-3,3.9-6.6,7.3-10.4,10.1
					c4.5,2,5.7,7.9,1.8,11.5c-1.7,1.6-4,1.9-6.2,1.8c-0.8,0-1.9-0.3-2.6-0.2c-0.3,0.1-0.7,0.4-1.2,0.4c-3.1,0.2-6.5-0.5-9.6-1.2
					c-5.4-1.2-10.4-3.8-14.6-7.6c-1.1-1-1.9-1.6-3.4-1.5c-1.3,0-2.5,0.4-3.7,0.4c-3.3,0.1-6.3-1.5-9.4-2.6
					c-0.2,4.2-1.4,8.7-3.1,12.5c-1.4,3-4.3,3.5-7.1,3.8c-9.1,0.9-18.2-0.1-27.3-0.1c8.8,2,17.9,2.8,26.7,5.2
					c3.9,1.1,0.9,3.7-0.8,5.6c-2.8,3-4.8,6.8-6.3,10.8c-4.3-5.6-11.9-9.3-18.7-7.6c-7.5,1.9-12.7,12-7.9,19.2
					c2.8,4.2,7.8,5.8,11.9,7.6c-3.2,3.4-4,8.4-6,12.5c-1,2.1-2.3,4.4-4.5,5.1c-0.8,0.3-1.7,0.3-2.4,0.9c-0.8,0.8-1,1.7-2,2.4
					c-4,2.8-10.2,2.5-13.7-1.1c-3.2-3.3-2.4-8.4,0.3-11.7c-4.2-1.8-11.9-4-10.3-10.6c-9.2-0.6-31.4-15.5-19.1-26.3
					c-6.8-3.8-13-13.1-8.6-21.4C97,100,104.8,97.2,111.2,96.9"/>
			</g>
			<g id="Bottom_x2F_Standing_x2F_Skirt" transform="translate(0.000000, 482.000000)">
				<path id="Skirt-Shadow" class="st2" d="M242.5,244.2c59.7,16.7,111.3,25.1,154.6,25.1s83.6-12.9,120.8-38.6
					c-58.5-17.1-106.6-25.7-144.4-25.7C335.7,204.9,292,218,242.5,244.2z"/>
				<path id="Leg" class="st3" d="M448.9,293.3c-0.6-0.9-1.1-1.8-1.4-2.8C439.4,269.4,311.5,41.6,298.8,0l144,0
					c9.7,31.7,53.3,230.3,59.4,270c19.4,62.5,59.2,265,64.3,279c5.4,14.8-24.8,30.1-32.8,12C521,532.1,490.5,452.3,477,403.5
					C464.3,357.8,453.9,316.6,448.9,293.3z"/>
				<path id="Leg_00000171698168564966255710000011904604503575297434_" class="st4" d="M331.1,321.1
					c-58.5,14.8-272.3,41.5-287,45.7c-15.1,4.3-28.3-26.8-9.7-33.5c29.7-10.7,111.5-35.5,161.1-45.6c39.9-8.1,76.3-14.8,100.8-18.7
					c-2.1-68.7-11.5-233.4-5.3-269l127.4,0c-6,34.1-56.2,283.1-65.6,308C349.8,316.9,340.9,320.9,331.1,321.1z"/>
				
					<g id="Accessories_x2F_Shoe_x2F_Flat-Sneaker" transform="translate(61.005000, 390.857741) rotate(80.000000) translate(-61.005000, -390.857741) translate(-14.940000, 341.066946)">
					<path id="shoe" class="st5" d="M7.9,60.4c-3.6,9-5.4,15.6-5.4,19.8c0,4.5,0.7,11.1,2.2,19.7c5.2,0,52.1,0,140.5,0
						c3.7-12.1,1.5-18.7-6.3-19.6c-7.9-1-14.4-1.8-19.6-2.6L52.6,47.9c-0.5-0.2-1.1,0-1.3,0.5c0,0,0,0,0,0l-4.8,11.6
						c-7.3,3.4-13.2,5.1-17.8,5.1c-4.2,0-10.3-1.9-18.1-5.8l0,0c-1-0.5-2.2-0.1-2.7,0.9C7.9,60.3,7.9,60.4,7.9,60.4z"/>
				</g>
				
					<g id="Accessories_x2F_Shoe_x2F_Flat-Sneaker_00000171717708152355777840000015748643768960737438_" transform="translate(517.920000, 495.418410)">
					<path id="shoe_00000010989103320976220820000002475861168801461643_" class="st5" d="M7.9,60.4c-3.6,9-5.4,15.6-5.4,19.8
						c0,4.5,0.7,11.1,2.2,19.7c5.2,0,52.1,0,140.5,0c3.7-12.1,1.5-18.7-6.3-19.6c-7.9-1-14.4-1.8-19.6-2.6L52.6,47.9
						c-0.5-0.2-1.1,0-1.3,0.5c0,0,0,0,0,0l-4.8,11.6c-7.3,3.4-13.2,5.1-17.8,5.1c-4.2,0-10.3-1.9-18.1-5.8l0,0
						c-1-0.5-2.2-0.1-2.7,0.9C7.9,60.3,7.9,60.4,7.9,60.4z"/>
				</g>
				<path id="Skirt" class="st6" d="M291.3,0c56.1-16.1,109.3-16.1,159.4,0c17.4,79.5,59.8,111.1,67.2,233
					c-84.7,42.1-189.2-30-276.4,11C216.6,186.6,251.5,48.5,291.3,0z"/>
			</g>
			
				<g id="Body_x2F_Jacket" transform="translate(413.696262, 486.551680) rotate(21.000000) translate(-413.696262, -486.551680) translate(95.539720, 254.175711)">
				<path id="Skin" class="st7" d="M482.1,221.6l70.4,68.7c20.5,8.7,37.3,18.4,50.3,29c2.9,3.6,6.1,10.4-7.7,7.3
					c-13.8-3-28.5-5.6-31.1-1.1c-2.6,4.5,5.1,11.4,0.3,17.3c-3.2,3.9-14-8.6-32.3-37.5l-73.2-43.2L482.1,221.6z M169.7,231.3
					l51.9,0.2c-32.1,103.6-49.4,158.5-51.9,164.9c-5.7,14.3,6.4,36,11.6,47.6c-16.9,7.6-15.1-20.5-36.5-10.6
					c-19.5,9.1-34.3,25.5-56.9,11.6c-2.8-1.7-5.8-8.2,1.5-13.2c18.3-12.5,44.6-34.5,48.2-41.7C142.5,380.3,153.2,327.4,169.7,231.3z
					"/>
				<path id="Coat-Back" class="st8" d="M317.2,13.3l21.5-3.7c37,92.5,101.6,176.5,193.7,252.1l-69.6,84.7
					C370.7,238.7,313.9,127.7,317.2,13.3z"/>
				<path id="Shirt" class="st9" d="M223.6,283.5l191.3,0C370.6,175.6,348.4,84,348.4,8.6L290.7,0C245.4,73,232.5,162.9,223.6,283.5
					z"/>
				<path id="Coat-Front" class="st10" d="M289.5,0C289.5,0,289.5,0,289.5,0l3.8,0c4.5,0.2,11.4,0.4,20.6,0.8l13.9,39.9
					c1.5,48.6,10.1,146.6,25.8,294l-125.4,0c0.3,10.2,0.9,20.5,1.6,30.8l-93.2,0C150.6,208,201.5,86.2,289.5,0
					C289.4,0,289.5,0,289.5,0z"/>
				<path id="Shade" class="st11" d="M236.5,204.5c3.6,63.4,12.5,107.2,26.8,131.2h-35.1C226.8,290,229.5,246.3,236.5,204.5
					L236.5,204.5z"/>
				<polygon id="Light" class="st12" points="256.2,258.6 318,229.8 318,258.6 				"/>
			</g>
		</g>
	</g>
</g>
</svg>
