<?xml version="1.0" encoding="utf-8"?>
<!-- Generator: Adobe Illustrator 26.0.0, SVG Export Plug-In . SVG Version: 6.00 Build 0)  -->
<svg version="1.1" id="圖層_1" xmlns="http://www.w3.org/2000/svg" xmlns:xlink="http://www.w3.org/1999/xlink" x="0px" y="0px"
	 viewBox="0 0 306 391" style="enable-background:new 0 0 306 391;" xml:space="preserve">
<style type="text/css">
	.st0{fill-rule:evenodd;clip-rule:evenodd;fill:#E5B385;}
	.st1{fill-rule:evenodd;clip-rule:evenodd;fill:#E5BE9C;}
	.st2{fill-rule:evenodd;clip-rule:evenodd;fill:#101030;}
	.st3{fill-rule:evenodd;clip-rule:evenodd;fill:#D9A77E;}
	.st4{fill-rule:evenodd;clip-rule:evenodd;fill:#E4E4E4;}
	.st5{fill-rule:evenodd;clip-rule:evenodd;fill:#69A1AC;}
	.st6{fill-rule:evenodd;clip-rule:evenodd;fill:#89C5CC;}
	.st7{fill-rule:evenodd;clip-rule:evenodd;fill:#FECEA0;}
	.st8{fill-rule:evenodd;clip-rule:evenodd;fill:#E87613;}
	.st9{fill-rule:evenodd;clip-rule:evenodd;fill:#DDE3E9;}
	.st10{fill-rule:evenodd;clip-rule:evenodd;fill:#FF9B21;}
</style>
<desc>Created with Sketch.</desc>
<g id="Sited">
	<g id="Scene" transform="translate(-212.000000, -525.000000)">
		
			<g id="hero-3" transform="translate(374.238389, 717.691224) rotate(-10.000000) translate(-374.238389, -717.691224) translate(231.738389, 517.691224)">
			<g id="Head_x2F_Front_x2F_Airy" transform="translate(74.410048, 0.138156)">
				<g id="Head" transform="translate(53.117647, 29.211538)">
					<polygon id="Neck" class="st0" points="0,68.8 9.6,24.5 16.5,24.5 22.8,68.8 					"/>
					<path class="st1" d="M33.9,46.4C26.8,48.2-0.4,34.3,1,14.2S30.7-1.6,36.2,8.6S41,44.6,33.9,46.4z"/>
				</g>
				<path id="hair" class="st2" d="M76.3,26.1c-3-0.5-11.1-0.8-12.6-0.8c-1,0-2,0.2-2.5-0.7c-0.5-0.7-0.3-1.9-0.4-2.7
					c-0.2-1-0.4-1.9-0.6-2.8c-0.7-2.7-1.6-5.2-3-7.6c-2.6-4.5-6.4-8-11.2-10.1C40.6-1,34.6-1.5,28.9-1c-6.1,0.5-11.6,2.5-17.4,4.4
					C6,5.2,0.3,5.9-5.5,5c-5.8-0.9-10.2-4-15-7c-5-3-10.7-5-16.6-4.6c-5.5,0.4-10.6,2.7-15.2,5.7c-4.3,2.8-7.8,6.2-9.8,11
					c-2.1,5.2-2.1,10.8,1.4,15.4c5.1,6.6,14.6,8.3,22.4,8.1c4.6-0.1,9-0.9,13.3-2.4c5.7-2,10.7-5.4,16.1-8.2
					c2.5-1.3,5.1-2.4,7.8-3.1c2.6-0.7,5.3-1.1,7.7,0.5c2.5,1.7,4.8,3.3,7.7,4.4c2.8,1,5.7,1.6,8.7,1.6c5.8,0,11.5-1.8,17.1-3
					c4.6-1,9.5-1.9,14.1-1c1.9,0.4,4.8,1.2,5.5,3.2c-11.8,2.1-16.5,16.6-13.1,27.3c1.8,5.8,12.6,12.5,16.8,9.5c2.7-1.9,1-4.4,0-6.1
					c-2-3.2-2.7-7.3,1-9.5c3.2-1.9,6.6,2.6,6.6,2.6c0.9-0.1,8.5-4.3,13.7-10.6c5.2,0.3,5.9-3.1,4.7-5.8
					C88.2,30.2,80.5,26.8,76.3,26.1z"/>
			</g>
			<g id="Bottom_x2F_Standing_x2F_Baggy-Pants" transform="translate(0.273968, 173.325707)">
				<polygon id="Leg" class="st3" points="126.9,0 173.3,117.5 204.5,216.8 216.8,216.8 169.1,0 				"/>
				<path id="Leg_00000003088340203227682020000010968580744139295872_" class="st0" d="M117.5,0c-0.5,41.3-7.7,96.9-8.9,99.4
					c-0.8,1.7-27.3,23.5-79.6,65.4l8.5,9.1c61.7-35.9,94-56.3,96.8-61.1c4.3-7.2,18.2-73.3,29.4-112.8L117.5,0z"/>
				
					<g id="Accessories_x2F_Shoe_x2F_Flat-Sneaker" transform="translate(48.753333, 178.719665) rotate(50.000000) translate(-48.753333, -178.719665) translate(19.880000, 159.807531)">
					<path id="shoe" class="st4" d="M2.5,24.2C1.5,27,1,29.1,1,30.5c0,1.7,0.3,4.2,0.9,7.5c2,0,19.9,0,53.6,0
						c1.4-4.6,0.6-7.1-2.4-7.5c-3-0.4-5.5-0.7-7.5-1L20.7,18.5c-0.5-0.2-1.1,0-1.3,0.5c0,0,0,0,0,0l-1.6,3.8c-2.8,1.3-5,1.9-6.8,1.9
						c-1.4,0-3.3-0.6-5.8-1.7l0,0c-1-0.5-2.2,0-2.6,1C2.5,24.1,2.5,24.2,2.5,24.2z"/>
				</g>
				
					<g id="Accessories_x2F_Shoe_x2F_Flat-Sneaker_00000142893364215214201400000001556097614583411595_" transform="translate(196.906667, 188.175732)">
					<path id="shoe_00000011028537946473260190000005138175444974860988_" class="st4" d="M2.5,24.2C1.5,27,1,29.1,1,30.5
						c0,1.7,0.3,4.2,0.9,7.5c2,0,19.9,0,53.6,0c1.4-4.6,0.6-7.1-2.4-7.5c-3-0.4-5.5-0.7-7.5-1L20.7,18.5c-0.5-0.2-1.1,0-1.3,0.5
						c0,0,0,0,0,0l-1.6,3.8c-2.8,1.3-5,1.9-6.8,1.9c-1.4,0-3.3-0.6-5.8-1.7l0,0c-1-0.5-2.2,0-2.6,1C2.5,24.1,2.5,24.2,2.5,24.2z"/>
				</g>
				<polygon id="Pant" class="st5" points="158.1,206.6 216.6,200.2 173.2,0 120.8,0 				"/>
				<path id="Pant_00000029005084931077607660000012205393220552892347_" class="st6" d="M41.1,150.3l38.4,45.4
					c40.4-44.1,64-72.9,70.7-86.3S163,59.4,168.3,0l-59,0c-2.9,52.3-4.9,79.6-5.9,82.1C102.4,84.5,81.6,107.2,41.1,150.3z"/>
			</g>
			<g id="Body_x2F_Jacket-2" transform="translate(19.374347, 76.147272)">
				<path id="Skin" class="st7" d="M187.2,73.5l34.3-15.1c6-6,11.8-10.5,17.4-13.7c1.7-0.5,4.5-0.7,1.5,3.8c-3,4.5-6,9.3-4.8,10.8
					c1.2,1.6,4.7-0.2,6.1,2.4c0.9,1.7-5,3.7-17.8,6.1l-25.7,19.7L187.2,73.5z M48.7,77.6l19.4,3.8c-19.5,36.4-29.9,55.6-31.3,57.8
					c-3.2,4.9-0.2,13.9,0.9,18.6c-6.9,1.6-4.2-8.8-12.9-6.6c-7.9,2-14.7,7-22.1,0.2c-0.9-0.8-1.6-3.5,1.5-4.8
					c7.7-3.4,19.2-9.6,21-12.1C27.7,131.3,35.6,112.3,48.7,77.6z"/>
				<path id="Coat-Back" class="st8" d="M120.7,5l8.2-1.4C146.7,20.9,154,62.5,165.8,68c11.2,5.2,27.1,0.2,46-6.6l5.8,13
					c-17.2,18.6-53.8,34.3-68.6,25.3C125.3,85.3,119.9,34.1,120.7,5z"/>
				<path id="Shirt" class="st9" d="M85.1,107.9c32.8,0,56.9,0,72.3,0c3.3,0,2.7-4.8,2.2-7.2c-5.5-27.8-27-57.8-27-97.4L111.7,0
					C94.5,27.8,88.5,62,85.1,107.9z"/>
				<path id="Coat-Front" class="st10" d="M77.9,79.7c-14.7,26.6-27.1,45.8-37.2,57.5l-15.2-3C35.3,73.6,63.6,28.9,110.4,0l0.2,0
					l8,0c18.7,63.9,23.9,106.5,15.5,127.8l-65.1,0C70,112.2,73.3,95.8,77.9,79.7z"/>
			</g>
		</g>
	</g>
</g>
</svg>
