<?xml version="1.0" encoding="utf-8"?>
<!-- Generator: Adobe Illustrator 26.0.0, SVG Export Plug-In . SVG Version: 6.00 Build 0)  -->
<svg version="1.1" id="圖層_1" xmlns="http://www.w3.org/2000/svg" xmlns:xlink="http://www.w3.org/1999/xlink" x="0px" y="0px"
	 viewBox="0 0 275 409" style="enable-background:new 0 0 275 409;" xml:space="preserve">
<style type="text/css">
	.st0{fill-rule:evenodd;clip-rule:evenodd;fill:#E5B385;}
	.st1{fill-rule:evenodd;clip-rule:evenodd;fill:#191847;}
	.st2{fill-rule:evenodd;clip-rule:evenodd;fill:#2F9BC2;}
	.st3{fill-rule:evenodd;clip-rule:evenodd;fill:#39B7DA;}
	.st4{fill-rule:evenodd;clip-rule:evenodd;fill:#15143A;}
	.st5{fill-rule:evenodd;clip-rule:evenodd;fill:#69A1AC;}
	.st6{fill-rule:evenodd;clip-rule:evenodd;fill:#6CA6B1;}
	.st7{fill-rule:evenodd;clip-rule:evenodd;fill:#84BEC4;}
	.st8{fill-rule:evenodd;clip-rule:evenodd;fill:#87C3C9;}
	.st9{fill-rule:evenodd;clip-rule:evenodd;fill:#272647;}
	.st10{fill-rule:evenodd;clip-rule:evenodd;fill:#5C63AB;}
	.st11{fill-rule:evenodd;clip-rule:evenodd;fill-opacity:0.1;}
</style>
<desc>Created with Sketch.</desc>
<g id="Sited">
	
		<g id="hero-4" transform="translate(111.481237, 226.146241) rotate(-160.000000) translate(-111.481237, -226.146241) translate(-31.018763, 25.646241)">
		<g id="Head_x2F_Front_x2F_Wavy" transform="translate(69.486009, 0.269915)">
			<g id="Head" transform="translate(53.117647, 29.211538)">
				<polygon id="Neck" class="st0" points="0,68.8 9.6,24.5 16.5,24.5 22.8,68.8 				"/>
				<path class="st0" d="M33.9,46.4C26.8,48.2-0.4,34.3,1,14.2S30.7-1.6,36.2,8.6S41,44.6,33.9,46.4z"/>
			</g>
			<path id="hair" class="st1" d="M91.4,42.4c-0.2-1.3-0.8-2.8-1.2-4c-0.6-1.6-1.4-3.1-2.4-4.4c-1.8-2.6-4-4.9-6.3-6.8
				c-4.3-3.5-9.9-5.6-15.3-4.9c-2.7,0.3-5.4,1.4-7.7,3.1c-2.1,1.6-4,3.9-6.7,4c-2.9,0.2-5.5-2.4-7.9-3.9c-2.6-1.8-5.4-3.1-8.5-3.6
				c-5.1-0.8-9.9,0.9-13.5,5.1c-3.8,4.4-6.5,10.9-4,16.8c0.5,1.1,1,2,1.9,2.8c0.8,0.7,2,1.4,2.3,2.6c0.3,1.2-0.7,2.7-1.1,3.8
				c-0.6,1.5-1,3.2-0.8,4.8c0.3,2.7,2,5.4,3.8,7.2c1.9,1.8,4.2,2.9,6.6,3.4c1.6,0.3,3.3,0.5,5,0.4c0.8-0.1,1.6-0.3,2.4-0.5
				c0.8-0.2,1.2,0,1.9,0.5c3.1,2,6.4,2.7,9.9,2.4c3-0.2,6.4-1,8.9-3c2.7-2.3,2.7-5.4,2-8.7c0.7,0.3,2.5,0.5,1.4-0.8
				c-0.4-0.5-1.3-0.7-1.8-1c-0.7-0.4-1.3-0.8-1.8-1.4c-2.1-2.4,0-7.2,2.6-8c3.9-1.2,4.7,4.3,7.5,5.7c1.6,0.8,3.3-0.3,4.4-1.4
				c1.6-1.5,2.7-3.5,3.6-5.6c0.8-1.7,1.5-3.4,2.3-5.1c0.4-0.8,1.6-3,1-3.9c2.8-0.5,5.9,0.6,8.2,2.1c1,0.6,1.7,1.3,2.3,2.4
				c0.1,0.2,0.4,0.9,0.7,1C91.7,43.4,91.5,42.7,91.4,42.4"/>
		</g>
		<g id="Standing_x2F_Skinny-Jeans-Walk" transform="translate(0.273968, 174.325707)">
			<polygon id="Leg" class="st2" points="121.2,0 166.7,120.3 198.6,209 216.8,209 172.9,0 			"/>
			<path id="Leg_00000047047405741028040870000007616206366368668344_" class="st3" d="M109.9,0c-0.5,41.3-0.1,96.9-1.3,99.4
				c-0.8,1.7-24.7,21.3-71.7,58.6l9.4,15.9c55.8-36,85.2-56.4,88.1-61.2c4.3-7.2,25.8-73.3,37-112.8L109.9,0z"/>
			
				<g id="Accessories_x2F_Shoe_x2F_Flat-Pointy" transform="translate(53.486667, 178.719665) rotate(50.000000) translate(-53.486667, -178.719665) translate(24.613333, 159.807531)">
				<path id="Shoe" class="st4" d="M0,38l1-19.9l20,0c9.5,6.7,21.8,12,37.1,16.2l0,3.8l-36.1,0L9.5,36.1l0,1.9L0,38z"/>
			</g>
			
				<g id="Accessories_x2F_Shoe_x2F_Flat-Pointy_00000012429951218101197260000017694156401743409321_" transform="translate(196.906667, 188.175732)">
				<path id="Shoe_00000165227468576174969900000014587983940245302657_" class="st4" d="M0,38L1,18l20,0c9.5,6.7,21.8,12,37.1,16.2
					V38l-36.1,0L9.5,36.1l0,1.9H0z"/>
			</g>
		</g>
		<g id="Body_x2F_Trench-Coat" transform="translate(19.374347, 77.147272)">
			
				<g id="Right-Arm" transform="translate(174.992269, 61.736572) rotate(-4.000000) translate(-174.992269, -61.736572) translate(115.437581, -2.627065)">
				<path id="Arm" class="st0" d="M68.4,83.9l28.5,24.2c8,2.8,14.6,6,19.9,9.7c1.2,1.3,2.6,3.8-2.7,3c-5.3-0.8-11-1.4-11.8,0.4
					c-0.9,1.8,2.2,4.2,0.6,6.6c-1.1,1.6-5.5-2.9-13.3-13.4L60.6,99.9L68.4,83.9z"/>
				<path id="Clothes-Back" class="st5" d="M9.2,5l10.4-3.4c14.1,35.2,35.1,69.3,70.1,98l-8.7,15C50.2,96.4,21,82.3,9.2,55
					C5.2,45.9,8.8,16,9.2,5z"/>
				<path id="Sinch" class="st6" d="M82.5,89.1c2.1-1.1,6,6.5,3.9,7.6c-5.9,3.1-13,3.1-21,0.4c-2.2-0.8-3.4-3.2-2.7-5.4
					s3.2-3.4,5.4-2.7C74.1,91.1,78.8,91,82.5,89.1z"/>
			</g>
			
				<g id="Left-Arm" transform="translate(55.616442, 72.498537) rotate(2.000000) translate(-55.616442, -72.498537) translate(-2.992933, -12.215367)">
				<path id="Arm_00000129919054622646979710000007177974258059882419_" class="st0" d="M51.7,83.8c-13.6,36.8-21.6,56.9-23.9,60.3
					c-1.7,2.5-12.8,9.4-20.4,13.2c-3,1.5-2.2,4.1-1.3,4.9c7.8,6.4,14.2,1,22.1-1.4c8.6-2.6,6.4,7.9,13.2,5.9
					c-1.3-4.7-4.8-13.5-1.9-18.6c1.3-2.3,10.9-22.9,28.9-61.9L51.7,83.8z"/>
				<path id="Clothes-Front" class="st7" d="M109.1,10.4c-40.4,26.8-67.4,69.5-81,128.1l18,4.6C62.9,93.9,84.1,66.5,109.7,61
					l4.5-50.7L109.1,10.4z"/>
				<path id="Sinch_00000025412989547028444920000011047194444919915146_" class="st8" d="M30.9,131.2c-2.1,1.1-6-6.5-3.9-7.6
					c5.9-3.1,13-3.1,21-0.4c2.2,0.8,3.4,3.2,2.7,5.4c-0.8,2.2-3.2,3.4-5.4,2.7C39.2,129.3,34.5,129.3,30.9,131.2z"/>
			</g>
			<g id="Body" transform="translate(44.429688, 0.000000)">
				<path id="Clothes-Body" class="st9" d="M40.6,107.8c29.7,3.3,53.1,3.3,70.2,0c2.1-0.4,2-9.5,1-12C96.6,57,86.6,28.6,86.6,1.6
					c-2.8,1.5-7.7,1.7-14.7,0.7C53,30.1,44.4,61.9,40.6,107.8z"/>
				<path id="Clothes-Body_00000042007036413613899740000003938302587758257315_" class="st7" d="M0.8,213.9
					c39-15.6,71.5,3.9,99.5-2.3C115.6,133.4,71.8,41.9,75,0l-9.3,0c-5.2,12.5-19.1,31.3-25.9,50.2c-5.6,15.6,1.7,31.5-1,47.9
					C33,134.4,2.5,177.8,0.8,213.9z"/>
				
					<ellipse id="Button" transform="matrix(-2.259232e-06 -1 1 -2.259232e-06 -3.8878 162.7005)" class="st10" cx="79.4" cy="83.3" rx="3.8" ry="3.8"/>
				
					<ellipse id="Button_00000163795350066731858550000002980566052260864687_" transform="matrix(-2.259232e-06 -1 1 -2.259232e-06 -20.9313 189.1971)" class="st10" cx="84.1" cy="105.1" rx="3.8" ry="3.8"/>
				
					<ellipse id="Button_00000047046335305274887620000002474813966805132464_" transform="matrix(-2.259382e-06 -1 1 -2.259382e-06 -41.756 211.9125)" class="st10" cx="85.1" cy="126.8" rx="3.8" ry="3.8"/>
				<polygon id="Shade-Lapel" class="st11" points="68.2,0.9 63.3,16 73.1,27.2 64.2,36.1 85.7,72.9 59.4,36.1 68.2,27.2 59.4,17.3 
									"/>
				<path id="Belt" class="st8" d="M39.3,102.3L39.3,102.3c2.3,0.4,3.9,2.6,3.5,4.9l-0.5,2.8c-0.4,2.3-2.6,3.9-4.9,3.5c0,0,0,0,0,0
					l0,0c-2.3-0.4-3.9-2.6-3.5-4.9l0.5-2.8C34.8,103.4,37,101.9,39.3,102.3C39.3,102.3,39.3,102.3,39.3,102.3z"/>
			</g>
		</g>
	</g>
</g>
</svg>
