<?xml version="1.0" encoding="utf-8"?>
<!-- Generator: Adobe Illustrator 26.0.0, SVG Export Plug-In . SVG Version: 6.00 Build 0)  -->
<svg version="1.1" id="圖層_1" xmlns="http://www.w3.org/2000/svg" xmlns:xlink="http://www.w3.org/1999/xlink" x="0px" y="0px"
	 viewBox="0 0 354 424" style="enable-background:new 0 0 354 424;" xml:space="preserve">
<style type="text/css">
	.st0{fill-rule:evenodd;clip-rule:evenodd;fill:#E0AF82;}
	.st1{fill-rule:evenodd;clip-rule:evenodd;fill:#EDB988;}
	.st2{fill-rule:evenodd;clip-rule:evenodd;fill:#101030;}
	.st3{fill-rule:evenodd;clip-rule:evenodd;fill:#DBA97F;}
	.st4{fill-rule:evenodd;clip-rule:evenodd;fill:#E4E4E4;}
	.st5{fill-rule:evenodd;clip-rule:evenodd;fill:#DB2146;}
	.st6{fill-rule:evenodd;clip-rule:evenodd;fill:#FF3352;}
	.st7{fill-rule:evenodd;clip-rule:evenodd;fill:#D6A57D;}
	.st8{fill-rule:evenodd;clip-rule:evenodd;fill:#AFBDC5;}
	.st9{fill-rule:evenodd;clip-rule:evenodd;fill:#E6B385;}
	.st10{fill-rule:evenodd;clip-rule:evenodd;fill:#C5CCD6;}
	.st11{fill-rule:evenodd;clip-rule:evenodd;fill-opacity:0.1;}
</style>
<desc>Created with Sketch.</desc>
<g id="Sited">
	<g id="Scene" transform="translate(-49.000000, -40.000000)">
		
			<g id="hero-2" transform="translate(200.190859, 200.561880) rotate(-17.000000) translate(-200.190859, -200.561880) translate(29.190859, -24.938120)">
			
				<g id="Head_x2F_Front_x2F_Short-2" transform="translate(123.130826, 71.352513) scale(-1, 1) rotate(12.000000) translate(-123.130826, -71.352513) translate(49.630826, 14.852513)">
				<g id="Head" transform="translate(60.529412, 33.682692)">
					<polygon id="Neck" class="st0" points="0,79.3 10.9,28.2 18.8,28.2 25.9,79.3 					"/>
					<path class="st1" d="M38.7,53.5C30.6,55.6-0.5,39.6,1.1,16.3S35-1.8,41.2,9.9S46.7,51.4,38.7,53.5z"/>
				</g>
				<path id="Hair" class="st2" d="M67.5,76.4c-3.3-14.6-12.5-24.5-11.1-31c0.9-4.3,3.5-7,7.6-8.1c2.1-8.6,8.9-12.3,20.5-11
					c17.3,1.9,27.8,9.1,23.3,25c-4.2,0-9.2-1.5-16.2,1.1c-2.2,0.8-3.8,3.4-4.8,7.7h-3.2c-3.1-5.1-6.1-7-9.1-5.6s-3.7,4.6-2,9.9
					l-1.6,12H67.5z"/>
			</g>
			
				<g id="Bottom_x2F_Standing_x2F_Jogging" transform="translate(179.500000, 321.500000) scale(-1, 1) translate(-179.500000, -321.500000) translate(17.000000, 192.000000)">
				<polygon id="Leg" class="st3" points="140.8,0 221.3,134.6 281.7,248.4 294.7,248.4 193.6,0 				"/>
				<g id="Accessories_x2F_Shoe_x2F_Flat-Sneaker" transform="translate(270.833333, 215.652720)">
					<path id="shoe" class="st4" d="M3,27.1c-1.3,3.3-1.9,5.8-1.9,7.4c0,1.9,0.3,4.8,1,8.5c2.3,0,22.6,0,61,0c1.6-5.2,0.7-8-2.7-8.4
						c-3.4-0.4-6.3-0.8-8.5-1.1L23.4,20.8c-0.5-0.2-1.1,0-1.3,0.5c0,0,0,0,0,0l-1.9,4.5C17,27.3,14.5,28,12.5,28
						c-1.6,0-3.9-0.7-6.8-2l0,0c-1-0.5-2.2,0-2.7,1C3,27.1,3,27.1,3,27.1z"/>
				</g>
				<path id="Pant" class="st5" d="M264.9,230.2l25.1-7.6c-11-32.8-24.4-69-40.4-108.4S216.5,36.7,198.3,0l-70.8,0
					c20.3,46.4,41.9,88.6,64.7,126.5S239.2,199,264.9,230.2z"/>
				<path id="Leg_00000135651200358959447990000015344858377605706626_" class="st0" d="M135.5,0c-7.6,47.3-22.3,107.7-23.6,109.6
					C111,110.9,77.8,122,12.3,143l2.8,11.5c78.1-11.3,119.2-20,123.4-26.2c6.3-9.3,37.8-83,50-128.2L135.5,0z"/>
				<path id="Pant_00000170965842997957235360000011862985427694811292_" class="st6" d="M35.3,133.1l4.9,18.5
					c58.4,5.1,94.2,1.4,107.3-11.1c13.2-12.5,28.2-59.3,45-140.4l-67.5,0c-10.7,66.4-16.6,101-17.9,103.8S82,116.3,35.3,133.1z"/>
				
					<g id="Accessories_x2F_Shoe_x2F_Flat-Sneaker_00000105426104455765918260000016621024155821597616_" transform="translate(26.541667, 166.887029) rotate(80.000000) translate(-26.541667, -166.887029) translate(-6.500000, 145.213389)">
					<path id="shoe_00000013167184809025280790000004986340239208914588_" class="st4" d="M3,27.1c-1.3,3.3-1.9,5.8-1.9,7.4
						c0,1.9,0.3,4.8,1,8.5c2.3,0,22.6,0,61,0c1.6-5.2,0.7-8-2.7-8.4s-6.3-0.8-8.5-1.1L23.4,20.8c-0.5-0.2-1.1,0-1.3,0.5c0,0,0,0,0,0
						l-1.9,4.5C17,27.3,14.5,28,12.5,28c-1.6,0-3.9-0.7-6.8-2l0,0c-1-0.5-2.2,0-2.7,1C3,27.1,3,27.1,3,27.1z"/>
				</g>
			</g>
			
				<g id="Body_x2F_Long-Sleeve" transform="translate(165.500000, 195.000000) scale(-1, 1) rotate(21.000000) translate(-165.500000, -195.000000) translate(27.000000, 94.000000)">
				<path id="Arm" class="st7" d="M207.8,70.5l42.7-5.8c8.5-4.7,16.4-8,23.6-9.6c2-0.1,5.2,0.7,0.4,4.7c-4.8,4-9.6,8.4-8.8,10.5
					c0.9,2.1,5.3,1.3,6,4.6c0.5,2.2-6.7,2.5-21.7,1.1l-34.7,13.7L207.8,70.5z"/>
				<path id="Clothes-Back" class="st8" d="M138.4,5.4L157,6.6c4.6,41.3,29.5,67.3,85.2,58.5l7.4,53.1
					c-52.1,6.7-97.7-14.1-107.1-70.5C140,33.2,138.1,18.1,138.4,5.4z"/>
				<path id="Arm_00000137830826164917340820000004970599452556844941_" class="st9" d="M73.5,80.4c-18.5,55.1-28.8,84.8-30.9,89.1
					c-1.6,3.1-13,12.7-21,18.1c-3.2,2.2-1.9,5-0.7,5.7c9.8,6,16.3-1.1,24.8-5c9.3-4.3,8.5,7.9,15.9,4.6c-2.3-5.1-7.6-14.5-5.1-20.7
					c1.1-2.8,14.7-33.3,40.6-91.7L73.5,80.4z"/>
				<path id="Clothes-Body" class="st10" d="M95.2,121l85.5,0c-7.9-35.5-23.3-66.3-23.3-114.5L129.2,0C109,31.2,99.2,69.5,95.2,121z
					"/>
				<path id="Clothes-Body_00000055675773851527796170000009628052251469261497_" class="st11" d="M95.2,121l25,0
					c-5.9-23.7-5.8-62.2,0.3-115.6C102.6,36.6,98.8,69.5,95.2,121z"/>
				<path id="Clothes-Front" class="st10" d="M127.4,0C85.9,37.4,58.8,90.4,45.9,158.8l56.8,0c1.5-57.6,9.3-108.5,31.9-152.6
					L129.3,0L127.4,0z"/>
			</g>
		</g>
	</g>
</g>
</svg>
