<svg id="eDY9bGrSQ8X1" xmlns="http://www.w3.org/2000/svg" xmlns:xlink="http://www.w3.org/1999/xlink" viewBox="0 0 575 409" shape-rendering="geometricPrecision" text-rendering="geometricPrecision"><defs><polygon id="eDY9bGrSQ8X2" points="0,0 468.274725,0 468.274725,233 0,233"/><rect id="eDY9bGrSQ8X3" width="106" height="187" rx="0" ry="0"/><linearGradient id="eDY9bGrSQ8X284-fill" x1="0.5" y1="0" x2="0.5" y2="1" spreadMethod="pad" gradientUnits="objectBoundingBox" gradientTransform="translate(0 0)"><stop id="eDY9bGrSQ8X284-fill-0" offset="0%" stop-color="#ffe4dd"/><stop id="eDY9bGrSQ8X284-fill-1" offset="100%" stop-color="#ffd3c7"/></linearGradient><linearGradient id="eDY9bGrSQ8X285-fill" x1="0.5" y1="0" x2="0.5" y2="1" spreadMethod="pad" gradientUnits="objectBoundingBox" gradientTransform="translate(0 0)"><stop id="eDY9bGrSQ8X285-fill-0" offset="0%" stop-color="#ffe4dd"/><stop id="eDY9bGrSQ8X285-fill-1" offset="100%" stop-color="#f3d6ce"/></linearGradient><linearGradient id="eDY9bGrSQ8X287-fill" x1="0.5" y1="0" x2="0.5" y2="1" spreadMethod="pad" gradientUnits="objectBoundingBox" gradientTransform="translate(0 0)"><stop id="eDY9bGrSQ8X287-fill-0" offset="0%" stop-color="#ffe4dd"/><stop id="eDY9bGrSQ8X287-fill-1" offset="100%" stop-color="#f3d6ce"/></linearGradient><linearGradient id="eDY9bGrSQ8X297-fill" x1="0.5" y1="0" x2="0.5" y2="1" spreadMethod="pad" gradientUnits="objectBoundingBox" gradientTransform="translate(0 0)"><stop id="eDY9bGrSQ8X297-fill-0" offset="0%" stop-color="#ffe4dd"/><stop id="eDY9bGrSQ8X297-fill-1" offset="100%" stop-color="#f3d6ce"/></linearGradient><linearGradient id="eDY9bGrSQ8X298-fill" x1="0.5" y1="0" x2="0.5" y2="1" spreadMethod="pad" gradientUnits="objectBoundingBox" gradientTransform="translate(0 0)"><stop id="eDY9bGrSQ8X298-fill-0" offset="0%" stop-color="#ffe4dd"/><stop id="eDY9bGrSQ8X298-fill-1" offset="100%" stop-color="#f3d6ce"/></linearGradient></defs><g><g transform="translate(0 26.204)"><ellipse rx="80" ry="6.5" transform="translate(180 305.296)" fill="#f26659" fill-rule="evenodd"/><g transform="translate(0 165.796)" opacity="0.1"><g><path d="M0.930233,1.860465v0C0.416434,1.860465,0,1.444031,0,0.930233s.416434-.930233.930233-.930233.930232.416434.930232.930233-.416434.930232-.930232.930232" fill="#3e3e3e" fill-rule="evenodd"/><path d="M6.511628,1.860465v0c-.513799,0-.930233-.416434-.930233-.930232s.416434-.930233.930233-.930233.930232.416434.930232.930233-.416434.930232-.930232.930232" fill="#3e3e3e" fill-rule="evenodd"/><path d="M12.093023,1.860465v0c-.513798,0-.930232-.416434-.930232-.930232s.416434-.930233.930232-.930233.930233.416434.930233.930233-.416434.930232-.930233.930232" fill="#3e3e3e" fill-rule="evenodd"/><path d="M17.674419,1.860465v0c-.513799,0-.930233-.416434-.930233-.930232s.416434-.930233.930233-.930233.930232.416434.930232.930233-.416434.930232-.930232.930232" fill="#3e3e3e" fill-rule="evenodd"/><path d="M23.255814,1.860465v0c-.513798,0-.930233-.416434-.930233-.930232s.416435-.930233.930233-.930233.930233.416434.930233.930233-.416435.930232-.930233.930232" fill="#3e3e3e" fill-rule="evenodd"/><path d="M28.837209,1.860465v0c-.513798,0-.930232-.416434-.930232-.930232s.416434-.930233.930232-.930233.930233.416434.930233.930233-.416434.930232-.930233.930232" fill="#3e3e3e" fill-rule="evenodd"/><path d="M0.930233,7.44186v0C0.416434,7.44186,0,7.025426,0,6.511628s.416434-.930233.930233-.930233.930232.416434.930232.930233-.416434.930232-.930232.930232" fill="#3e3e3e" fill-rule="evenodd"/><path d="M6.511628,7.44186v0c-.513799,0-.930233-.416434-.930233-.930232s.416434-.930233.930233-.930233.930232.416434.930232.930233-.416434.930232-.930232.930232" fill="#3e3e3e" fill-rule="evenodd"/><path d="M12.093023,7.44186v0c-.513798,0-.930232-.416434-.930232-.930232s.416434-.930233.930232-.930233.930233.416434.930233.930233-.416434.930232-.930233.930232" fill="#3e3e3e" fill-rule="evenodd"/><path d="M17.674419,7.44186v0c-.513799,0-.930233-.416434-.930233-.930232s.416434-.930233.930233-.930233.930232.416434.930232.930233-.416434.930232-.930232.930232" fill="#3e3e3e" fill-rule="evenodd"/><path d="M23.255814,7.44186v0c-.513798,0-.930233-.416434-.930233-.930232s.416435-.930233.930233-.930233.930233.416434.930233.930233-.416435.930232-.930233.930232" fill="#3e3e3e" fill-rule="evenodd"/><path d="M28.837209,7.44186v0c-.513798,0-.930232-.416434-.930232-.930232s.416434-.930233.930232-.930233.930233.416434.930233.930233-.416434.930232-.930233.930232" fill="#3e3e3e" fill-rule="evenodd"/><path d="M0.930233,13.023256v0C0.416434,13.023256,0,12.606822,0,12.093023s.416434-.930232.930233-.930232.930232.416434.930232.930232-.416434.930233-.930232.930233" fill="#3e3e3e" fill-rule="evenodd"/><path d="M6.511628,13.023256v0c-.513799,0-.930233-.416434-.930233-.930233s.416434-.930232.930233-.930232.930232.416434.930232.930232-.416434.930233-.930232.930233" fill="#3e3e3e" fill-rule="evenodd"/><path d="M12.093023,13.023256v0c-.513798,0-.930232-.416434-.930232-.930233s.416434-.930232.930232-.930232.930233.416434.930233.930232-.416434.930233-.930233.930233" fill="#3e3e3e" fill-rule="evenodd"/><path d="M17.674419,13.023256v0c-.513799,0-.930233-.416434-.930233-.930233s.416434-.930232.930233-.930232.930232.416434.930232.930232-.416434.930233-.930232.930233" fill="#3e3e3e" fill-rule="evenodd"/><path d="M23.255814,13.023256v0c-.513798,0-.930233-.416434-.930233-.930233s.416435-.930232.930233-.930232.930233.416434.930233.930232-.416435.930233-.930233.930233" fill="#3e3e3e" fill-rule="evenodd"/><path d="M28.837209,13.023256v0c-.513798,0-.930232-.416434-.930232-.930233s.416434-.930232.930232-.930232.930233.416434.930233.930232-.416434.930233-.930233.930233" fill="#3e3e3e" fill-rule="evenodd"/><path d="M34.418605,1.860465v0c-.513799,0-.930233-.416434-.930233-.930232s.416434-.930233.930233-.930233.930232.416434.930232.930233-.416434.930232-.930232.930232" fill="#3e3e3e" fill-rule="evenodd"/><path d="M67.906977,1.860465v0c-.513799,0-.930233-.416434-.930233-.930232s.416434-.930233.930233-.930233.930232.416434.930232.930233-.416434.930232-.930232.930232" fill="#3e3e3e" fill-rule="evenodd"/><path d="M40,1.860465v0c-.513798,0-.930233-.416434-.930233-.930232s.416435-.930233.930233-.930233.930233.416434.930233.930233-.416435.930232-.930233.930232" fill="#3e3e3e" fill-rule="evenodd"/><path d="M73.488372,1.860465v0c-.513798,0-.930232-.416434-.930232-.930232s.416434-.930233.930232-.930233.930233.416434.930233.930233-.416434.930232-.930233.930232" fill="#3e3e3e" fill-rule="evenodd"/><path d="M45.581395,1.860465v0c-.513798,0-.930232-.416434-.930232-.930232s.416434-.930233.930232-.930233.930233.416434.930233.930233-.416434.930232-.930233.930232" fill="#3e3e3e" fill-rule="evenodd"/><path d="M79.069767,1.860465v0c-.513798,0-.930232-.416434-.930232-.930232s.416434-.930233.930232-.930233.930233.416434.930233.930233-.416434.930232-.930233.930232" fill="#3e3e3e" fill-rule="evenodd"/><path d="M51.162791,1.860465v0c-.513799,0-.930233-.416434-.930233-.930232s.416434-.930233.930233-.930233.930232.416434.930232.930233-.416434.930232-.930232.930232" fill="#3e3e3e" fill-rule="evenodd"/><path d="M56.744186,1.860465v0c-.513798,0-.930232-.416434-.930232-.930232s.416434-.930233.930232-.930233.930233.416434.930233.930233-.416434.930232-.930233.930232" fill="#3e3e3e" fill-rule="evenodd"/><path d="M62.325581,1.860465v0c-.513798,0-.930232-.416434-.930232-.930232s.416434-.930233.930232-.930233.930233.416434.930233.930233-.416434.930232-.930233.930232" fill="#3e3e3e" fill-rule="evenodd"/><path d="M34.418605,7.44186v0c-.513799,0-.930233-.416434-.930233-.930232s.416434-.930233.930233-.930233.930232.416434.930232.930233-.416434.930232-.930232.930232" fill="#3e3e3e" fill-rule="evenodd"/><path d="M67.906977,7.44186v0c-.513799,0-.930233-.416434-.930233-.930232s.416434-.930233.930233-.930233.930232.416434.930232.930233-.416434.930232-.930232.930232" fill="#3e3e3e" fill-rule="evenodd"/><path d="M40,7.44186v0c-.513798,0-.930233-.416434-.930233-.930232s.416435-.930233.930233-.930233.930233.416434.930233.930233-.416435.930232-.930233.930232" fill="#3e3e3e" fill-rule="evenodd"/><path d="M73.488372,7.44186v0c-.513798,0-.930232-.416434-.930232-.930232s.416434-.930233.930232-.930233.930233.416434.930233.930233-.416434.930232-.930233.930232" fill="#3e3e3e" fill-rule="evenodd"/><path d="M45.581395,7.44186v0c-.513798,0-.930232-.416434-.930232-.930232s.416434-.930233.930232-.930233.930233.416434.930233.930233-.416434.930232-.930233.930232" fill="#3e3e3e" fill-rule="evenodd"/><path d="M79.069767,7.44186v0c-.513798,0-.930232-.416434-.930232-.930232s.416434-.930233.930232-.930233.930233.416434.930233.930233-.416434.930232-.930233.930232" fill="#3e3e3e" fill-rule="evenodd"/><path d="M51.162791,7.44186v0c-.513799,0-.930233-.416434-.930233-.930232s.416434-.930233.930233-.930233.930232.416434.930232.930233-.416434.930232-.930232.930232" fill="#3e3e3e" fill-rule="evenodd"/><path d="M56.744186,7.44186v0c-.513798,0-.930232-.416434-.930232-.930232s.416434-.930233.930232-.930233.930233.416434.930233.930233-.416434.930232-.930233.930232" fill="#3e3e3e" fill-rule="evenodd"/><path d="M62.325581,7.44186v0c-.513798,0-.930232-.416434-.930232-.930232s.416434-.930233.930232-.930233.930233.416434.930233.930233-.416434.930232-.930233.930232" fill="#3e3e3e" fill-rule="evenodd"/><path d="M34.418605,13.023256v0c-.513799,0-.930233-.416434-.930233-.930233s.416434-.930232.930233-.930232.930232.416434.930232.930232-.416434.930233-.930232.930233" fill="#3e3e3e" fill-rule="evenodd"/><path d="M67.906977,13.023256v0c-.513799,0-.930233-.416434-.930233-.930233s.416434-.930232.930233-.930232.930232.416434.930232.930232-.416434.930233-.930232.930233" fill="#3e3e3e" fill-rule="evenodd"/><path d="M40,13.023256v0c-.513798,0-.930233-.416434-.930233-.930233s.416435-.930232.930233-.930232.930233.416434.930233.930232-.416435.930233-.930233.930233" fill="#3e3e3e" fill-rule="evenodd"/><path d="M73.488372,13.023256v0c-.513798,0-.930232-.416434-.930232-.930233s.416434-.930232.930232-.930232.930233.416434.930233.930232-.416434.930233-.930233.930233" fill="#3e3e3e" fill-rule="evenodd"/><path d="M45.581395,13.023256v0c-.513798,0-.930232-.416434-.930232-.930233s.416434-.930232.930232-.930232.930233.416434.930233.930232-.416434.930233-.930233.930233" fill="#3e3e3e" fill-rule="evenodd"/><path d="M79.069767,13.023256v0c-.513798,0-.930232-.416434-.930232-.930233s.416434-.930232.930232-.930232.930233.416434.930233.930232-.416434.930233-.930233.930233" fill="#3e3e3e" fill-rule="evenodd"/><path d="M51.162791,13.023256v0c-.513799,0-.930233-.416434-.930233-.930233s.416434-.930232.930233-.930232.930232.416434.930232.930232-.416434.930233-.930232.930233" fill="#3e3e3e" fill-rule="evenodd"/><path d="M56.744186,13.023256v0c-.513798,0-.930232-.416434-.930232-.930233s.416434-.930232.930232-.930232.930233.416434.930233.930232-.416434.930233-.930233.930233" fill="#3e3e3e" fill-rule="evenodd"/><path d="M62.325581,13.023256v0c-.513798,0-.930232-.416434-.930232-.930233s.416434-.930232.930232-.930232.930233.416434.930233.930232-.416434.930233-.930233.930233" fill="#3e3e3e" fill-rule="evenodd"/><path d="M0.930233,18.604651v0C0.416434,18.604651,0,18.188217,0,17.674419s.416434-.930233.930233-.930233.930232.416434.930232.930233-.416434.930232-.930232.930232" fill="#3e3e3e" fill-rule="evenodd"/><path d="M6.511628,18.604651v0c-.513799,0-.930233-.416434-.930233-.930232s.416434-.930233.930233-.930233.930232.416434.930232.930233-.416434.930232-.930232.930232" fill="#3e3e3e" fill-rule="evenodd"/><path d="M12.093023,18.604651v0c-.513798,0-.930232-.416434-.930232-.930232s.416434-.930233.930232-.930233.930233.416434.930233.930233-.416434.930232-.930233.930232" fill="#3e3e3e" fill-rule="evenodd"/><path d="M17.674419,18.604651v0c-.513799,0-.930233-.416434-.930233-.930232s.416434-.930233.930233-.930233.930232.416434.930232.930233-.416434.930232-.930232.930232" fill="#3e3e3e" fill-rule="evenodd"/><path d="M23.255814,18.604651v0c-.513798,0-.930233-.416434-.930233-.930232s.416435-.930233.930233-.930233.930233.416434.930233.930233-.416435.930232-.930233.930232" fill="#3e3e3e" fill-rule="evenodd"/><path d="M28.837209,18.604651v0c-.513798,0-.930232-.416434-.930232-.930232s.416434-.930233.930232-.930233.930233.416434.930233.930233-.416434.930232-.930233.930232" fill="#3e3e3e" fill-rule="evenodd"/><path d="M0.930233,24.186047v0C0.416434,24.186047,0,23.769612,0,23.255814s.416434-.930233.930233-.930233.930232.416435.930232.930233-.416434.930233-.930232.930233" fill="#3e3e3e" fill-rule="evenodd"/><path d="M6.511628,24.186047v0c-.513799,0-.930233-.416435-.930233-.930233s.416434-.930233.930233-.930233.930232.416435.930232.930233-.416434.930233-.930232.930233" fill="#3e3e3e" fill-rule="evenodd"/><path d="M12.093023,24.186047v0c-.513798,0-.930232-.416435-.930232-.930233s.416434-.930233.930232-.930233.930233.416435.930233.930233-.416434.930233-.930233.930233" fill="#3e3e3e" fill-rule="evenodd"/><path d="M17.674419,24.186047v0c-.513799,0-.930233-.416435-.930233-.930233s.416434-.930233.930233-.930233.930232.416435.930232.930233-.416434.930233-.930232.930233" fill="#3e3e3e" fill-rule="evenodd"/><path d="M23.255814,24.186047v0c-.513798,0-.930233-.416435-.930233-.930233s.416435-.930233.930233-.930233.930233.416435.930233.930233-.416435.930233-.930233.930233" fill="#3e3e3e" fill-rule="evenodd"/><path d="M28.837209,24.186047v0c-.513798,0-.930232-.416435-.930232-.930233s.416434-.930233.930232-.930233.930233.416435.930233.930233-.416434.930233-.930233.930233" fill="#3e3e3e" fill-rule="evenodd"/><path d="M0.930233,29.767442v0C0.416434,29.767442,0,29.351008,0,28.837209s.416434-.930232.930233-.930232.930232.416434.930232.930232-.416434.930233-.930232.930233" fill="#3e3e3e" fill-rule="evenodd"/><path d="M6.511628,29.767442v0c-.513799,0-.930233-.416434-.930233-.930233s.416434-.930232.930233-.930232.930232.416434.930232.930232-.416434.930233-.930232.930233" fill="#3e3e3e" fill-rule="evenodd"/><path d="M12.093023,29.767442v0c-.513798,0-.930232-.416434-.930232-.930233s.416434-.930232.930232-.930232.930233.416434.930233.930232-.416434.930233-.930233.930233" fill="#3e3e3e" fill-rule="evenodd"/><path d="M17.674419,29.767442v0c-.513799,0-.930233-.416434-.930233-.930233s.416434-.930232.930233-.930232.930232.416434.930232.930232-.416434.930233-.930232.930233" fill="#3e3e3e" fill-rule="evenodd"/><path d="M23.255814,29.767442v0c-.513798,0-.930233-.416434-.930233-.930233s.416435-.930232.930233-.930232.930233.416434.930233.930232-.416435.930233-.930233.930233" fill="#3e3e3e" fill-rule="evenodd"/><path d="M28.837209,29.767442v0c-.513798,0-.930232-.416434-.930232-.930233s.416434-.930232.930232-.930232.930233.416434.930233.930232-.416434.930233-.930233.930233" fill="#3e3e3e" fill-rule="evenodd"/><path d="M0.930233,35.348837v0C0.416434,35.348837,0,34.932403,0,34.418605s.416434-.930233.930233-.930233.930232.416434.930232.930233-.416434.930232-.930232.930232" fill="#3e3e3e" fill-rule="evenodd"/><path d="M6.511628,35.348837v0c-.513799,0-.930233-.416434-.930233-.930232s.416434-.930233.930233-.930233.930232.416434.930232.930233-.416434.930232-.930232.930232" fill="#3e3e3e" fill-rule="evenodd"/><path d="M12.093023,35.348837v0c-.513798,0-.930232-.416434-.930232-.930232s.416434-.930233.930232-.930233.930233.416434.930233.930233-.416434.930232-.930233.930232" fill="#3e3e3e" fill-rule="evenodd"/><path d="M17.674419,35.348837v0c-.513799,0-.930233-.416434-.930233-.930232s.416434-.930233.930233-.930233.930232.416434.930232.930233-.416434.930232-.930232.930232" fill="#3e3e3e" fill-rule="evenodd"/><path d="M23.255814,35.348837v0c-.513798,0-.930233-.416434-.930233-.930232s.416435-.930233.930233-.930233.930233.416434.930233.930233-.416435.930232-.930233.930232" fill="#3e3e3e" fill-rule="evenodd"/><path d="M28.837209,35.348837v0c-.513798,0-.930232-.416434-.930232-.930232s.416434-.930233.930232-.930233.930233.416434.930233.930233-.416434.930232-.930233.930232" fill="#3e3e3e" fill-rule="evenodd"/><path d="M0.930233,40.930233v0C0.416434,40.930233,0,40.513798,0,40s.416434-.930233.930233-.930233.930232.416435.930232.930233-.416434.930233-.930232.930233" fill="#3e3e3e" fill-rule="evenodd"/><path d="M6.511628,40.930233v0c-.513799,0-.930233-.416435-.930233-.930233s.416434-.930233.930233-.930233.930232.416435.930232.930233-.416434.930233-.930232.930233" fill="#3e3e3e" fill-rule="evenodd"/><path d="M12.093023,40.930233v0c-.513798,0-.930232-.416435-.930232-.930233s.416434-.930233.930232-.930233.930233.416435.930233.930233-.416434.930233-.930233.930233" fill="#3e3e3e" fill-rule="evenodd"/><path d="M17.674419,40.930233v0c-.513799,0-.930233-.416435-.930233-.930233s.416434-.930233.930233-.930233.930232.416435.930232.930233-.416434.930233-.930232.930233" fill="#3e3e3e" fill-rule="evenodd"/><path d="M23.255814,40.930233v0c-.513798,0-.930233-.416435-.930233-.930233s.416435-.930233.930233-.930233.930233.416435.930233.930233-.416435.930233-.930233.930233" fill="#3e3e3e" fill-rule="evenodd"/><path d="M28.837209,40.930233v0c-.513798,0-.930232-.416435-.930232-.930233s.416434-.930233.930232-.930233.930233.416435.930233.930233-.416434.930233-.930233.930233" fill="#3e3e3e" fill-rule="evenodd"/><path d="M0.930233,46.511628v0C0.416434,46.511628,0,46.095194,0,45.581395s.416434-.930232.930233-.930232.930232.416434.930232.930232-.416434.930233-.930232.930233" fill="#3e3e3e" fill-rule="evenodd"/><path d="M6.511628,46.511628v0c-.513799,0-.930233-.416434-.930233-.930233s.416434-.930232.930233-.930232.930232.416434.930232.930232-.416434.930233-.930232.930233" fill="#3e3e3e" fill-rule="evenodd"/><path d="M12.093023,46.511628v0c-.513798,0-.930232-.416434-.930232-.930233s.416434-.930232.930232-.930232.930233.416434.930233.930232-.416434.930233-.930233.930233" fill="#3e3e3e" fill-rule="evenodd"/><path d="M17.674419,46.511628v0c-.513799,0-.930233-.416434-.930233-.930233s.416434-.930232.930233-.930232.930232.416434.930232.930232-.416434.930233-.930232.930233" fill="#3e3e3e" fill-rule="evenodd"/><path d="M23.255814,46.511628v0c-.513798,0-.930233-.416434-.930233-.930233s.416435-.930232.930233-.930232.930233.416434.930233.930232-.416435.930233-.930233.930233" fill="#3e3e3e" fill-rule="evenodd"/><path d="M28.837209,46.511628v0c-.513798,0-.930232-.416434-.930232-.930233s.416434-.930232.930232-.930232.930233.416434.930233.930232-.416434.930233-.930233.930233" fill="#3e3e3e" fill-rule="evenodd"/><path d="M0.930233,52.093023v0C0.416434,52.093023,0,51.676589,0,51.162791s.416434-.930233.930233-.930233.930232.416434.930232.930233-.416434.930232-.930232.930232" fill="#3e3e3e" fill-rule="evenodd"/><path d="M6.511628,52.093023v0c-.513799,0-.930233-.416434-.930233-.930232s.416434-.930233.930233-.930233.930232.416434.930232.930233-.416434.930232-.930232.930232" fill="#3e3e3e" fill-rule="evenodd"/><path d="M12.093023,52.093023v0c-.513798,0-.930232-.416434-.930232-.930232s.416434-.930233.930232-.930233.930233.416434.930233.930233-.416434.930232-.930233.930232" fill="#3e3e3e" fill-rule="evenodd"/><path d="M17.674419,52.093023v0c-.513799,0-.930233-.416434-.930233-.930232s.416434-.930233.930233-.930233.930232.416434.930232.930233-.416434.930232-.930232.930232" fill="#3e3e3e" fill-rule="evenodd"/><path d="M23.255814,52.093023v0c-.513798,0-.930233-.416434-.930233-.930232s.416435-.930233.930233-.930233.930233.416434.930233.930233-.416435.930232-.930233.930232" fill="#3e3e3e" fill-rule="evenodd"/><path d="M28.837209,52.093023v0c-.513798,0-.930232-.416434-.930232-.930232s.416434-.930233.930232-.930233.930233.416434.930233.930233-.416434.930232-.930233.930232" fill="#3e3e3e" fill-rule="evenodd"/><path d="M34.418605,18.604651v0c-.513799,0-.930233-.416434-.930233-.930232s.416434-.930233.930233-.930233.930232.416434.930232.930233-.416434.930232-.930232.930232" fill="#3e3e3e" fill-rule="evenodd"/><path d="M67.906977,18.604651v0c-.513799,0-.930233-.416434-.930233-.930232s.416434-.930233.930233-.930233.930232.416434.930232.930233-.416434.930232-.930232.930232" fill="#3e3e3e" fill-rule="evenodd"/><path d="M40,18.604651v0c-.513798,0-.930233-.416434-.930233-.930232s.416435-.930233.930233-.930233.930233.416434.930233.930233-.416435.930232-.930233.930232" fill="#3e3e3e" fill-rule="evenodd"/><path d="M73.488372,18.604651v0c-.513798,0-.930232-.416434-.930232-.930232s.416434-.930233.930232-.930233.930233.416434.930233.930233-.416434.930232-.930233.930232" fill="#3e3e3e" fill-rule="evenodd"/><path d="M45.581395,18.604651v0c-.513798,0-.930232-.416434-.930232-.930232s.416434-.930233.930232-.930233.930233.416434.930233.930233-.416434.930232-.930233.930232" fill="#3e3e3e" fill-rule="evenodd"/><path d="M79.069767,18.604651v0c-.513798,0-.930232-.416434-.930232-.930232s.416434-.930233.930232-.930233.930233.416434.930233.930233-.416434.930232-.930233.930232" fill="#3e3e3e" fill-rule="evenodd"/><path d="M51.162791,18.604651v0c-.513799,0-.930233-.416434-.930233-.930232s.416434-.930233.930233-.930233.930232.416434.930232.930233-.416434.930232-.930232.930232" fill="#3e3e3e" fill-rule="evenodd"/><path d="M56.744186,18.604651v0c-.513798,0-.930232-.416434-.930232-.930232s.416434-.930233.930232-.930233.930233.416434.930233.930233-.416434.930232-.930233.930232" fill="#3e3e3e" fill-rule="evenodd"/><path d="M62.325581,18.604651v0c-.513798,0-.930232-.416434-.930232-.930232s.416434-.930233.930232-.930233.930233.416434.930233.930233-.416434.930232-.930233.930232" fill="#3e3e3e" fill-rule="evenodd"/><path d="M34.418605,24.186047v0c-.513799,0-.930233-.416435-.930233-.930233s.416434-.930233.930233-.930233.930232.416435.930232.930233-.416434.930233-.930232.930233" fill="#3e3e3e" fill-rule="evenodd"/><path d="M67.906977,24.186047v0c-.513799,0-.930233-.416435-.930233-.930233s.416434-.930233.930233-.930233.930232.416435.930232.930233-.416434.930233-.930232.930233" fill="#3e3e3e" fill-rule="evenodd"/><path d="M40,24.186047v0c-.513798,0-.930233-.416435-.930233-.930233s.416435-.930233.930233-.930233.930233.416435.930233.930233-.416435.930233-.930233.930233" fill="#3e3e3e" fill-rule="evenodd"/><path d="M73.488372,24.186047v0c-.513798,0-.930232-.416435-.930232-.930233s.416434-.930233.930232-.930233.930233.416435.930233.930233-.416434.930233-.930233.930233" fill="#3e3e3e" fill-rule="evenodd"/><path d="M45.581395,24.186047v0c-.513798,0-.930232-.416435-.930232-.930233s.416434-.930233.930232-.930233.930233.416435.930233.930233-.416434.930233-.930233.930233" fill="#3e3e3e" fill-rule="evenodd"/><path d="M79.069767,24.186047v0c-.513798,0-.930232-.416435-.930232-.930233s.416434-.930233.930232-.930233.930233.416435.930233.930233-.416434.930233-.930233.930233" fill="#3e3e3e" fill-rule="evenodd"/><path d="M51.162791,24.186047v0c-.513799,0-.930233-.416435-.930233-.930233s.416434-.930233.930233-.930233.930232.416435.930232.930233-.416434.930233-.930232.930233" fill="#3e3e3e" fill-rule="evenodd"/><path d="M56.744186,24.186047v0c-.513798,0-.930232-.416435-.930232-.930233s.416434-.930233.930232-.930233.930233.416435.930233.930233-.416434.930233-.930233.930233" fill="#3e3e3e" fill-rule="evenodd"/><path d="M62.325581,24.186047v0c-.513798,0-.930232-.416435-.930232-.930233s.416434-.930233.930232-.930233.930233.416435.930233.930233-.416434.930233-.930233.930233" fill="#3e3e3e" fill-rule="evenodd"/><path d="M34.418605,29.767442v0c-.513799,0-.930233-.416434-.930233-.930233s.416434-.930232.930233-.930232.930232.416434.930232.930232-.416434.930233-.930232.930233" fill="#3e3e3e" fill-rule="evenodd"/><path d="M67.906977,29.767442v0c-.513799,0-.930233-.416434-.930233-.930233s.416434-.930232.930233-.930232.930232.416434.930232.930232-.416434.930233-.930232.930233" fill="#3e3e3e" fill-rule="evenodd"/><path d="M40,29.767442v0c-.513798,0-.930233-.416434-.930233-.930233s.416435-.930232.930233-.930232.930233.416434.930233.930232-.416435.930233-.930233.930233" fill="#3e3e3e" fill-rule="evenodd"/><path d="M73.488372,29.767442v0c-.513798,0-.930232-.416434-.930232-.930233s.416434-.930232.930232-.930232.930233.416434.930233.930232-.416434.930233-.930233.930233" fill="#3e3e3e" fill-rule="evenodd"/><path d="M45.581395,29.767442v0c-.513798,0-.930232-.416434-.930232-.930233s.416434-.930232.930232-.930232.930233.416434.930233.930232-.416434.930233-.930233.930233" fill="#3e3e3e" fill-rule="evenodd"/><path d="M79.069767,29.767442v0c-.513798,0-.930232-.416434-.930232-.930233s.416434-.930232.930232-.930232.930233.416434.930233.930232-.416434.930233-.930233.930233" fill="#3e3e3e" fill-rule="evenodd"/><path d="M51.162791,29.767442v0c-.513799,0-.930233-.416434-.930233-.930233s.416434-.930232.930233-.930232.930232.416434.930232.930232-.416434.930233-.930232.930233" fill="#3e3e3e" fill-rule="evenodd"/><path d="M56.744186,29.767442v0c-.513798,0-.930232-.416434-.930232-.930233s.416434-.930232.930232-.930232.930233.416434.930233.930232-.416434.930233-.930233.930233" fill="#3e3e3e" fill-rule="evenodd"/><path d="M62.325581,29.767442v0c-.513798,0-.930232-.416434-.930232-.930233s.416434-.930232.930232-.930232.930233.416434.930233.930232-.416434.930233-.930233.930233" fill="#3e3e3e" fill-rule="evenodd"/><path d="M34.418605,35.348837v0c-.513799,0-.930233-.416434-.930233-.930232s.416434-.930233.930233-.930233.930232.416434.930232.930233-.416434.930232-.930232.930232" fill="#3e3e3e" fill-rule="evenodd"/><path d="M67.906977,35.348837v0c-.513799,0-.930233-.416434-.930233-.930232s.416434-.930233.930233-.930233.930232.416434.930232.930233-.416434.930232-.930232.930232" fill="#3e3e3e" fill-rule="evenodd"/><path d="M40,35.348837v0c-.513798,0-.930233-.416434-.930233-.930232s.416435-.930233.930233-.930233.930233.416434.930233.930233-.416435.930232-.930233.930232" fill="#3e3e3e" fill-rule="evenodd"/><path d="M73.488372,35.348837v0c-.513798,0-.930232-.416434-.930232-.930232s.416434-.930233.930232-.930233.930233.416434.930233.930233-.416434.930232-.930233.930232" fill="#3e3e3e" fill-rule="evenodd"/><path d="M45.581395,35.348837v0c-.513798,0-.930232-.416434-.930232-.930232s.416434-.930233.930232-.930233.930233.416434.930233.930233-.416434.930232-.930233.930232" fill="#3e3e3e" fill-rule="evenodd"/><path d="M79.069767,35.348837v0c-.513798,0-.930232-.416434-.930232-.930232s.416434-.930233.930232-.930233.930233.416434.930233.930233-.416434.930232-.930233.930232" fill="#3e3e3e" fill-rule="evenodd"/><path d="M51.162791,35.348837v0c-.513799,0-.930233-.416434-.930233-.930232s.416434-.930233.930233-.930233.930232.416434.930232.930233-.416434.930232-.930232.930232" fill="#3e3e3e" fill-rule="evenodd"/><path d="M56.744186,35.348837v0c-.513798,0-.930232-.416434-.930232-.930232s.416434-.930233.930232-.930233.930233.416434.930233.930233-.416434.930232-.930233.930232" fill="#3e3e3e" fill-rule="evenodd"/><path d="M62.325581,35.348837v0c-.513798,0-.930232-.416434-.930232-.930232s.416434-.930233.930232-.930233.930233.416434.930233.930233-.416434.930232-.930233.930232" fill="#3e3e3e" fill-rule="evenodd"/><path d="M34.418605,40.930233v0c-.513799,0-.930233-.416435-.930233-.930233s.416434-.930233.930233-.930233.930232.416435.930232.930233-.416434.930233-.930232.930233" fill="#3e3e3e" fill-rule="evenodd"/><path d="M67.906977,40.930233v0c-.513799,0-.930233-.416435-.930233-.930233s.416434-.930233.930233-.930233.930232.416435.930232.930233-.416434.930233-.930232.930233" fill="#3e3e3e" fill-rule="evenodd"/><path d="M40,40.930233v0c-.513798,0-.930233-.416435-.930233-.930233s.416435-.930233.930233-.930233.930233.416435.930233.930233-.416435.930233-.930233.930233" fill="#3e3e3e" fill-rule="evenodd"/><path d="M73.488372,40.930233v0c-.513798,0-.930232-.416435-.930232-.930233s.416434-.930233.930232-.930233.930233.416435.930233.930233-.416434.930233-.930233.930233" fill="#3e3e3e" fill-rule="evenodd"/><path d="M45.581395,40.930233v0c-.513798,0-.930232-.416435-.930232-.930233s.416434-.930233.930232-.930233.930233.416435.930233.930233-.416434.930233-.930233.930233" fill="#3e3e3e" fill-rule="evenodd"/><path d="M79.069767,40.930233v0c-.513798,0-.930232-.416435-.930232-.930233s.416434-.930233.930232-.930233.930233.416435.930233.930233-.416434.930233-.930233.930233" fill="#3e3e3e" fill-rule="evenodd"/><path d="M51.162791,40.930233v0c-.513799,0-.930233-.416435-.930233-.930233s.416434-.930233.930233-.930233.930232.416435.930232.930233-.416434.930233-.930232.930233" fill="#3e3e3e" fill-rule="evenodd"/><path d="M56.744186,40.930233v0c-.513798,0-.930232-.416435-.930232-.930233s.416434-.930233.930232-.930233.930233.416435.930233.930233-.416434.930233-.930233.930233" fill="#3e3e3e" fill-rule="evenodd"/><path d="M62.325581,40.930233v0c-.513798,0-.930232-.416435-.930232-.930233s.416434-.930233.930232-.930233.930233.416435.930233.930233-.416434.930233-.930233.930233" fill="#3e3e3e" fill-rule="evenodd"/><path d="M34.418605,46.511628v0c-.513799,0-.930233-.416434-.930233-.930233s.416434-.930232.930233-.930232.930232.416434.930232.930232-.416434.930233-.930232.930233" fill="#3e3e3e" fill-rule="evenodd"/><path d="M67.906977,46.511628v0c-.513799,0-.930233-.416434-.930233-.930233s.416434-.930232.930233-.930232.930232.416434.930232.930232-.416434.930233-.930232.930233" fill="#3e3e3e" fill-rule="evenodd"/><path d="M40,46.511628v0c-.513798,0-.930233-.416434-.930233-.930233s.416435-.930232.930233-.930232.930233.416434.930233.930232-.416435.930233-.930233.930233" fill="#3e3e3e" fill-rule="evenodd"/><path d="M73.488372,46.511628v0c-.513798,0-.930232-.416434-.930232-.930233s.416434-.930232.930232-.930232.930233.416434.930233.930232-.416434.930233-.930233.930233" fill="#3e3e3e" fill-rule="evenodd"/><path d="M45.581395,46.511628v0c-.513798,0-.930232-.416434-.930232-.930233s.416434-.930232.930232-.930232.930233.416434.930233.930232-.416434.930233-.930233.930233" fill="#3e3e3e" fill-rule="evenodd"/><path d="M79.069767,46.511628v0c-.513798,0-.930232-.416434-.930232-.930233s.416434-.930232.930232-.930232.930233.416434.930233.930232-.416434.930233-.930233.930233" fill="#3e3e3e" fill-rule="evenodd"/><path d="M51.162791,46.511628v0c-.513799,0-.930233-.416434-.930233-.930233s.416434-.930232.930233-.930232.930232.416434.930232.930232-.416434.930233-.930232.930233" fill="#3e3e3e" fill-rule="evenodd"/><path d="M56.744186,46.511628v0c-.513798,0-.930232-.416434-.930232-.930233s.416434-.930232.930232-.930232.930233.416434.930233.930232-.416434.930233-.930233.930233" fill="#3e3e3e" fill-rule="evenodd"/><path d="M62.325581,46.511628v0c-.513798,0-.930232-.416434-.930232-.930233s.416434-.930232.930232-.930232.930233.416434.930233.930232-.416434.930233-.930233.930233" fill="#3e3e3e" fill-rule="evenodd"/><path d="M34.418605,52.093023v0c-.513799,0-.930233-.416434-.930233-.930232s.416434-.930233.930233-.930233.930232.416434.930232.930233-.416434.930232-.930232.930232" fill="#3e3e3e" fill-rule="evenodd"/><path d="M67.906977,52.093023v0c-.513799,0-.930233-.416434-.930233-.930232s.416434-.930233.930233-.930233.930232.416434.930232.930233-.416434.930232-.930232.930232" fill="#3e3e3e" fill-rule="evenodd"/><path d="M40,52.093023v0c-.513798,0-.930233-.416434-.930233-.930232s.416435-.930233.930233-.930233.930233.416434.930233.930233-.416435.930232-.930233.930232" fill="#3e3e3e" fill-rule="evenodd"/><path d="M73.488372,52.093023v0c-.513798,0-.930232-.416434-.930232-.930232s.416434-.930233.930232-.930233.930233.416434.930233.930233-.416434.930232-.930233.930232" fill="#3e3e3e" fill-rule="evenodd"/><path d="M45.581395,52.093023v0c-.513798,0-.930232-.416434-.930232-.930232s.416434-.930233.930232-.930233.930233.416434.930233.930233-.416434.930232-.930233.930232" fill="#3e3e3e" fill-rule="evenodd"/><path d="M79.069767,52.093023v0c-.513798,0-.930232-.416434-.930232-.930232s.416434-.930233.930232-.930233.930233.416434.930233.930233-.416434.930232-.930233.930232" fill="#3e3e3e" fill-rule="evenodd"/><path d="M51.162791,52.093023v0c-.513799,0-.930233-.416434-.930233-.930232s.416434-.930233.930233-.930233.930232.416434.930232.930233-.416434.930232-.930232.930232" fill="#3e3e3e" fill-rule="evenodd"/><path d="M56.744186,52.093023v0c-.513798,0-.930232-.416434-.930232-.930232s.416434-.930233.930232-.930233.930233.416434.930233.930233-.416434.930232-.930233.930232" fill="#3e3e3e" fill-rule="evenodd"/><path d="M62.325581,52.093023v0c-.513798,0-.930232-.416434-.930232-.930232s.416434-.930233.930232-.930233.930233.416434.930233.930233-.416434.930232-.930233.930232" fill="#3e3e3e" fill-rule="evenodd"/><path d="M0.930233,57.674419v0C0.416434,57.674419,0,57.257985,0,56.744186s.416434-.930232.930233-.930232.930232.416434.930232.930232-.416434.930233-.930232.930233" fill="#3e3e3e" fill-rule="evenodd"/><path d="M6.511628,57.674419v0c-.513799,0-.930233-.416434-.930233-.930233s.416434-.930232.930233-.930232.930232.416434.930232.930232-.416434.930233-.930232.930233" fill="#3e3e3e" fill-rule="evenodd"/><path d="M12.093023,57.674419v0c-.513798,0-.930232-.416434-.930232-.930233s.416434-.930232.930232-.930232.930233.416434.930233.930232-.416434.930233-.930233.930233" fill="#3e3e3e" fill-rule="evenodd"/><path d="M17.674419,57.674419v0c-.513799,0-.930233-.416434-.930233-.930233s.416434-.930232.930233-.930232.930232.416434.930232.930232-.416434.930233-.930232.930233" fill="#3e3e3e" fill-rule="evenodd"/><path d="M23.255814,57.674419v0c-.513798,0-.930233-.416434-.930233-.930233s.416435-.930232.930233-.930232.930233.416434.930233.930232-.416435.930233-.930233.930233" fill="#3e3e3e" fill-rule="evenodd"/><path d="M28.837209,57.674419v0c-.513798,0-.930232-.416434-.930232-.930233s.416434-.930232.930232-.930232.930233.416434.930233.930232-.416434.930233-.930233.930233" fill="#3e3e3e" fill-rule="evenodd"/><path d="M0.930233,63.255814v0C0.416434,63.255814,0,62.83938,0,62.325581s.416434-.930232.930233-.930232.930232.416434.930232.930232-.416434.930233-.930232.930233" fill="#3e3e3e" fill-rule="evenodd"/><path d="M6.511628,63.255814v0c-.513799,0-.930233-.416434-.930233-.930233s.416434-.930232.930233-.930232.930232.416434.930232.930232-.416434.930233-.930232.930233" fill="#3e3e3e" fill-rule="evenodd"/><path d="M12.093023,63.255814v0c-.513798,0-.930232-.416434-.930232-.930233s.416434-.930232.930232-.930232.930233.416434.930233.930232-.416434.930233-.930233.930233" fill="#3e3e3e" fill-rule="evenodd"/><path d="M17.674419,63.255814v0c-.513799,0-.930233-.416434-.930233-.930233s.416434-.930232.930233-.930232.930232.416434.930232.930232-.416434.930233-.930232.930233" fill="#3e3e3e" fill-rule="evenodd"/><path d="M23.255814,63.255814v0c-.513798,0-.930233-.416434-.930233-.930233s.416435-.930232.930233-.930232.930233.416434.930233.930232-.416435.930233-.930233.930233" fill="#3e3e3e" fill-rule="evenodd"/><path d="M28.837209,63.255814v0c-.513798,0-.930232-.416434-.930232-.930233s.416434-.930232.930232-.930232.930233.416434.930233.930232-.416434.930233-.930233.930233" fill="#3e3e3e" fill-rule="evenodd"/><path d="M0.930233,68.837209v0C0.416434,68.837209,0,68.420775,0,67.906977s.416434-.930233.930233-.930233.930232.416434.930232.930233-.416434.930232-.930232.930232" fill="#3e3e3e" fill-rule="evenodd"/><path d="M6.511628,68.837209v0c-.513799,0-.930233-.416434-.930233-.930232s.416434-.930233.930233-.930233.930232.416434.930232.930233-.416434.930232-.930232.930232" fill="#3e3e3e" fill-rule="evenodd"/><path d="M12.093023,68.837209v0c-.513798,0-.930232-.416434-.930232-.930232s.416434-.930233.930232-.930233.930233.416434.930233.930233-.416434.930232-.930233.930232" fill="#3e3e3e" fill-rule="evenodd"/><path d="M17.674419,68.837209v0c-.513799,0-.930233-.416434-.930233-.930232s.416434-.930233.930233-.930233.930232.416434.930232.930233-.416434.930232-.930232.930232" fill="#3e3e3e" fill-rule="evenodd"/><path d="M23.255814,68.837209v0c-.513798,0-.930233-.416434-.930233-.930232s.416435-.930233.930233-.930233.930233.416434.930233.930233-.416435.930232-.930233.930232" fill="#3e3e3e" fill-rule="evenodd"/><path d="M28.837209,68.837209v0c-.513798,0-.930232-.416434-.930232-.930232s.416434-.930233.930232-.930233.930233.416434.930233.930233-.416434.930232-.930233.930232" fill="#3e3e3e" fill-rule="evenodd"/><path d="M0.930233,74.418605v0C0.416434,74.418605,0,74.002171,0,73.488372s.416434-.930232.930233-.930232.930232.416434.930232.930232-.416434.930233-.930232.930233" fill="#3e3e3e" fill-rule="evenodd"/><path d="M6.511628,74.418605v0c-.513799,0-.930233-.416434-.930233-.930233s.416434-.930232.930233-.930232.930232.416434.930232.930232-.416434.930233-.930232.930233" fill="#3e3e3e" fill-rule="evenodd"/><path d="M12.093023,74.418605v0c-.513798,0-.930232-.416434-.930232-.930233s.416434-.930232.930232-.930232.930233.416434.930233.930232-.416434.930233-.930233.930233" fill="#3e3e3e" fill-rule="evenodd"/><path d="M17.674419,74.418605v0c-.513799,0-.930233-.416434-.930233-.930233s.416434-.930232.930233-.930232.930232.416434.930232.930232-.416434.930233-.930232.930233" fill="#3e3e3e" fill-rule="evenodd"/><path d="M23.255814,74.418605v0c-.513798,0-.930233-.416434-.930233-.930233s.416435-.930232.930233-.930232.930233.416434.930233.930232-.416435.930233-.930233.930233" fill="#3e3e3e" fill-rule="evenodd"/><path d="M28.837209,74.418605v0c-.513798,0-.930232-.416434-.930232-.930233s.416434-.930232.930232-.930232.930233.416434.930233.930232-.416434.930233-.930233.930233" fill="#3e3e3e" fill-rule="evenodd"/><path d="M0.930233,80v0C0.416434,80,0,79.583566,0,79.069767s.416434-.930232.930233-.930232.930232.416434.930232.930232-.416434.930233-.930232.930233" fill="#3e3e3e" fill-rule="evenodd"/><path d="M6.511628,80v0c-.513799,0-.930233-.416434-.930233-.930233s.416434-.930232.930233-.930232.930232.416434.930232.930232-.416434.930233-.930232.930233" fill="#3e3e3e" fill-rule="evenodd"/><path d="M12.093023,80v0c-.513798,0-.930232-.416434-.930232-.930233s.416434-.930232.930232-.930232.930233.416434.930233.930232-.416434.930233-.930233.930233" fill="#3e3e3e" fill-rule="evenodd"/><path d="M17.674419,80v0c-.513799,0-.930233-.416434-.930233-.930233s.416434-.930232.930233-.930232.930232.416434.930232.930232-.416434.930233-.930232.930233" fill="#3e3e3e" fill-rule="evenodd"/><path d="M23.255814,80v0c-.513798,0-.930233-.416434-.930233-.930233s.416435-.930232.930233-.930232.930233.416434.930233.930232-.416435.930233-.930233.930233" fill="#3e3e3e" fill-rule="evenodd"/><path d="M28.837209,80v0c-.513798,0-.930232-.416434-.930232-.930233s.416434-.930232.930232-.930232.930233.416434.930233.930232-.416434.930233-.930233.930233" fill="#3e3e3e" fill-rule="evenodd"/><path d="M34.418605,57.674419v0c-.513799,0-.930233-.416434-.930233-.930233s.416434-.930232.930233-.930232.930232.416434.930232.930232-.416434.930233-.930232.930233" fill="#3e3e3e" fill-rule="evenodd"/><path d="M67.906977,57.674419v0c-.513799,0-.930233-.416434-.930233-.930233s.416434-.930232.930233-.930232.930232.416434.930232.930232-.416434.930233-.930232.930233" fill="#3e3e3e" fill-rule="evenodd"/><path d="M40,57.674419v0c-.513798,0-.930233-.416434-.930233-.930233s.416435-.930232.930233-.930232.930233.416434.930233.930232-.416435.930233-.930233.930233" fill="#3e3e3e" fill-rule="evenodd"/><path d="M73.488372,57.674419v0c-.513798,0-.930232-.416434-.930232-.930233s.416434-.930232.930232-.930232.930233.416434.930233.930232-.416434.930233-.930233.930233" fill="#3e3e3e" fill-rule="evenodd"/><path d="M45.581395,57.674419v0c-.513798,0-.930232-.416434-.930232-.930233s.416434-.930232.930232-.930232.930233.416434.930233.930232-.416434.930233-.930233.930233" fill="#3e3e3e" fill-rule="evenodd"/><path d="M79.069767,57.674419v0c-.513798,0-.930232-.416434-.930232-.930233s.416434-.930232.930232-.930232.930233.416434.930233.930232-.416434.930233-.930233.930233" fill="#3e3e3e" fill-rule="evenodd"/><path d="M51.162791,57.674419v0c-.513799,0-.930233-.416434-.930233-.930233s.416434-.930232.930233-.930232.930232.416434.930232.930232-.416434.930233-.930232.930233" fill="#3e3e3e" fill-rule="evenodd"/><path d="M56.744186,57.674419v0c-.513798,0-.930232-.416434-.930232-.930233s.416434-.930232.930232-.930232.930233.416434.930233.930232-.416434.930233-.930233.930233" fill="#3e3e3e" fill-rule="evenodd"/><path d="M62.325581,57.674419v0c-.513798,0-.930232-.416434-.930232-.930233s.416434-.930232.930232-.930232.930233.416434.930233.930232-.416434.930233-.930233.930233" fill="#3e3e3e" fill-rule="evenodd"/><path d="M34.418605,63.255814v0c-.513799,0-.930233-.416434-.930233-.930233s.416434-.930232.930233-.930232.930232.416434.930232.930232-.416434.930233-.930232.930233" fill="#3e3e3e" fill-rule="evenodd"/><path d="M67.906977,63.255814v0c-.513799,0-.930233-.416434-.930233-.930233s.416434-.930232.930233-.930232.930232.416434.930232.930232-.416434.930233-.930232.930233" fill="#3e3e3e" fill-rule="evenodd"/><path d="M40,63.255814v0c-.513798,0-.930233-.416434-.930233-.930233s.416435-.930232.930233-.930232.930233.416434.930233.930232-.416435.930233-.930233.930233" fill="#3e3e3e" fill-rule="evenodd"/><path d="M73.488372,63.255814v0c-.513798,0-.930232-.416434-.930232-.930233s.416434-.930232.930232-.930232.930233.416434.930233.930232-.416434.930233-.930233.930233" fill="#3e3e3e" fill-rule="evenodd"/><path d="M45.581395,63.255814v0c-.513798,0-.930232-.416434-.930232-.930233s.416434-.930232.930232-.930232.930233.416434.930233.930232-.416434.930233-.930233.930233" fill="#3e3e3e" fill-rule="evenodd"/><path d="M79.069767,63.255814v0c-.513798,0-.930232-.416434-.930232-.930233s.416434-.930232.930232-.930232.930233.416434.930233.930232-.416434.930233-.930233.930233" fill="#3e3e3e" fill-rule="evenodd"/><path d="M51.162791,63.255814v0c-.513799,0-.930233-.416434-.930233-.930233s.416434-.930232.930233-.930232.930232.416434.930232.930232-.416434.930233-.930232.930233" fill="#3e3e3e" fill-rule="evenodd"/><path d="M56.744186,63.255814v0c-.513798,0-.930232-.416434-.930232-.930233s.416434-.930232.930232-.930232.930233.416434.930233.930232-.416434.930233-.930233.930233" fill="#3e3e3e" fill-rule="evenodd"/><path d="M62.325581,63.255814v0c-.513798,0-.930232-.416434-.930232-.930233s.416434-.930232.930232-.930232.930233.416434.930233.930232-.416434.930233-.930233.930233" fill="#3e3e3e" fill-rule="evenodd"/><path d="M34.418605,68.837209v0c-.513799,0-.930233-.416434-.930233-.930232s.416434-.930233.930233-.930233.930232.416434.930232.930233-.416434.930232-.930232.930232" fill="#3e3e3e" fill-rule="evenodd"/><path d="M67.906977,68.837209v0c-.513799,0-.930233-.416434-.930233-.930232s.416434-.930233.930233-.930233.930232.416434.930232.930233-.416434.930232-.930232.930232" fill="#3e3e3e" fill-rule="evenodd"/><path d="M40,68.837209v0c-.513798,0-.930233-.416434-.930233-.930232s.416435-.930233.930233-.930233.930233.416434.930233.930233-.416435.930232-.930233.930232" fill="#3e3e3e" fill-rule="evenodd"/><path d="M73.488372,68.837209v0c-.513798,0-.930232-.416434-.930232-.930232s.416434-.930233.930232-.930233.930233.416434.930233.930233-.416434.930232-.930233.930232" fill="#3e3e3e" fill-rule="evenodd"/><path d="M45.581395,68.837209v0c-.513798,0-.930232-.416434-.930232-.930232s.416434-.930233.930232-.930233.930233.416434.930233.930233-.416434.930232-.930233.930232" fill="#3e3e3e" fill-rule="evenodd"/><path d="M79.069767,68.837209v0c-.513798,0-.930232-.416434-.930232-.930232s.416434-.930233.930232-.930233.930233.416434.930233.930233-.416434.930232-.930233.930232" fill="#3e3e3e" fill-rule="evenodd"/><path d="M51.162791,68.837209v0c-.513799,0-.930233-.416434-.930233-.930232s.416434-.930233.930233-.930233.930232.416434.930232.930233-.416434.930232-.930232.930232" fill="#3e3e3e" fill-rule="evenodd"/><path d="M56.744186,68.837209v0c-.513798,0-.930232-.416434-.930232-.930232s.416434-.930233.930232-.930233.930233.416434.930233.930233-.416434.930232-.930233.930232" fill="#3e3e3e" fill-rule="evenodd"/><path d="M62.325581,68.837209v0c-.513798,0-.930232-.416434-.930232-.930232s.416434-.930233.930232-.930233.930233.416434.930233.930233-.416434.930232-.930233.930232" fill="#3e3e3e" fill-rule="evenodd"/><path d="M34.418605,74.418605v0c-.513799,0-.930233-.416434-.930233-.930233s.416434-.930232.930233-.930232.930232.416434.930232.930232-.416434.930233-.930232.930233" fill="#3e3e3e" fill-rule="evenodd"/><path d="M67.906977,74.418605v0c-.513799,0-.930233-.416434-.930233-.930233s.416434-.930232.930233-.930232.930232.416434.930232.930232-.416434.930233-.930232.930233" fill="#3e3e3e" fill-rule="evenodd"/><path d="M40,74.418605v0c-.513798,0-.930233-.416434-.930233-.930233s.416435-.930232.930233-.930232.930233.416434.930233.930232-.416435.930233-.930233.930233" fill="#3e3e3e" fill-rule="evenodd"/><path d="M73.488372,74.418605v0c-.513798,0-.930232-.416434-.930232-.930233s.416434-.930232.930232-.930232.930233.416434.930233.930232-.416434.930233-.930233.930233" fill="#3e3e3e" fill-rule="evenodd"/><path d="M45.581395,74.418605v0c-.513798,0-.930232-.416434-.930232-.930233s.416434-.930232.930232-.930232.930233.416434.930233.930232-.416434.930233-.930233.930233" fill="#3e3e3e" fill-rule="evenodd"/><path d="M79.069767,74.418605v0c-.513798,0-.930232-.416434-.930232-.930233s.416434-.930232.930232-.930232.930233.416434.930233.930232-.416434.930233-.930233.930233" fill="#3e3e3e" fill-rule="evenodd"/><path d="M51.162791,74.418605v0c-.513799,0-.930233-.416434-.930233-.930233s.416434-.930232.930233-.930232.930232.416434.930232.930232-.416434.930233-.930232.930233" fill="#3e3e3e" fill-rule="evenodd"/><path d="M56.744186,74.418605v0c-.513798,0-.930232-.416434-.930232-.930233s.416434-.930232.930232-.930232.930233.416434.930233.930232-.416434.930233-.930233.930233" fill="#3e3e3e" fill-rule="evenodd"/><path d="M62.325581,74.418605v0c-.513798,0-.930232-.416434-.930232-.930233s.416434-.930232.930232-.930232.930233.416434.930233.930232-.416434.930233-.930233.930233" fill="#3e3e3e" fill-rule="evenodd"/><path d="M34.418605,80v0c-.513799,0-.930233-.416434-.930233-.930233s.416434-.930232.930233-.930232.930232.416434.930232.930232-.416434.930233-.930232.930233" fill="#3e3e3e" fill-rule="evenodd"/><path d="M67.906977,80v0c-.513799,0-.930233-.416434-.930233-.930233s.416434-.930232.930233-.930232.930232.416434.930232.930232-.416434.930233-.930232.930233" fill="#3e3e3e" fill-rule="evenodd"/><path d="M40,80v0c-.513798,0-.930233-.416434-.930233-.930233s.416435-.930232.930233-.930232.930233.416434.930233.930232-.416435.930233-.930233.930233" fill="#3e3e3e" fill-rule="evenodd"/><path d="M73.488372,80v0c-.513798,0-.930232-.416434-.930232-.930233s.416434-.930232.930232-.930232.930233.416434.930233.930232-.416434.930233-.930233.930233" fill="#3e3e3e" fill-rule="evenodd"/><path d="M45.581395,80v0c-.513798,0-.930232-.416434-.930232-.930233s.416434-.930232.930232-.930232.930233.416434.930233.930232-.416434.930233-.930233.930233" fill="#3e3e3e" fill-rule="evenodd"/><path d="M79.069767,80v0c-.513798,0-.930232-.416434-.930232-.930233s.416434-.930232.930232-.930232.930233.416434.930233.930232-.416434.930233-.930233.930233" fill="#3e3e3e" fill-rule="evenodd"/><path d="M51.162791,80v0c-.513799,0-.930233-.416434-.930233-.930233s.416434-.930232.930233-.930232.930232.416434.930232.930232-.416434.930233-.930232.930233" fill="#3e3e3e" fill-rule="evenodd"/><path d="M56.744186,80v0c-.513798,0-.930232-.416434-.930232-.930233s.416434-.930232.930232-.930232.930233.416434.930233.930232-.416434.930233-.930233.930233" fill="#3e3e3e" fill-rule="evenodd"/><path d="M62.325581,80v0c-.513798,0-.930232-.416434-.930232-.930233s.416434-.930232.930232-.930232.930233.416434.930233.930232-.416434.930233-.930233.930233" fill="#3e3e3e" fill-rule="evenodd"/></g></g><g transform="translate(36.0801 0)"><g><use width="468.274719" height="233" xlink:href="#eDY9bGrSQ8X2" fill-rule="evenodd"/><use width="468.274719" height="233" xlink:href="#eDY9bGrSQ8X2" fill="#e9e9e9" fill-rule="evenodd"/></g><rect width="459.786" height="197.414" rx="0" ry="0" transform="translate(3.91992 30.796)" fill="#fff" fill-rule="evenodd"/><rect width="459" height="22.4138" rx="0" ry="0" transform="matrix(1 0 0-1 3.91992 27.20975)" fill="#fff" fill-rule="evenodd"/><rect width="23.2912" height="9.48276" rx="1" ry="1" transform="translate(388.92 10.796)" fill="#f2f2f2" fill-rule="evenodd"/><rect width="23.2912" height="9.48276" rx="1" ry="1" transform="translate(415.92 10.796)" fill="#f2f2f2" fill-rule="evenodd"/><rect width="12.9396" height="9.48276" rx="1" ry="1" transform="translate(442.92 10.796)" fill="#f2f2f2" fill-rule="evenodd"/><rect width="48.3077" height="9.48276" rx="0" ry="0" transform="translate(8.91992 10.796)" fill="#f2f2f2" fill-rule="evenodd"/><rect width="48.3077" height="9.48276" rx="0" ry="0" transform="translate(60.9199 10.796)" fill="#f2f2f2" fill-rule="evenodd"/><rect width="48.3077" height="9.48276" rx="0" ry="0" transform="translate(114.92 10.796)" fill="#f2f2f2" fill-rule="evenodd"/><rect width="48.3077" height="9.48276" rx="3" ry="3" transform="translate(407.92 35.796)" fill="#f2f2f2" fill-rule="evenodd"/><rect width="48.3077" height="9.48276" rx="3" ry="3" transform="translate(353.92 35.796)" fill="#f2f2f2" fill-rule="evenodd"/><rect width="9.48901" height="9.48276" rx="0" ry="0" transform="translate(10.3516 72.6207)" fill="#d8d8d8" fill-rule="evenodd"/><rect width="19.8407" height="9.48276" rx="0" ry="0" transform="translate(9.91992 35.796)" fill="#43b78a" fill-rule="evenodd"/><rect width="9.48901" height="9.48276" rx="0" ry="0" transform="translate(21.5659 72.6207)" fill="#43b78a" fill-rule="evenodd"/><line x1="10.419921" y1="50.295953" x2="463.419921" y2="50.295953" fill="none" fill-rule="evenodd" stroke="#f4f4f4"/><line x1="42.269231" y1="81.672414" x2="244.557692" y2="81.672414" fill="none" fill-rule="evenodd" stroke="#f4f4f4"/><line x1="0.301532" y1="26.5" x2="469.096011" y2="26.715517" fill="none" fill-rule="evenodd" stroke="#f4f4f4"/><line x1="0.301532" y1="4.086207" x2="469.096011" y2="4.301724" fill="none" fill-rule="evenodd" stroke="#ededed"/><g transform="translate(41.4066 97.6207)"><rect width="203.582" height="94.8276" rx="3" ry="3" fill="none" fill-rule="evenodd" stroke="#f2f2f2"/><line x1="0" y1="13.362069" x2="203.582418" y2="13.362069" fill="none" fill-rule="evenodd" stroke="#f2f2f2"/><rect width="203.582" height="13.7931" rx="0" ry="0" fill="#f2f2f2" fill-rule="evenodd" stroke="#f2f2f2"/><line x1="0" y1="29.741379" x2="203.582418" y2="29.741379" fill="none" fill-rule="evenodd" stroke="#f2f2f2"/><line x1="0" y1="46.12069" x2="203.582418" y2="46.12069" fill="none" fill-rule="evenodd" stroke="#f2f2f2"/><line x1="0" y1="61.637931" x2="203.582418" y2="61.637931" fill="none" fill-rule="evenodd" stroke="#f2f2f2"/><line x1="0" y1="78.017241" x2="203.582418" y2="78.017241" fill="none" fill-rule="evenodd" stroke="#f2f2f2"/><line x1="118.612637" y1="0" x2="118.612637" y2="94.827586" fill="none" fill-rule="evenodd" stroke="#f2f2f2"/><line x1="164.332418" y1="0" x2="164.332418" y2="94.827586" fill="none" fill-rule="evenodd" stroke="#f2f2f2"/><rect width="6.03846" height="6.03448" rx="0" ry="0" transform="translate(4.31319 18.9655)" fill="#f26659" fill-rule="evenodd"/><rect width="6.03846" height="6.03448" rx="0" ry="0" transform="translate(4.31319 82.7586)" opacity="0.317292" fill="#f29f98" fill-rule="evenodd"/><rect width="6.03846" height="6.03448" rx="0" ry="0" transform="translate(4.31319 66.3793)" opacity="0.619777" fill="#f29f98" fill-rule="evenodd"/><rect width="6.03846" height="6.03448" rx="0" ry="0" transform="translate(4.31319 35.3448)" fill="#f26659" fill-rule="evenodd"/><rect width="6.03846" height="6.03448" rx="0" ry="0" transform="translate(4.31319 50.8621)" opacity="0.619777" fill="#f98074" fill-rule="evenodd"/></g><g transform="matrix(.669131-.743145 0.743145 0.669131 280.972 144.432)"><g><g id="eDY9bGrSQ8X272" transform="matrix(.707107-.707107 0.707107 0.707107-25.962316 63.182265)"><path d="M62.86803,124.999067c34.793939,0,63-27.84781,63-62.199824c0-26.218964-16.431193-48.648961-39.68168-57.800176" fill="none" fill-rule="evenodd" stroke="#f26659" stroke-width="30"/><path d="M0.809432,62.464225c0,16.39219,6.260502,31.322161,16.520929,42.529336c11.51828,12.581092,28.077321,20.470664,46.479071,20.470664" fill="none" fill-rule="evenodd" stroke="#f98074" stroke-width="30"/><path d="M86.705145,4.852867c-7.18564-2.8752-15.025029-4.456248-23.232329-4.456248-34.665628,0-62.767671,28.206061-62.767671,63" fill="none" fill-rule="evenodd" stroke="#f29f98" stroke-width="30"/></g></g></g></g><g transform="translate(161.723 81.796)"><circle r="17.5" transform="translate(29.7768 17.5)" fill="none" fill-rule="evenodd" stroke="#131313" stroke-width="4"/><line x1="17.607485" y1="28.837209" x2="0" y2="46.444694" fill="none" fill-rule="evenodd" stroke="#101010" stroke-width="5"/></g><g transform="matrix(-1 0 0 1 237 116.796)"><g mask="url(#eDY9bGrSQ8X305)"><g><g transform="translate(0 1.78662)"><path d="M82.97324,7.088332l20.957442,24.316809c3.108032,3.617145,2.664597,9.030425-.991936,12.10916-1.173489.990535-2.597237,1.649285-4.12003,1.906289l-.636024.100188-18.642811,3.183939c-4.94456.844615-9.647536-2.421791-10.50439-7.295722s2.456887-9.509727,7.401447-10.354342l18.64281-3.183939-5.77452,14.115636L71.171995,13.807039" fill="#f26659"/><path d="M71.171995,13.832171l-1.50048-2.356625c-1.849685-2.86585-1.12881-6.654483,1.648694-8.664876s6.660568-1.554151,8.880847,1.043458l2.79768,3.234204" fill="url(#eDY9bGrSQ8X284-fill)"/><path d="M65.296868,25.114016l6.358519.225508c1.579058.055522,3.115601-.510749,4.270394-1.573793s1.83286-2.535432,1.8845-4.092092l.33076-9.451631c.183734-5.183163-3.923831-9.534707-9.181694-9.727063v0c-5.258144-.181112-9.672692,3.867576-9.868021,9.0502l-.305264,8.649448c-.067795,1.768708.580146,3.491494,1.801223,4.789206s2.915221,2.063999,4.709583,2.130217v0Z" fill="url(#eDY9bGrSQ8X285-fill)"/><path d="M59.854142,12.277729c.005157.513689-.374811.95244-.890296,1.028031l.076488-2.055722c.479693.115893.816216.540861.813808,1.027691Z" fill="#2b2b2b"/><path d="M69.925787,35.99443l8.265902-2.683-.228776-17.874893-10.122637-.350827-1.60212,18.025684c-.084286.930854.312239,1.841041,1.055057,2.421786s1.732226.754097,2.632574.46125v0Z" fill="url(#eDY9bGrSQ8X287-fill)"/><polygon points="66.924828,25.16394 71.070355,25.314392 66.568572,29.200327" fill="#2b2b2b"/><path d="M56.191663,59.936638c.076488-9.05054,6.384014-8.599185,4.018735-14.691292s.482359-14.615897,7.528238-14.565973c5.44376.050264,5.822756-.150112,8.11327-.150112c11.470484,0,9.105205,22.890404,9.054557,29.131605l-28.7148.275772Z" fill="#f26659"/><path d="M84.931615,59.660866l15.998108,119.836361-17.524084,1.755158c-.406903-1.203614-.762815-2.406889-1.144223-3.610163s-.712168-2.406889-1.068079-3.633937l-.53404-1.805081c-.178128-.601808-.33076-1.203275-.482358-1.830214l-.991936-3.633937-.482359-1.830213-.457896-1.830214c-.305264-1.203274-.635679-2.43168-.915447-3.633936l-.890296-3.660087-.8648-3.660427c-2.26364-9.752196-4.247511-19.528164-6.053255-29.332322l-.661175-3.685219c-.127136-.601807-.203624-1.228406-.279768-1.855345-.10164-.6266-.178128-1.228407-.254272-1.855006-.33076-2.457152-.686672-4.913965-.991936-7.39591l-.45824-3.714087-.408627-3.71137-.203624-1.855345-.177784-1.855346c-.127135-1.228406-.254271-2.481944-.356256-3.710351-.4324-4.938757-.788311-9.902647-1.017432-14.866536-.127021-2.482172-.203279-4.964229-.228775-7.446174l-.025496-3.735823c0-.626599.025496-1.253538.025496-1.880138s.025496-1.253538.050992-1.880477l20.397562-3.683861Z" fill="#e9e9e9"/><path d="M69.976435,185.213376l28.155265-.100188c1.476188-.006707,2.675053-1.177421,2.695694-2.632397l.076489-3.509975-17.803508.25064-13.479852,3.334391c-1.576623.376979-1.271359,2.657529.355912,2.657529Z" fill="#2b2b2b"/><path d="M83.354992,69.288081L70.079797,104.737303L31.953493,178.970816l-16.862563.977767c.103362-1.27867,22.83933-67.865634,24.696065-72.553752c0,0,11.444989-27.652559,13.200085-32.365809c1.780247-4.71325,3.636983-9.376236,5.773486-13.964166l24.594426,8.223225Z" fill="#e9e9e9"/><path d="M84.982607,59.510415c-.050992,4.788645-5.162958,11.908444-13.606988,11.908444l-1.373344-.075056c-7.706366,0-13.836108-6.24256-13.810691-11.407165l28.791023-.426223Z" fill="#e9e9e9"/><polygon points="61.990645,63.371218 85.338863,63.371218 84.982607,59.510415 63.516621,59.510415" fill="#2b2b2b"/><path d="M1.381957,185.213376l28.155265-.100188c1.476247-.006704,2.675212-1.177366,2.696039-2.632397l.076144-3.509975-17.803507.25064-13.479853,3.334391c-1.551471.376979-1.271703,2.657529.355912,2.657529Z" fill="#2b2b2b"/><path d="M59.16747,8.692698h4.679911v6.393012h1.602119l1.348192,3.760614c.602865,1.693484,2.223163,2.828515,4.043887,2.832773h3.686597c2.365279,0,3.509847-1.90527,3.509847-4.236763l.152288-8.198093c0-4.913625-4.196519-8.898064-9.18135-8.898064h-1.398839c-2.245132-.004083-4.399139.874939-5.984327,2.442137s-2.470537,3.693043-2.459801,5.906082l.001476-.001698Z" fill="#2b2b2b"/><path d="M65.807479,16.58992v0c-.351501.00243-.689334-.134097-.937921-.37907s-.387181-.577944-.384775-.924425v-2.156249c-.002406-.34648.136187-.679453.384775-.924425s.58642-.3815.937921-.37907v0c.351441-.002338.689186.134229.937698.379191s.387059.577883.384654.924304v2.156249c.002405.346421-.136141.679341-.384654.924304s-.586257.38153-.937698.379191Z" fill="url(#eDY9bGrSQ8X297-fill)"/><path d="M45.051594,84.254806l-4.043887,3.911067c-2.449795,2.358114-6.328519,2.459209-8.901315.232004s-2.971966-6.031568-.916059-8.730661l4.018736-5.264114l9.842525,9.851704Z" fill="url(#eDY9bGrSQ8X298-fill)"/><path d="M35.183573,74.377291L51.41149,53.142535l-1.500479,2.331493L57.69352,37.799511c2.015088-4.512765,7.352161-6.57057,11.938724-4.603189s6.696529,7.21955,4.719871,11.748799L66.569261,62.619978l-.228776.501279c-.303324.689749-.744499,1.312201-1.2972,1.830214L45.027131,84.255485l-9.843558-9.878194Z" fill="#f26659"/><path d="M67.50986,110.102623c-.052194.003999-.10459-.004628-.152632-.025132-.095143-.039032-.170344-.114168-.208651-.208472s-.036495-.199835.005027-.292807L77.962913,83.729753c.084296-.193851.312056-.283638.508716-.200546s.287748.307599.203452.50145L67.865772,109.878134c-.062414.138259-.202405.226556-.355912.224489Z" fill="#2b2b2b"/><path d="M81.701536,30.554053c-.183782.002861-.343778-.123222-.381408-.300564-.03397-.200536.102188-.390646.305264-.426223l9.919358-1.679762c.201954-.031318.392023.102938.426853.301509s-.098475.38794-.299373.425278l-9.919357,1.679762h-.051337Z" fill="#2b2b2b"/><path d="M85.160735,49.231468c-.208578-.004839-.376498-.170361-.381407-.375959v-6.041844c0-.207637.170762-.37596.381407-.37596s.381408.168323.381408.37596v6.041844c-.005083.205525-.172904.370949-.381408.375959v0Z" fill="#2b2b2b"/><path d="M50.29104,57.730465c-.208429-.005181-.376151-.170507-.381407-.37596v-2.732584c0-.207637.170762-.37596.381407-.37596s.381408.168323.381408.37596v2.732584c-.005083.205526-.172904.370949-.381408.37596v0Z" fill="#2b2b2b"/><path d="M67.967412,59.811318c-.052192.003944-.104574-.004681-.152632-.025132-.095145-.039022-.17033-.11418-.208581-.208503s-.036339-.199858.005301-.292776l4.222015-9.602083c.084296-.193851.312056-.283638.508716-.200546s.287748.307599.203452.501449L68.322634,59.58581c-.062002.138428-.201719.227125-.355222.225508v0Z" fill="#2b2b2b"/></g></g><mask id="eDY9bGrSQ8X305" mask-type="luminance" x="-150%" y="-150%" height="400%" width="400%"><use width="106" height="187" xlink:href="#eDY9bGrSQ8X3" fill="#fff" fill-rule="evenodd"/></mask></g></g></g></g>
<script><![CDATA[
!function(t,n){"object"==typeof exports&&"undefined"!=typeof module?module.exports=n():"function"==typeof __SVGATOR_DEFINE__&&__SVGATOR_DEFINE__.amd?__SVGATOR_DEFINE__(n):((t="undefined"!=typeof globalThis?globalThis:t||self).__SVGATOR_PLAYER__=t.__SVGATOR_PLAYER__||{},t.__SVGATOR_PLAYER__["5c7f360c"]=n())}(this,(function(){"use strict";function t(t,n){var e=Object.keys(t);if(Object.getOwnPropertySymbols){var r=Object.getOwnPropertySymbols(t);n&&(r=r.filter((function(n){return Object.getOwnPropertyDescriptor(t,n).enumerable}))),e.push.apply(e,r)}return e}function n(n){for(var e=1;e<arguments.length;e++){var r=null!=arguments[e]?arguments[e]:{};e%2?t(Object(r),!0).forEach((function(t){o(n,t,r[t])})):Object.getOwnPropertyDescriptors?Object.defineProperties(n,Object.getOwnPropertyDescriptors(r)):t(Object(r)).forEach((function(t){Object.defineProperty(n,t,Object.getOwnPropertyDescriptor(r,t))}))}return n}function e(t){return(e="function"==typeof Symbol&&"symbol"==typeof Symbol.iterator?function(t){return typeof t}:function(t){return t&&"function"==typeof Symbol&&t.constructor===Symbol&&t!==Symbol.prototype?"symbol":typeof t})(t)}function r(t,n){if(!(t instanceof n))throw new TypeError("Cannot call a class as a function")}function i(t,n){for(var e=0;e<n.length;e++){var r=n[e];r.enumerable=r.enumerable||!1,r.configurable=!0,"value"in r&&(r.writable=!0),Object.defineProperty(t,r.key,r)}}function u(t,n,e){return n&&i(t.prototype,n),e&&i(t,e),t}function o(t,n,e){return n in t?Object.defineProperty(t,n,{value:e,enumerable:!0,configurable:!0,writable:!0}):t[n]=e,t}function a(t){return(a=Object.setPrototypeOf?Object.getPrototypeOf:function(t){return t.__proto__||Object.getPrototypeOf(t)})(t)}function l(t,n){return(l=Object.setPrototypeOf||function(t,n){return t.__proto__=n,t})(t,n)}function s(){if("undefined"==typeof Reflect||!Reflect.construct)return!1;if(Reflect.construct.sham)return!1;if("function"==typeof Proxy)return!0;try{return Boolean.prototype.valueOf.call(Reflect.construct(Boolean,[],(function(){}))),!0}catch(t){return!1}}function f(t,n,e){return(f=s()?Reflect.construct:function(t,n,e){var r=[null];r.push.apply(r,n);var i=new(Function.bind.apply(t,r));return e&&l(i,e.prototype),i}).apply(null,arguments)}function c(t,n){if(n&&("object"==typeof n||"function"==typeof n))return n;if(void 0!==n)throw new TypeError("Derived constructors may only return object or undefined");return function(t){if(void 0===t)throw new ReferenceError("this hasn't been initialised - super() hasn't been called");return t}(t)}function h(t,n,e){return(h="undefined"!=typeof Reflect&&Reflect.get?Reflect.get:function(t,n,e){var r=function(t,n){for(;!Object.prototype.hasOwnProperty.call(t,n)&&null!==(t=a(t)););return t}(t,n);if(r){var i=Object.getOwnPropertyDescriptor(r,n);return i.get?i.get.call(e):i.value}})(t,n,e||t)}function v(t){return function(t){if(Array.isArray(t))return y(t)}(t)||function(t){if("undefined"!=typeof Symbol&&null!=t[Symbol.iterator]||null!=t["@@iterator"])return Array.from(t)}(t)||function(t,n){if(!t)return;if("string"==typeof t)return y(t,n);var e=Object.prototype.toString.call(t).slice(8,-1);"Object"===e&&t.constructor&&(e=t.constructor.name);if("Map"===e||"Set"===e)return Array.from(t);if("Arguments"===e||/^(?:Ui|I)nt(?:8|16|32)(?:Clamped)?Array$/.test(e))return y(t,n)}(t)||function(){throw new TypeError("Invalid attempt to spread non-iterable instance.\nIn order to be iterable, non-array objects must have a [Symbol.iterator]() method.")}()}function y(t,n){(null==n||n>t.length)&&(n=t.length);for(var e=0,r=new Array(n);e<n;e++)r[e]=t[e];return r}Number.isInteger||(Number.isInteger=function(t){return"number"==typeof t&&isFinite(t)&&Math.floor(t)===t}),Number.EPSILON||(Number.EPSILON=2220446049250313e-31);var g=p(Math.pow(10,-6));function p(t){var n=arguments.length>1&&void 0!==arguments[1]?arguments[1]:6;if(Number.isInteger(t))return t;var e=Math.pow(10,n);return Math.round((+t+Number.EPSILON)*e)/e}function d(t,n){var e=arguments.length>2&&void 0!==arguments[2]?arguments[2]:g;return Math.abs(t-n)<e}var m=Math.PI/180;function b(t){return t}function w(t,n,e){var r=1-e;return 3*e*r*(t*r+n*e)+e*e*e}function A(){var t=arguments.length>0&&void 0!==arguments[0]?arguments[0]:0,n=arguments.length>1&&void 0!==arguments[1]?arguments[1]:0,e=arguments.length>2&&void 0!==arguments[2]?arguments[2]:1,r=arguments.length>3&&void 0!==arguments[3]?arguments[3]:1;return t<0||t>1||e<0||e>1?null:d(t,n)&&d(e,r)?b:function(i){if(i<=0)return t>0?i*n/t:0===n&&e>0?i*r/e:0;if(i>=1)return e<1?1+(i-1)*(r-1)/(e-1):1===e&&t<1?1+(i-1)*(n-1)/(t-1):1;for(var u,o=0,a=1;o<a;){var l=w(t,e,u=(o+a)/2);if(d(i,l))break;l<i?o=u:a=u}return w(n,r,u)}}function _(){return 1}function x(t){return 1===t?1:0}function k(){var t=arguments.length>0&&void 0!==arguments[0]?arguments[0]:1,n=arguments.length>1&&void 0!==arguments[1]?arguments[1]:0;if(1===t){if(0===n)return x;if(1===n)return _}var e=1/t;return function(t){return t>=1?1:(t+=n*e)-t%e}}var S=Math.sin,O=Math.cos,j=Math.acos,E=Math.asin,M=Math.tan,P=Math.atan2,I=Math.PI/180,R=180/Math.PI,F=Math.sqrt,N=function(){function t(){var n=arguments.length>0&&void 0!==arguments[0]?arguments[0]:1,e=arguments.length>1&&void 0!==arguments[1]?arguments[1]:0,i=arguments.length>2&&void 0!==arguments[2]?arguments[2]:0,u=arguments.length>3&&void 0!==arguments[3]?arguments[3]:1,o=arguments.length>4&&void 0!==arguments[4]?arguments[4]:0,a=arguments.length>5&&void 0!==arguments[5]?arguments[5]:0;r(this,t),this.m=[n,e,i,u,o,a],this.i=null,this.w=null,this.s=null}return u(t,[{key:"determinant",get:function(){var t=this.m;return t[0]*t[3]-t[1]*t[2]}},{key:"isIdentity",get:function(){if(null===this.i){var t=this.m;this.i=1===t[0]&&0===t[1]&&0===t[2]&&1===t[3]&&0===t[4]&&0===t[5]}return this.i}},{key:"point",value:function(t,n){var e=this.m;return{x:e[0]*t+e[2]*n+e[4],y:e[1]*t+e[3]*n+e[5]}}},{key:"translateSelf",value:function(){var t=arguments.length>0&&void 0!==arguments[0]?arguments[0]:0,n=arguments.length>1&&void 0!==arguments[1]?arguments[1]:0;if(!t&&!n)return this;var e=this.m;return e[4]+=e[0]*t+e[2]*n,e[5]+=e[1]*t+e[3]*n,this.w=this.s=this.i=null,this}},{key:"rotateSelf",value:function(){var t=arguments.length>0&&void 0!==arguments[0]?arguments[0]:0;if(t%=360){var n=S(t*=I),e=O(t),r=this.m,i=r[0],u=r[1];r[0]=i*e+r[2]*n,r[1]=u*e+r[3]*n,r[2]=r[2]*e-i*n,r[3]=r[3]*e-u*n,this.w=this.s=this.i=null}return this}},{key:"scaleSelf",value:function(){var t=arguments.length>0&&void 0!==arguments[0]?arguments[0]:1,n=arguments.length>1&&void 0!==arguments[1]?arguments[1]:1;if(1!==t||1!==n){var e=this.m;e[0]*=t,e[1]*=t,e[2]*=n,e[3]*=n,this.w=this.s=this.i=null}return this}},{key:"skewSelf",value:function(t,n){if(n%=360,(t%=360)||n){var e=this.m,r=e[0],i=e[1],u=e[2],o=e[3];t&&(t=M(t*I),e[2]+=r*t,e[3]+=i*t),n&&(n=M(n*I),e[0]+=u*n,e[1]+=o*n),this.w=this.s=this.i=null}return this}},{key:"resetSelf",value:function(){var t=arguments.length>0&&void 0!==arguments[0]?arguments[0]:1,n=arguments.length>1&&void 0!==arguments[1]?arguments[1]:0,e=arguments.length>2&&void 0!==arguments[2]?arguments[2]:0,r=arguments.length>3&&void 0!==arguments[3]?arguments[3]:1,i=arguments.length>4&&void 0!==arguments[4]?arguments[4]:0,u=arguments.length>5&&void 0!==arguments[5]?arguments[5]:0,o=this.m;return o[0]=t,o[1]=n,o[2]=e,o[3]=r,o[4]=i,o[5]=u,this.w=this.s=this.i=null,this}},{key:"recomposeSelf",value:function(){var t=arguments.length>0&&void 0!==arguments[0]?arguments[0]:null,n=arguments.length>1&&void 0!==arguments[1]?arguments[1]:null,e=arguments.length>2&&void 0!==arguments[2]?arguments[2]:null,r=arguments.length>3&&void 0!==arguments[3]?arguments[3]:null,i=arguments.length>4&&void 0!==arguments[4]?arguments[4]:null;return this.isIdentity||this.resetSelf(),t&&(t.x||t.y)&&this.translateSelf(t.x,t.y),n&&this.rotateSelf(n),e&&(e.x&&this.skewSelf(e.x,0),e.y&&this.skewSelf(0,e.y)),!r||1===r.x&&1===r.y||this.scaleSelf(r.x,r.y),i&&(i.x||i.y)&&this.translateSelf(i.x,i.y),this}},{key:"decompose",value:function(){var t=arguments.length>0&&void 0!==arguments[0]?arguments[0]:0,n=arguments.length>1&&void 0!==arguments[1]?arguments[1]:0,e=this.m,r=e[0]*e[0]+e[1]*e[1],i=[[e[0],e[1]],[e[2],e[3]]],u=F(r);if(0===u)return{origin:{x:p(e[4]),y:p(e[5])},translate:{x:p(t),y:p(n)},scale:{x:0,y:0},skew:{x:0,y:0},rotate:0};i[0][0]/=u,i[0][1]/=u;var o=e[0]*e[3]-e[1]*e[2]<0;o&&(u=-u);var a=i[0][0]*i[1][0]+i[0][1]*i[1][1];i[1][0]-=i[0][0]*a,i[1][1]-=i[0][1]*a;var l=F(i[1][0]*i[1][0]+i[1][1]*i[1][1]);if(0===l)return{origin:{x:p(e[4]),y:p(e[5])},translate:{x:p(t),y:p(n)},scale:{x:p(u),y:0},skew:{x:0,y:0},rotate:0};i[1][0]/=l,i[1][1]/=l,a/=l;var s=0;return i[1][1]<0?(s=j(i[1][1])*R,i[0][1]<0&&(s=360-s)):s=E(i[0][1])*R,o&&(s=-s),a=P(a,F(i[0][0]*i[0][0]+i[0][1]*i[0][1]))*R,o&&(a=-a),{origin:{x:p(e[4]),y:p(e[5])},translate:{x:p(t),y:p(n)},scale:{x:p(u),y:p(l)},skew:{x:p(a),y:0},rotate:p(s)}}},{key:"clone",value:function(){var t=this.m;return new this.constructor(t[0],t[1],t[2],t[3],t[4],t[5])}},{key:"toString",value:function(){var t=arguments.length>0&&void 0!==arguments[0]?arguments[0]:" ";if(null===this.s){var n=this.m.map((function(t){return p(t)}));1===n[0]&&0===n[1]&&0===n[2]&&1===n[3]?this.s="translate("+n[4]+t+n[5]+")":this.s="matrix("+n.join(t)+")"}return this.s}}],[{key:"create",value:function(t){return t?Array.isArray(t)?f(this,v(t)):t instanceof this?t.clone():(new this).recomposeSelf(t.origin,t.rotate,t.skew,t.scale,t.translate):new this}}]),t}();function T(t,n,e){return t>=.5?e:n}function q(t,n,e){return 0===t||n===e?n:t*(e-n)+n}function B(t,n,e){var r=q(t,n,e);return r<=0?0:r}function D(t,n,e){var r=q(t,n,e);return r<=0?0:r>=1?1:r}function L(t,n,e){return 0===t?n:1===t?e:{x:q(t,n.x,e.x),y:q(t,n.y,e.y)}}function C(t,n,e){var r=function(t,n,e){return Math.round(q(t,n,e))}(t,n,e);return r<=0?0:r>=255?255:r}function V(t,n,e){return 0===t?n:1===t?e:{r:C(t,n.r,e.r),g:C(t,n.g,e.g),b:C(t,n.b,e.b),a:q(t,null==n.a?1:n.a,null==e.a?1:e.a)}}function G(t,n){for(var e=[],r=0;r<t;r++)e.push(n);return e}function z(t,n){if(--n<=0)return t;var e=(t=Object.assign([],t)).length;do{for(var r=0;r<e;r++)t.push(t[r])}while(--n>0);return t}var Y,$=function(){function t(n){r(this,t),this.list=n,this.length=n.length}return u(t,[{key:"setAttribute",value:function(t,n){for(var e=this.list,r=0;r<this.length;r++)e[r].setAttribute(t,n)}},{key:"removeAttribute",value:function(t){for(var n=this.list,e=0;e<this.length;e++)n[e].removeAttribute(t)}},{key:"style",value:function(t,n){for(var e=this.list,r=0;r<this.length;r++)e[r].style[t]=n}}]),t}(),U=/-./g,Q=function(t,n){return n.toUpperCase()};function H(t){return"function"==typeof t?t:T}function J(t){return t?"function"==typeof t?t:Array.isArray(t)?function(t){var n=arguments.length>1&&void 0!==arguments[1]?arguments[1]:b;if(!Array.isArray(t))return n;switch(t.length){case 1:return k(t[0])||n;case 2:return k(t[0],t[1])||n;case 4:return A(t[0],t[1],t[2],t[3])||n}return n}(t,null):function(t,n){var e=arguments.length>2&&void 0!==arguments[2]?arguments[2]:b;switch(t){case"linear":return b;case"steps":return k(n.steps||1,n.jump||0)||e;case"bezier":case"cubic-bezier":return A(n.x1||0,n.y1||0,n.x2||0,n.y2||0)||e}return e}(t.type,t.value,null):null}function Z(t,n,e){var r=arguments.length>3&&void 0!==arguments[3]&&arguments[3],i=n.length-1;if(t<=n[0].t)return r?[0,0,n[0].v]:n[0].v;if(t>=n[i].t)return r?[i,1,n[i].v]:n[i].v;var u,o=n[0],a=null;for(u=1;u<=i;u++){if(!(t>n[u].t)){a=n[u];break}o=n[u]}return null==a?r?[i,1,n[i].v]:n[i].v:o.t===a.t?r?[u,1,a.v]:a.v:(t=(t-o.t)/(a.t-o.t),o.e&&(t=o.e(t)),r?[u,t,e(t,o.v,a.v)]:e(t,o.v,a.v))}function K(t,n){var e=arguments.length>2&&void 0!==arguments[2]?arguments[2]:null;return t&&t.length?"function"!=typeof n?null:("function"!=typeof e&&(e=null),function(r){var i=Z(r,t,n);return null!=i&&e&&(i=e(i)),i}):null}function W(t,n){return t.t-n.t}function X(t,n,r,i,u){var o,a="@"===r[0],l="#"===r[0],s=Y[r],f=T;switch(a?(o=r.substr(1),r=o.replace(U,Q)):l&&(r=r.substr(1)),e(s)){case"function":if(f=s(i,u,Z,J,r,a,n,t),l)return f;break;case"string":f=K(i,H(s));break;case"object":if((f=K(i,H(s.i),s.f))&&"function"==typeof s.u)return s.u(n,f,r,a,t)}return f?function(t,n,e){if(arguments.length>3&&void 0!==arguments[3]&&arguments[3])return t instanceof $?function(r){return t.style(n,e(r))}:function(r){return t.style[n]=e(r)};if(Array.isArray(n)){var r=n.length;return function(i){var u=e(i);if(null==u)for(var o=0;o<r;o++)t[o].removeAttribute(n);else for(var a=0;a<r;a++)t[a].setAttribute(n,u)}}return function(r){var i=e(r);null==i?t.removeAttribute(n):t.setAttribute(n,i)}}(n,r,f,a):null}function tt(t,n,r,i){if(!i||"object"!==e(i))return null;var u=null,o=null;return Array.isArray(i)?o=function(t){if(!t||!t.length)return null;for(var n=0;n<t.length;n++)t[n].e&&(t[n].e=J(t[n].e));return t.sort(W)}(i):(o=i.keys,u=i.data||null),o?X(t,n,r,o,u):null}function nt(t,n,e){if(!e)return null;var r=[];for(var i in e)if(e.hasOwnProperty(i)){var u=tt(t,n,i,e[i]);u&&r.push(u)}return r.length?r:null}function et(t,n){if(!n.settings.duration||n.settings.duration<0)return null;var e,r,i,u,o,a=function(t,n){if(!n)return null;var e=[];if(Array.isArray(n))for(var r=n.length,i=0;i<r;i++){var u=n[i];if(2===u.length){var o=null;if("string"==typeof u[0])o=t.getElementById(u[0]);else if(Array.isArray(u[0])){o=[];for(var a=0;a<u[0].length;a++)if("string"==typeof u[0][a]){var l=t.getElementById(u[0][a]);l&&o.push(l)}o=o.length?1===o.length?o[0]:new $(o):null}if(o){var s=nt(t,o,u[1]);s&&(e=e.concat(s))}}}else for(var f in n)if(n.hasOwnProperty(f)){var c=t.getElementById(f);if(c){var h=nt(t,c,n[f]);h&&(e=e.concat(h))}}return e.length?e:null}(t,n.elements);return a?(e=a,r=n.settings,i=r.duration,u=e.length,o=null,function(t,n){var a=r.iterations||1/0,l=(r.alternate&&a%2==0)^r.direction>0?i:0,s=t%i,f=1+(t-s)/i;n*=r.direction,r.alternate&&f%2==0&&(n=-n);var c=!1;if(f>a)s=l,c=!0,-1===r.fill&&(s=r.direction>0?0:i);else if(n<0&&(s=i-s),s===o)return!1;o=s;for(var h=0;h<u;h++)e[h](s);return c}):null}function rt(t,n){if(Y=n,!t||!t.root||!Array.isArray(t.animations))return null;var e=function(t){for(var n=document.getElementsByTagName("svg"),e=0;e<n.length;e++)if(n[e].id===t.root&&!n[e].svgatorAnimation)return n[e].svgatorAnimation=!0,n[e];return null}(t);if(!e)return null;var r=t.animations.map((function(t){return et(e,t)})).filter((function(t){return!!t}));return r.length?{svg:e,animations:r,animationSettings:t.animationSettings,options:t.options||void 0}:null}function it(t){return+("0x"+(t.replace(/[^0-9a-fA-F]+/g,"")||27))}function ut(t,n,e){return!t||!e||n>t.length?t:t.substring(0,n)+ut(t.substring(n+1),e,e)}function ot(t){var n=arguments.length>1&&void 0!==arguments[1]?arguments[1]:27;return!t||t%n?t%n:ot(t/n,n)}function at(t,n,e){if(t&&t.length){var r=it(e),i=it(n),u=ot(r)+5,o=ut(t,ot(r,5),u);return o=o.replace(/\x7c$/g,"==").replace(/\x2f$/g,"="),o=function(t,n,e){var r=+("0x"+t.substring(0,4));t=t.substring(4);for(var i=n%r+e%27,u=[],o=0;o<t.length;o+=2)if("|"!==t[o]){var a=+("0x"+t[o]+t[o+1])-i;u.push(a)}else{var l=+("0x"+t.substring(o+1,o+1+4))-i;o+=3,u.push(l)}return String.fromCharCode.apply(String,u)}(o=(o=atob(o)).replace(/[\x41-\x5A]/g,""),i,r),o=JSON.parse(o)}}var lt=[{key:"alternate",def:!1},{key:"fill",def:1},{key:"iterations",def:0},{key:"direction",def:1},{key:"speed",def:1},{key:"fps",def:100}],st=function(){function t(n,e){var i=this,u=arguments.length>2&&void 0!==arguments[2]?arguments[2]:null;r(this,t),this._id=0,this._running=!1,this._rollingBack=!1,this._animations=n,this._settings=e,(!u||u<"2022-05-02")&&delete this._settings.speed,lt.forEach((function(t){i._settings[t.key]=i._settings[t.key]||t.def})),this.duration=e.duration,this.offset=e.offset||0,this.rollbackStartOffset=0}return u(t,[{key:"alternate",get:function(){return this._settings.alternate}},{key:"fill",get:function(){return this._settings.fill}},{key:"iterations",get:function(){return this._settings.iterations}},{key:"direction",get:function(){return this._settings.direction}},{key:"speed",get:function(){return this._settings.speed}},{key:"fps",get:function(){return this._settings.fps}},{key:"maxFiniteDuration",get:function(){return this.iterations>0?this.iterations*this.duration:this.duration}},{key:"_apply",value:function(t){for(var n=arguments.length>1&&void 0!==arguments[1]?arguments[1]:{},e=this._animations,r=e.length,i=0,u=0;u<r;u++)n[u]?i++:(n[u]=e[u](t,1),n[u]&&i++);return i}},{key:"_rollback",value:function(t){var n=this,e=1/0,r=null;this.rollbackStartOffset=t,this._rollingBack=!0,this._running=!0;this._id=window.requestAnimationFrame((function i(u){if(n._rollingBack){null==r&&(r=u);var o=Math.round(t-(u-r)*n.speed);if(o>n.duration&&e!==1/0){var a=!!n.alternate&&o/n.duration%2>1,l=o%n.duration;o=(l+=a?n.duration:0)||n.duration}var s=(n.fps?1e3/n.fps:0)*n.speed,f=Math.max(0,o);f<=e-s&&(n.offset=f,e=f,n._apply(f));var c=n.iterations>0&&-1===n.fill&&o>=n.maxFiniteDuration;(o<=0||n.offset<o||c)&&n.stop(),n._id=window.requestAnimationFrame(i)}}))}},{key:"_start",value:function(){var t=this,n=arguments.length>0&&void 0!==arguments[0]?arguments[0]:0,e=-1/0,r=null,i={};this._running=!0;var u=function u(o){null==r&&(r=o);var a=Math.round((o-r)*t.speed+n),l=(t.fps?1e3/t.fps:0)*t.speed;if(a>=e+l&&!t._rollingBack&&(t.offset=a,e=a,t._apply(a,i)===t._animations.length))return void t.pause(!0);t._id=window.requestAnimationFrame(u)};this._id=window.requestAnimationFrame(u)}},{key:"_pause",value:function(){this._id&&window.cancelAnimationFrame(this._id),this._running=!1}},{key:"play",value:function(){if(!this._running)return this._rollingBack?this._rollback(this.offset):this._start(this.offset)}},{key:"stop",value:function(){this._pause(),this.offset=0,this.rollbackStartOffset=0,this._rollingBack=!1,this._apply(0)}},{key:"reachedToEnd",value:function(){return this.iterations>0&&this.offset>=this.iterations*this.duration}},{key:"restart",value:function(){var t=arguments.length>0&&void 0!==arguments[0]&&arguments[0];this.stop(t),this.play(t)}},{key:"pause",value:function(){this._pause()}},{key:"reverse",value:function(){this.direction=-this.direction}}],[{key:"build",value:function(t,n){delete t.animationSettings,t.options=at(t.options,t.root,"5c7f360c"),t.animations.map((function(n){n.settings=at(n.s,t.root,"5c7f360c"),delete n.s,t.animationSettings||(t.animationSettings=n.settings)}));var e=t.version;if(!(t=rt(t,n)))return null;var r=t.options||{},i=new this(t.animations,t.animationSettings,e);return{el:t.svg,options:r,player:i}}},{key:"push",value:function(t){return this.build(t)}},{key:"init",value:function(){var t=this,n=window.__SVGATOR_PLAYER__&&window.__SVGATOR_PLAYER__["5c7f360c"];Array.isArray(n)&&n.splice(0).forEach((function(n){return t.build(n)}))}}]),t}();function ft(t){return p(t)+""}function ct(t){var n=arguments.length>1&&void 0!==arguments[1]?arguments[1]:" ";return t&&t.length?t.map(ft).join(n):""}function ht(t){if(!t)return"transparent";if(null==t.a||t.a>=1){var n=function(t){return 1===(t=parseInt(t).toString(16)).length?"0"+t:t},e=function(t){return t.charAt(0)===t.charAt(1)},r=n(t.r),i=n(t.g),u=n(t.b);return e(r)&&e(i)&&e(u)&&(r=r.charAt(0),i=i.charAt(0),u=u.charAt(0)),"#"+r+i+u}return"rgba("+t.r+","+t.g+","+t.b+","+t.a+")"}function vt(t){return t?"url(#"+t+")":"none"}!function(){for(var t=0,n=["ms","moz","webkit","o"],e=0;e<n.length&&!window.requestAnimationFrame;++e)window.requestAnimationFrame=window[n[e]+"RequestAnimationFrame"],window.cancelAnimationFrame=window[n[e]+"CancelAnimationFrame"]||window[n[e]+"CancelRequestAnimationFrame"];window.requestAnimationFrame||(window.requestAnimationFrame=function(n){var e=Date.now(),r=Math.max(0,16-(e-t)),i=window.setTimeout((function(){n(e+r)}),r);return t=e+r,i},window.cancelAnimationFrame=window.clearTimeout)}();var yt={f:null,i:function(t,n,e){return 0===t?n:1===t?e:{x:B(t,n.x,e.x),y:B(t,n.y,e.y)}},u:function(t,n){return function(e){var r=n(e);t.setAttribute("rx",ft(r.x)),t.setAttribute("ry",ft(r.y))}}},gt={f:null,i:function(t,n,e){return 0===t?n:1===t?e:{width:B(t,n.width,e.width),height:B(t,n.height,e.height)}},u:function(t,n){return function(e){var r=n(e);t.setAttribute("width",ft(r.width)),t.setAttribute("height",ft(r.height))}}};Object.freeze({M:2,L:2,Z:0,H:1,V:1,C:6,Q:4,T:2,S:4,A:7});var pt={},dt=null;function mt(t){var n=function(){if(dt)return dt;if("object"!==("undefined"==typeof document?"undefined":e(document))||!document.createElementNS)return{};var t=document.createElementNS("http://www.w3.org/2000/svg","svg");return t&&t.style?(t.style.position="absolute",t.style.opacity="0.01",t.style.zIndex="-9999",t.style.left="-9999px",t.style.width="1px",t.style.height="1px",dt={svg:t}):{}}().svg;if(!n)return function(t){return null};var r=document.createElementNS(n.namespaceURI,"path");r.setAttributeNS(null,"d",t),r.setAttributeNS(null,"fill","none"),r.setAttributeNS(null,"stroke","none"),n.appendChild(r);var i=r.getTotalLength();return function(t){var n=r.getPointAtLength(i*t);return{x:n.x,y:n.y}}}function bt(t){return pt[t]?pt[t]:pt[t]=mt(t)}function wt(t,n,e,r){if(!t||!r)return!1;var i=["M",t.x,t.y];if(n&&e&&(i.push("C"),i.push(n.x),i.push(n.y),i.push(e.x),i.push(e.y)),n?!e:e){var u=n||e;i.push("Q"),i.push(u.x),i.push(u.y)}return n||e||i.push("L"),i.push(r.x),i.push(r.y),i.join(" ")}function At(t,n,e,r){var i=arguments.length>4&&void 0!==arguments[4]?arguments[4]:1,u=wt(t,n,e,r),o=bt(u);try{return o(i)}catch(t){return null}}function _t(t,n,e){return t+(n-t)*e}function xt(t,n,e){var r=arguments.length>3&&void 0!==arguments[3]&&arguments[3],i={x:_t(t.x,n.x,e),y:_t(t.y,n.y,e)};return r&&(i.a=kt(t,n)),i}function kt(t,n){return Math.atan2(n.y-t.y,n.x-t.x)}function St(t,n,e,r){var i=1-r;return i*i*t+2*i*r*n+r*r*e}function Ot(t,n,e,r){return 2*(1-r)*(n-t)+2*r*(e-n)}function jt(t,n,e,r){var i=arguments.length>4&&void 0!==arguments[4]&&arguments[4],u=At(t,n,null,e,r);return u||(u={x:St(t.x,n.x,e.x,r),y:St(t.y,n.y,e.y,r)}),i&&(u.a=Et(t,n,e,r)),u}function Et(t,n,e,r){return Math.atan2(Ot(t.y,n.y,e.y,r),Ot(t.x,n.x,e.x,r))}function Mt(t,n,e,r,i){var u=i*i;return i*u*(r-t+3*(n-e))+3*u*(t+e-2*n)+3*i*(n-t)+t}function Pt(t,n,e,r,i){var u=1-i;return 3*(u*u*(n-t)+2*u*i*(e-n)+i*i*(r-e))}function It(t,n,e,r,i){var u=arguments.length>5&&void 0!==arguments[5]&&arguments[5],o=At(t,n,e,r,i);return o||(o={x:Mt(t.x,n.x,e.x,r.x,i),y:Mt(t.y,n.y,e.y,r.y,i)}),u&&(o.a=Rt(t,n,e,r,i)),o}function Rt(t,n,e,r,i){return Math.atan2(Pt(t.y,n.y,e.y,r.y,i),Pt(t.x,n.x,e.x,r.x,i))}function Ft(t,n,e){var r=arguments.length>3&&void 0!==arguments[3]&&arguments[3];if(Tt(n)){if(qt(e))return jt(n,e.start,e,t,r)}else if(Tt(e)){if(Bt(n))return jt(n,n.end,e,t,r)}else{if(Bt(n))return qt(e)?It(n,n.end,e.start,e,t,r):jt(n,n.end,e,t,r);if(qt(e))return jt(n,e.start,e,t,r)}return xt(n,e,t,r)}function Nt(t,n,e){var r=Ft(t,n,e,!0);return r.a=function(t){return arguments.length>1&&void 0!==arguments[1]&&arguments[1]?t+Math.PI:t}(r.a)/m,r}function Tt(t){return!t.type||"corner"===t.type}function qt(t){return null!=t.start&&!Tt(t)}function Bt(t){return null!=t.end&&!Tt(t)}var Dt=new N;var Lt={f:ft,i:q},Ct={f:ft,i:D};function Vt(t,n,e){return t.map((function(t){return function(t,n,e){var r=t.v;if(!r||"g"!==r.t||r.s||!r.v||!r.r)return t;var i=e.getElementById(r.r),u=i&&i.querySelectorAll("stop")||[];return r.s=r.v.map((function(t,n){var e=u[n]&&u[n].getAttribute("offset");return{c:t,o:e=p(parseInt(e)/100)}})),delete r.v,t}(t,0,e)}))}var Gt={gt:"gradientTransform",c:{x:"cx",y:"cy"},rd:"r",f:{x:"x1",y:"y1"},to:{x:"x2",y:"y2"}};function zt(t,n,r,i,u,o,a,l){return Vt(t,0,l),n=function(t,n,e){for(var r,i,u,o=t.length-1,a={},l=0;l<=o;l++)(r=t[l]).e&&(r.e=n(r.e)),r.v&&"g"===(i=r.v).t&&i.r&&(u=e.getElementById(i.r))&&(a[i.r]={e:u,s:u.querySelectorAll("stop")});return a}(t,i,l),function(i){var u=r(i,t,Yt);if(!u)return"none";if("c"===u.t)return ht(u.v);if("g"===u.t){if(!n[u.r])return vt(u.r);var o=n[u.r];return function(t,n){for(var e=t.s,r=e.length;r<n.length;r++){var i=e[e.length-1].cloneNode();i.id=Qt(i.id),t.e.appendChild(i),e=t.s=t.e.querySelectorAll("stop")}for(var u=0,o=e.length,a=n.length-1;u<o;u++)e[u].setAttribute("stop-color",ht(n[Math.min(u,a)].c)),e[u].setAttribute("offset",n[Math.min(u,a)].o)}(o,u.s),Object.keys(Gt).forEach((function(t){if(void 0!==u[t])if("object"!==e(Gt[t])){var n,r="gt"===t?(n=u[t],Array.isArray(n)?"matrix("+n.join(" ")+")":""):u[t],i=Gt[t];o.e.setAttribute(i,r)}else Object.keys(Gt[t]).forEach((function(n){if(void 0!==u[t][n]){var e=u[t][n],r=Gt[t][n];o.e.setAttribute(r,e)}}))})),vt(u.r)}return"none"}}function Yt(t,e,r){if(0===t)return e;if(1===t)return r;if(e&&r){var i=e.t;if(i===r.t)switch(e.t){case"c":return{t:i,v:V(t,e.v,r.v)};case"g":if(e.r===r.r){var u={t:i,s:$t(t,e.s,r.s),r:e.r};return e.gt&&r.gt&&(u.gt=function(t,n,e){var r=n.length;if(r!==e.length)return T(t,n,e);for(var i=new Array(r),u=0;u<r;u++)i[u]=q(t,n[u],e[u]);return i}(t,e.gt,r.gt)),e.c?(u.c=L(t,e.c,r.c),u.rd=B(t,e.rd,r.rd)):e.f&&(u.f=L(t,e.f,r.f),u.to=L(t,e.to,r.to)),u}}if("c"===e.t&&"g"===r.t||"c"===r.t&&"g"===e.t){var o="c"===e.t?e:r,a="g"===e.t?n({},e):n({},r),l=a.s.map((function(t){return{c:o.v,o:t.o}}));return a.s="c"===e.t?$t(t,l,a.s):$t(t,a.s,l),a}}return T(t,e,r)}function $t(t,n,e){if(n.length===e.length)return n.map((function(n,r){return Ut(t,n,e[r])}));for(var r=Math.max(n.length,e.length),i=[],u=0;u<r;u++){var o=Ut(t,n[Math.min(u,n.length-1)],e[Math.min(u,e.length-1)]);i.push(o)}return i}function Ut(t,n,e){return{o:D(t,n.o,e.o||0),c:V(t,n.c,e.c||{})}}function Qt(t){return t.replace(/-fill-([0-9]+)$/,(function(t,n){return"-fill-"+(+n+1)}))}var Ht={fill:zt,"fill-opacity":Ct,stroke:zt,"stroke-opacity":Ct,"stroke-width":Lt,"stroke-dashoffset":{f:ft,i:q},"stroke-dasharray":{f:function(t){var n=arguments.length>1&&void 0!==arguments[1]?arguments[1]:" ";return t&&t.length>0&&(t=t.map((function(t){return p(t,4)}))),ct(t,n)},i:function(t,n,e){var r,i,u,o=n.length,a=e.length;if(o!==a)if(0===o)n=G(o=a,0);else if(0===a)a=o,e=G(o,0);else{var l=(u=(r=o)*(i=a)/function(t,n){for(var e;n;)e=n,n=t%n,t=e;return t||1}(r,i))<0?-u:u;n=z(n,Math.floor(l/o)),e=z(e,Math.floor(l/a)),o=a=l}for(var s=[],f=0;f<o;f++)s.push(p(B(t,n[f],e[f])));return s}},opacity:Ct,transform:function(t,n,r,i){if(!(t=function(t,n){if(!t||"object"!==e(t))return null;var r=!1;for(var i in t)t.hasOwnProperty(i)&&(t[i]&&t[i].length?(t[i].forEach((function(t){t.e&&(t.e=n(t.e))})),r=!0):delete t[i]);return r?t:null}(t,i)))return null;var u=function(e,i,u){var o=arguments.length>3&&void 0!==arguments[3]?arguments[3]:null;return t[e]?r(i,t[e],u):n&&n[e]?n[e]:o};return n&&n.a&&t.o?function(n){var e=r(n,t.o,Nt);return Dt.recomposeSelf(e,u("r",n,q,0)+e.a,u("k",n,L),u("s",n,L),u("t",n,L)).toString()}:function(t){return Dt.recomposeSelf(u("o",t,Ft,null),u("r",t,q,0),u("k",t,L),u("s",t,L),u("t",t,L)).toString()}},r:Lt,"#size":gt,"#radius":yt,_:function(t,n){if(Array.isArray(t))for(var e=0;e<t.length;e++)this[t[e]]=n;else this[t]=n}},Jt=function(t){!function(t,n){if("function"!=typeof n&&null!==n)throw new TypeError("Super expression must either be null or a function");t.prototype=Object.create(n&&n.prototype,{constructor:{value:t,writable:!0,configurable:!0}}),n&&l(t,n)}(o,t);var n,e,i=(n=o,e=s(),function(){var t,r=a(n);if(e){var i=a(this).constructor;t=Reflect.construct(r,arguments,i)}else t=r.apply(this,arguments);return c(this,t)});function o(){return r(this,o),i.apply(this,arguments)}return u(o,null,[{key:"build",value:function(t){var n=h(a(o),"build",this).call(this,t,Ht);if(!n)return null;n.el,n.options,function(t,n,e){t.play()}(n.player)}}]),o}(st);return Jt.init(),Jt}));
(function(s,i,o,w,d,a,b){w[o]=w[o]||{};w[o][s]=w[o][s]||[];w[o][s].push(i);})('5c7f360c',{"root":"eDY9bGrSQ8X1","version":"2022-05-04","animations":[{"elements":{"eDY9bGrSQ8X272":{"transform":{"data":{"o":{"x":63.286585,"y":62.930421,"type":"corner"},"t":{"x":-63.286585,"y":-62.930421}},"keys":{"r":[{"t":0,"v":-44.999999},{"t":1800,"v":-75},{"t":4700,"v":-150},{"t":8000,"v":-405}]}}}},"s":"MEDA1ZDk1M2M3ZThmOGQM3YkI4ZTgzODlCODgHzYzU0NTI0YTRhNGE0WNjNjWTdlODM4YzdmNG2Q4ZTgzODk4OFAzY0Nw1NDRiVTQ2M2M4MzhXlN2Y4YzdiOGVHODM4JOTg4OGRCM2M1NDRiNMDYzYzgwODM4Njg2M2CM1NDRiNDYzY083YjgN2OGU3ZjhjODg3YjhlJN2YzYzU0ODA3Yjg2ODGQ3ZjQ2UzNjOGQ4YVGE3ZjdmN2UzYzU0NGIA0NjNjODA4YThkM2M1FNDRiNGE0YTk3"}],"options":"MODAxMDg4MmY4MDgxNmTU3ZjgxMmY0NzJmNzkQ3YzZlNzEyZko4YQ|"},'__SVGATOR_PLAYER__',window,document)
]]></script>
</svg>
