<?xml version="1.0" encoding="utf-8"?>
<!-- Generator: Adobe Illustrator 26.0.0, SVG Export Plug-In . SVG Version: 6.00 Build 0)  -->
<svg version="1.1" id="圖層_1" xmlns="http://www.w3.org/2000/svg" xmlns:xlink="http://www.w3.org/1999/xlink" x="0px" y="0px"
	 viewBox="0 0 575 409" style="enable-background:new 0 0 575 409;" xml:space="preserve">
<style type="text/css">
	.st0{fill-rule:evenodd;clip-rule:evenodd;fill:#F7DEDC;}
	.st1{opacity:0.1;}
	.st2{fill-rule:evenodd;clip-rule:evenodd;fill:#3E3E3E;}
	.st3{filter:url(#filter-2);}
	.st4{fill-rule:evenodd;clip-rule:evenodd;}
	.st5{fill-rule:evenodd;clip-rule:evenodd;fill:#E9E9E9;}
	.st6{fill-rule:evenodd;clip-rule:evenodd;fill:#FFFFFF;}
	.st7{fill-rule:evenodd;clip-rule:evenodd;fill:#F2F2F2;}
	.st8{fill-rule:evenodd;clip-rule:evenodd;fill:#D8D8D8;}
	.st9{fill-rule:evenodd;clip-rule:evenodd;fill:#43B78A;}
	.st10{fill:none;stroke:#F4F4F4;}
	.st11{fill:none;stroke:#EDEDED;}
	.st12{fill:none;stroke:#F2F2F2;}
	.st13{fill-rule:evenodd;clip-rule:evenodd;fill:#F2F2F2;stroke:#F2F2F2;}
	.st14{fill-rule:evenodd;clip-rule:evenodd;fill:#F26659;}
	.st15{opacity:0.3173;fill-rule:evenodd;clip-rule:evenodd;fill:#F29F98;enable-background:new    ;}
	.st16{opacity:0.6198;fill-rule:evenodd;clip-rule:evenodd;fill:#F29F98;enable-background:new    ;}
	.st17{opacity:0.6198;fill-rule:evenodd;clip-rule:evenodd;fill:#F98074;enable-background:new    ;}
	.st18{fill:none;stroke:#F26659;stroke-width:30;}
	.st19{fill:none;stroke:#F98074;stroke-width:30;}
	.st20{fill:none;stroke:#F29F98;stroke-width:30;}
	.st21{fill:none;stroke:#131313;stroke-width:4;}
	.st22{fill:none;stroke:#101010;stroke-width:5;}
	.st23{fill-rule:evenodd;clip-rule:evenodd;fill:url(#SKIN_00000176002312903014740330000014791227535994640000_);}
	.st24{fill-rule:evenodd;clip-rule:evenodd;fill:#573E20;}
	.st25{fill-rule:evenodd;clip-rule:evenodd;fill:#CFCFCF;}
	.st26{fill-rule:evenodd;clip-rule:evenodd;fill:#191847;}
	.st27{fill-rule:evenodd;clip-rule:evenodd;fill:url(#SKIN_00000076588918533632427380000011831586441953972886_);}
	.st28{fill-rule:evenodd;clip-rule:evenodd;fill:#C21B15;}
	.st29{fill-rule:evenodd;clip-rule:evenodd;fill:#BCDED1;}
	.st30{fill-rule:evenodd;clip-rule:evenodd;fill:#FF4133;}
</style>
<filter  filterUnits="objectBoundingBox" height="152.4%" id="filter-2" width="126.1%" x="-13.0%" y="-25.3%">
	<feOffset  dx="0" dy="2" in="SourceAlpha" result="shadowOffsetOuter1"></feOffset>
	<feGaussianBlur  in="shadowOffsetOuter1" result="shadowBlurOuter1" stdDeviation="20"></feGaussianBlur>
	
		<feColorMatrix  in="shadowBlurOuter1" type="matrix" values="0 0 0 0 0.729411765   0 0 0 0 0.729411765   0 0 0 0 0.729411765  0 0 0 0.32 0">
		</feColorMatrix>
</filter>
<g id="illustration_x2F_home_x2F_01">
	<g id="home-01" transform="translate(0.000000, 26.204047)">
		<ellipse id="Oval-Copy-15" class="st0" cx="153.1" cy="305.3" rx="80" ry="6.5"/>
		<g id="Decorate-_x2F_-spot-Copy-3" transform="translate(0.000000, 165.795953)" class="st1">
			<g id="Group-6">
				<path id="Fill-49" class="st2" d="M0.9,1.9L0.9,1.9C0.4,1.9,0,1.4,0,0.9S0.4,0,0.9,0s0.9,0.4,0.9,0.9S1.4,1.9,0.9,1.9"/>
				<path id="Fill-51" class="st2" d="M6.5,1.9L6.5,1.9C6,1.9,5.6,1.4,5.6,0.9S6,0,6.5,0s0.9,0.4,0.9,0.9S7,1.9,6.5,1.9"/>
				<path id="Fill-53" class="st2" d="M12.1,1.9L12.1,1.9c-0.5,0-0.9-0.4-0.9-0.9S11.6,0,12.1,0S13,0.4,13,0.9S12.6,1.9,12.1,1.9"/>
				<path id="Fill-55" class="st2" d="M17.7,1.9L17.7,1.9c-0.5,0-0.9-0.4-0.9-0.9S17.2,0,17.7,0c0.5,0,0.9,0.4,0.9,0.9
					S18.2,1.9,17.7,1.9"/>
				<path id="Fill-57" class="st2" d="M23.3,1.9L23.3,1.9c-0.5,0-0.9-0.4-0.9-0.9S22.7,0,23.3,0c0.5,0,0.9,0.4,0.9,0.9
					S23.8,1.9,23.3,1.9"/>
				<path id="Fill-59" class="st2" d="M28.8,1.9L28.8,1.9c-0.5,0-0.9-0.4-0.9-0.9S28.3,0,28.8,0c0.5,0,0.9,0.4,0.9,0.9
					S29.4,1.9,28.8,1.9"/>
				<path id="Fill-61" class="st2" d="M0.9,7.4L0.9,7.4C0.4,7.4,0,7,0,6.5s0.4-0.9,0.9-0.9S1.9,6,1.9,6.5S1.4,7.4,0.9,7.4"/>
				<path id="Fill-63" class="st2" d="M6.5,7.4L6.5,7.4C6,7.4,5.6,7,5.6,6.5S6,5.6,6.5,5.6S7.4,6,7.4,6.5S7,7.4,6.5,7.4"/>
				<path id="Fill-65" class="st2" d="M12.1,7.4L12.1,7.4c-0.5,0-0.9-0.4-0.9-0.9s0.4-0.9,0.9-0.9S13,6,13,6.5S12.6,7.4,12.1,7.4"/>
				<path id="Fill-67" class="st2" d="M17.7,7.4L17.7,7.4c-0.5,0-0.9-0.4-0.9-0.9s0.4-0.9,0.9-0.9c0.5,0,0.9,0.4,0.9,0.9
					S18.2,7.4,17.7,7.4"/>
				<path id="Fill-69" class="st2" d="M23.3,7.4L23.3,7.4c-0.5,0-0.9-0.4-0.9-0.9s0.4-0.9,0.9-0.9c0.5,0,0.9,0.4,0.9,0.9
					S23.8,7.4,23.3,7.4"/>
				<path id="Fill-71" class="st2" d="M28.8,7.4L28.8,7.4c-0.5,0-0.9-0.4-0.9-0.9s0.4-0.9,0.9-0.9c0.5,0,0.9,0.4,0.9,0.9
					S29.4,7.4,28.8,7.4"/>
				<path id="Fill-73" class="st2" d="M0.9,13L0.9,13C0.4,13,0,12.6,0,12.1s0.4-0.9,0.9-0.9s0.9,0.4,0.9,0.9S1.4,13,0.9,13"/>
				<path id="Fill-75" class="st2" d="M6.5,13L6.5,13c-0.5,0-0.9-0.4-0.9-0.9s0.4-0.9,0.9-0.9s0.9,0.4,0.9,0.9S7,13,6.5,13"/>
				<path id="Fill-77" class="st2" d="M12.1,13L12.1,13c-0.5,0-0.9-0.4-0.9-0.9s0.4-0.9,0.9-0.9s0.9,0.4,0.9,0.9S12.6,13,12.1,13"/>
				<path id="Fill-79" class="st2" d="M17.7,13L17.7,13c-0.5,0-0.9-0.4-0.9-0.9s0.4-0.9,0.9-0.9c0.5,0,0.9,0.4,0.9,0.9
					S18.2,13,17.7,13"/>
				<path id="Fill-81" class="st2" d="M23.3,13L23.3,13c-0.5,0-0.9-0.4-0.9-0.9s0.4-0.9,0.9-0.9c0.5,0,0.9,0.4,0.9,0.9
					S23.8,13,23.3,13"/>
				<path id="Fill-83" class="st2" d="M28.8,13L28.8,13c-0.5,0-0.9-0.4-0.9-0.9s0.4-0.9,0.9-0.9c0.5,0,0.9,0.4,0.9,0.9
					S29.4,13,28.8,13"/>
				<path id="Fill-133" class="st2" d="M34.4,1.9L34.4,1.9c-0.5,0-0.9-0.4-0.9-0.9S33.9,0,34.4,0s0.9,0.4,0.9,0.9S34.9,1.9,34.4,1.9
					"/>
				<path id="Fill-133-Copy" class="st2" d="M67.9,1.9L67.9,1.9c-0.5,0-0.9-0.4-0.9-0.9S67.4,0,67.9,0c0.5,0,0.9,0.4,0.9,0.9
					S68.4,1.9,67.9,1.9"/>
				<path id="Fill-135" class="st2" d="M40,1.9L40,1.9c-0.5,0-0.9-0.4-0.9-0.9S39.5,0,40,0s0.9,0.4,0.9,0.9S40.5,1.9,40,1.9"/>
				<path id="Fill-135-Copy" class="st2" d="M73.5,1.9L73.5,1.9c-0.5,0-0.9-0.4-0.9-0.9S73,0,73.5,0c0.5,0,0.9,0.4,0.9,0.9
					S74,1.9,73.5,1.9"/>
				<path id="Fill-137" class="st2" d="M45.6,1.9L45.6,1.9c-0.5,0-0.9-0.4-0.9-0.9S45.1,0,45.6,0s0.9,0.4,0.9,0.9S46.1,1.9,45.6,1.9
					"/>
				<path id="Fill-137-Copy" class="st2" d="M79.1,1.9L79.1,1.9c-0.5,0-0.9-0.4-0.9-0.9S78.6,0,79.1,0C79.6,0,80,0.4,80,0.9
					S79.6,1.9,79.1,1.9"/>
				<path id="Fill-139" class="st2" d="M51.2,1.9L51.2,1.9c-0.5,0-0.9-0.4-0.9-0.9S50.6,0,51.2,0c0.5,0,0.9,0.4,0.9,0.9
					S51.7,1.9,51.2,1.9"/>
				<path id="Fill-141" class="st2" d="M56.7,1.9L56.7,1.9c-0.5,0-0.9-0.4-0.9-0.9S56.2,0,56.7,0s0.9,0.4,0.9,0.9S57.3,1.9,56.7,1.9
					"/>
				<path id="Fill-143" class="st2" d="M62.3,1.9L62.3,1.9c-0.5,0-0.9-0.4-0.9-0.9S61.8,0,62.3,0s0.9,0.4,0.9,0.9S62.8,1.9,62.3,1.9
					"/>
				<path id="Fill-145" class="st2" d="M34.4,7.4L34.4,7.4c-0.5,0-0.9-0.4-0.9-0.9s0.4-0.9,0.9-0.9s0.9,0.4,0.9,0.9
					S34.9,7.4,34.4,7.4"/>
				<path id="Fill-145-Copy" class="st2" d="M67.9,7.4L67.9,7.4C67.4,7.4,67,7,67,6.5s0.4-0.9,0.9-0.9c0.5,0,0.9,0.4,0.9,0.9
					S68.4,7.4,67.9,7.4"/>
				<path id="Fill-147" class="st2" d="M40,7.4L40,7.4c-0.5,0-0.9-0.4-0.9-0.9s0.4-0.9,0.9-0.9s0.9,0.4,0.9,0.9S40.5,7.4,40,7.4"/>
				<path id="Fill-147-Copy" class="st2" d="M73.5,7.4L73.5,7.4c-0.5,0-0.9-0.4-0.9-0.9s0.4-0.9,0.9-0.9c0.5,0,0.9,0.4,0.9,0.9
					S74,7.4,73.5,7.4"/>
				<path id="Fill-149" class="st2" d="M45.6,7.4L45.6,7.4c-0.5,0-0.9-0.4-0.9-0.9s0.4-0.9,0.9-0.9s0.9,0.4,0.9,0.9
					S46.1,7.4,45.6,7.4"/>
				<path id="Fill-149-Copy" class="st2" d="M79.1,7.4L79.1,7.4c-0.5,0-0.9-0.4-0.9-0.9s0.4-0.9,0.9-0.9C79.6,5.6,80,6,80,6.5
					S79.6,7.4,79.1,7.4"/>
				<path id="Fill-151" class="st2" d="M51.2,7.4L51.2,7.4c-0.5,0-0.9-0.4-0.9-0.9s0.4-0.9,0.9-0.9c0.5,0,0.9,0.4,0.9,0.9
					S51.7,7.4,51.2,7.4"/>
				<path id="Fill-153" class="st2" d="M56.7,7.4L56.7,7.4c-0.5,0-0.9-0.4-0.9-0.9s0.4-0.9,0.9-0.9s0.9,0.4,0.9,0.9
					S57.3,7.4,56.7,7.4"/>
				<path id="Fill-155" class="st2" d="M62.3,7.4L62.3,7.4c-0.5,0-0.9-0.4-0.9-0.9s0.4-0.9,0.9-0.9s0.9,0.4,0.9,0.9
					S62.8,7.4,62.3,7.4"/>
				<path id="Fill-157" class="st2" d="M34.4,13L34.4,13c-0.5,0-0.9-0.4-0.9-0.9s0.4-0.9,0.9-0.9s0.9,0.4,0.9,0.9S34.9,13,34.4,13"
					/>
				<path id="Fill-157-Copy" class="st2" d="M67.9,13L67.9,13c-0.5,0-0.9-0.4-0.9-0.9s0.4-0.9,0.9-0.9c0.5,0,0.9,0.4,0.9,0.9
					S68.4,13,67.9,13"/>
				<path id="Fill-159" class="st2" d="M40,13L40,13c-0.5,0-0.9-0.4-0.9-0.9s0.4-0.9,0.9-0.9s0.9,0.4,0.9,0.9S40.5,13,40,13"/>
				<path id="Fill-159-Copy" class="st2" d="M73.5,13L73.5,13c-0.5,0-0.9-0.4-0.9-0.9s0.4-0.9,0.9-0.9c0.5,0,0.9,0.4,0.9,0.9
					S74,13,73.5,13"/>
				<path id="Fill-161" class="st2" d="M45.6,13L45.6,13c-0.5,0-0.9-0.4-0.9-0.9s0.4-0.9,0.9-0.9s0.9,0.4,0.9,0.9S46.1,13,45.6,13"
					/>
				<path id="Fill-161-Copy" class="st2" d="M79.1,13L79.1,13c-0.5,0-0.9-0.4-0.9-0.9s0.4-0.9,0.9-0.9c0.5,0,0.9,0.4,0.9,0.9
					S79.6,13,79.1,13"/>
				<path id="Fill-163" class="st2" d="M51.2,13L51.2,13c-0.5,0-0.9-0.4-0.9-0.9s0.4-0.9,0.9-0.9c0.5,0,0.9,0.4,0.9,0.9
					S51.7,13,51.2,13"/>
				<path id="Fill-165" class="st2" d="M56.7,13L56.7,13c-0.5,0-0.9-0.4-0.9-0.9s0.4-0.9,0.9-0.9s0.9,0.4,0.9,0.9S57.3,13,56.7,13"
					/>
				<path id="Fill-167" class="st2" d="M62.3,13L62.3,13c-0.5,0-0.9-0.4-0.9-0.9s0.4-0.9,0.9-0.9s0.9,0.4,0.9,0.9S62.8,13,62.3,13"
					/>
				<path id="Fill-169" class="st2" d="M0.9,18.6L0.9,18.6c-0.5,0-0.9-0.4-0.9-0.9c0-0.5,0.4-0.9,0.9-0.9s0.9,0.4,0.9,0.9
					C1.9,18.2,1.4,18.6,0.9,18.6"/>
				<path id="Fill-171" class="st2" d="M6.5,18.6L6.5,18.6c-0.5,0-0.9-0.4-0.9-0.9c0-0.5,0.4-0.9,0.9-0.9s0.9,0.4,0.9,0.9
					C7.4,18.2,7,18.6,6.5,18.6"/>
				<path id="Fill-173" class="st2" d="M12.1,18.6L12.1,18.6c-0.5,0-0.9-0.4-0.9-0.9c0-0.5,0.4-0.9,0.9-0.9s0.9,0.4,0.9,0.9
					C13,18.2,12.6,18.6,12.1,18.6"/>
				<path id="Fill-175" class="st2" d="M17.7,18.6L17.7,18.6c-0.5,0-0.9-0.4-0.9-0.9c0-0.5,0.4-0.9,0.9-0.9c0.5,0,0.9,0.4,0.9,0.9
					C18.6,18.2,18.2,18.6,17.7,18.6"/>
				<path id="Fill-177" class="st2" d="M23.3,18.6L23.3,18.6c-0.5,0-0.9-0.4-0.9-0.9c0-0.5,0.4-0.9,0.9-0.9c0.5,0,0.9,0.4,0.9,0.9
					C24.2,18.2,23.8,18.6,23.3,18.6"/>
				<path id="Fill-179" class="st2" d="M28.8,18.6L28.8,18.6c-0.5,0-0.9-0.4-0.9-0.9c0-0.5,0.4-0.9,0.9-0.9c0.5,0,0.9,0.4,0.9,0.9
					C29.8,18.2,29.4,18.6,28.8,18.6"/>
				<path id="Fill-181" class="st2" d="M0.9,24.2L0.9,24.2c-0.5,0-0.9-0.4-0.9-0.9c0-0.5,0.4-0.9,0.9-0.9s0.9,0.4,0.9,0.9
					C1.9,23.8,1.4,24.2,0.9,24.2"/>
				<path id="Fill-183" class="st2" d="M6.5,24.2L6.5,24.2c-0.5,0-0.9-0.4-0.9-0.9c0-0.5,0.4-0.9,0.9-0.9s0.9,0.4,0.9,0.9
					C7.4,23.8,7,24.2,6.5,24.2"/>
				<path id="Fill-185" class="st2" d="M12.1,24.2L12.1,24.2c-0.5,0-0.9-0.4-0.9-0.9c0-0.5,0.4-0.9,0.9-0.9s0.9,0.4,0.9,0.9
					C13,23.8,12.6,24.2,12.1,24.2"/>
				<path id="Fill-187" class="st2" d="M17.7,24.2L17.7,24.2c-0.5,0-0.9-0.4-0.9-0.9c0-0.5,0.4-0.9,0.9-0.9c0.5,0,0.9,0.4,0.9,0.9
					C18.6,23.8,18.2,24.2,17.7,24.2"/>
				<path id="Fill-189" class="st2" d="M23.3,24.2L23.3,24.2c-0.5,0-0.9-0.4-0.9-0.9c0-0.5,0.4-0.9,0.9-0.9c0.5,0,0.9,0.4,0.9,0.9
					C24.2,23.8,23.8,24.2,23.3,24.2"/>
				<path id="Fill-191" class="st2" d="M28.8,24.2L28.8,24.2c-0.5,0-0.9-0.4-0.9-0.9c0-0.5,0.4-0.9,0.9-0.9c0.5,0,0.9,0.4,0.9,0.9
					C29.8,23.8,29.4,24.2,28.8,24.2"/>
				<path id="Fill-193" class="st2" d="M0.9,29.8L0.9,29.8c-0.5,0-0.9-0.4-0.9-0.9c0-0.5,0.4-0.9,0.9-0.9s0.9,0.4,0.9,0.9
					C1.9,29.4,1.4,29.8,0.9,29.8"/>
				<path id="Fill-195" class="st2" d="M6.5,29.8L6.5,29.8c-0.5,0-0.9-0.4-0.9-0.9c0-0.5,0.4-0.9,0.9-0.9s0.9,0.4,0.9,0.9
					C7.4,29.4,7,29.8,6.5,29.8"/>
				<path id="Fill-197" class="st2" d="M12.1,29.8L12.1,29.8c-0.5,0-0.9-0.4-0.9-0.9c0-0.5,0.4-0.9,0.9-0.9s0.9,0.4,0.9,0.9
					C13,29.4,12.6,29.8,12.1,29.8"/>
				<path id="Fill-199" class="st2" d="M17.7,29.8L17.7,29.8c-0.5,0-0.9-0.4-0.9-0.9c0-0.5,0.4-0.9,0.9-0.9c0.5,0,0.9,0.4,0.9,0.9
					C18.6,29.4,18.2,29.8,17.7,29.8"/>
				<path id="Fill-201" class="st2" d="M23.3,29.8L23.3,29.8c-0.5,0-0.9-0.4-0.9-0.9c0-0.5,0.4-0.9,0.9-0.9c0.5,0,0.9,0.4,0.9,0.9
					C24.2,29.4,23.8,29.8,23.3,29.8"/>
				<path id="Fill-203" class="st2" d="M28.8,29.8L28.8,29.8c-0.5,0-0.9-0.4-0.9-0.9c0-0.5,0.4-0.9,0.9-0.9c0.5,0,0.9,0.4,0.9,0.9
					C29.8,29.4,29.4,29.8,28.8,29.8"/>
				<path id="Fill-205" class="st2" d="M0.9,35.3L0.9,35.3c-0.5,0-0.9-0.4-0.9-0.9s0.4-0.9,0.9-0.9s0.9,0.4,0.9,0.9
					S1.4,35.3,0.9,35.3"/>
				<path id="Fill-207" class="st2" d="M6.5,35.3L6.5,35.3c-0.5,0-0.9-0.4-0.9-0.9s0.4-0.9,0.9-0.9s0.9,0.4,0.9,0.9S7,35.3,6.5,35.3
					"/>
				<path id="Fill-209" class="st2" d="M12.1,35.3L12.1,35.3c-0.5,0-0.9-0.4-0.9-0.9s0.4-0.9,0.9-0.9s0.9,0.4,0.9,0.9
					S12.6,35.3,12.1,35.3"/>
				<path id="Fill-211" class="st2" d="M17.7,35.3L17.7,35.3c-0.5,0-0.9-0.4-0.9-0.9s0.4-0.9,0.9-0.9c0.5,0,0.9,0.4,0.9,0.9
					S18.2,35.3,17.7,35.3"/>
				<path id="Fill-213" class="st2" d="M23.3,35.3L23.3,35.3c-0.5,0-0.9-0.4-0.9-0.9s0.4-0.9,0.9-0.9c0.5,0,0.9,0.4,0.9,0.9
					S23.8,35.3,23.3,35.3"/>
				<path id="Fill-215" class="st2" d="M28.8,35.3L28.8,35.3c-0.5,0-0.9-0.4-0.9-0.9s0.4-0.9,0.9-0.9c0.5,0,0.9,0.4,0.9,0.9
					S29.4,35.3,28.8,35.3"/>
				<path id="Fill-217" class="st2" d="M0.9,40.9L0.9,40.9C0.4,40.9,0,40.5,0,40s0.4-0.9,0.9-0.9s0.9,0.4,0.9,0.9S1.4,40.9,0.9,40.9
					"/>
				<path id="Fill-219" class="st2" d="M6.5,40.9L6.5,40.9c-0.5,0-0.9-0.4-0.9-0.9s0.4-0.9,0.9-0.9s0.9,0.4,0.9,0.9S7,40.9,6.5,40.9
					"/>
				<path id="Fill-221" class="st2" d="M12.1,40.9L12.1,40.9c-0.5,0-0.9-0.4-0.9-0.9s0.4-0.9,0.9-0.9S13,39.5,13,40
					S12.6,40.9,12.1,40.9"/>
				<path id="Fill-223" class="st2" d="M17.7,40.9L17.7,40.9c-0.5,0-0.9-0.4-0.9-0.9s0.4-0.9,0.9-0.9c0.5,0,0.9,0.4,0.9,0.9
					S18.2,40.9,17.7,40.9"/>
				<path id="Fill-225" class="st2" d="M23.3,40.9L23.3,40.9c-0.5,0-0.9-0.4-0.9-0.9s0.4-0.9,0.9-0.9c0.5,0,0.9,0.4,0.9,0.9
					S23.8,40.9,23.3,40.9"/>
				<path id="Fill-227" class="st2" d="M28.8,40.9L28.8,40.9c-0.5,0-0.9-0.4-0.9-0.9s0.4-0.9,0.9-0.9c0.5,0,0.9,0.4,0.9,0.9
					S29.4,40.9,28.8,40.9"/>
				<path id="Fill-229" class="st2" d="M0.9,46.5L0.9,46.5c-0.5,0-0.9-0.4-0.9-0.9s0.4-0.9,0.9-0.9s0.9,0.4,0.9,0.9
					S1.4,46.5,0.9,46.5"/>
				<path id="Fill-231" class="st2" d="M6.5,46.5L6.5,46.5c-0.5,0-0.9-0.4-0.9-0.9s0.4-0.9,0.9-0.9s0.9,0.4,0.9,0.9S7,46.5,6.5,46.5
					"/>
				<path id="Fill-233" class="st2" d="M12.1,46.5L12.1,46.5c-0.5,0-0.9-0.4-0.9-0.9s0.4-0.9,0.9-0.9s0.9,0.4,0.9,0.9
					S12.6,46.5,12.1,46.5"/>
				<path id="Fill-235" class="st2" d="M17.7,46.5L17.7,46.5c-0.5,0-0.9-0.4-0.9-0.9s0.4-0.9,0.9-0.9c0.5,0,0.9,0.4,0.9,0.9
					S18.2,46.5,17.7,46.5"/>
				<path id="Fill-237" class="st2" d="M23.3,46.5L23.3,46.5c-0.5,0-0.9-0.4-0.9-0.9s0.4-0.9,0.9-0.9c0.5,0,0.9,0.4,0.9,0.9
					S23.8,46.5,23.3,46.5"/>
				<path id="Fill-239" class="st2" d="M28.8,46.5L28.8,46.5c-0.5,0-0.9-0.4-0.9-0.9s0.4-0.9,0.9-0.9c0.5,0,0.9,0.4,0.9,0.9
					S29.4,46.5,28.8,46.5"/>
				<path id="Fill-241" class="st2" d="M0.9,52.1L0.9,52.1c-0.5,0-0.9-0.4-0.9-0.9c0-0.5,0.4-0.9,0.9-0.9s0.9,0.4,0.9,0.9
					C1.9,51.7,1.4,52.1,0.9,52.1"/>
				<path id="Fill-243" class="st2" d="M6.5,52.1L6.5,52.1c-0.5,0-0.9-0.4-0.9-0.9c0-0.5,0.4-0.9,0.9-0.9s0.9,0.4,0.9,0.9
					C7.4,51.7,7,52.1,6.5,52.1"/>
				<path id="Fill-245" class="st2" d="M12.1,52.1L12.1,52.1c-0.5,0-0.9-0.4-0.9-0.9c0-0.5,0.4-0.9,0.9-0.9s0.9,0.4,0.9,0.9
					C13,51.7,12.6,52.1,12.1,52.1"/>
				<path id="Fill-247" class="st2" d="M17.7,52.1L17.7,52.1c-0.5,0-0.9-0.4-0.9-0.9c0-0.5,0.4-0.9,0.9-0.9c0.5,0,0.9,0.4,0.9,0.9
					C18.6,51.7,18.2,52.1,17.7,52.1"/>
				<path id="Fill-249" class="st2" d="M23.3,52.1L23.3,52.1c-0.5,0-0.9-0.4-0.9-0.9c0-0.5,0.4-0.9,0.9-0.9c0.5,0,0.9,0.4,0.9,0.9
					C24.2,51.7,23.8,52.1,23.3,52.1"/>
				<path id="Fill-251" class="st2" d="M28.8,52.1L28.8,52.1c-0.5,0-0.9-0.4-0.9-0.9c0-0.5,0.4-0.9,0.9-0.9c0.5,0,0.9,0.4,0.9,0.9
					C29.8,51.7,29.4,52.1,28.8,52.1"/>
				<path id="Fill-253" class="st2" d="M34.4,18.6L34.4,18.6c-0.5,0-0.9-0.4-0.9-0.9c0-0.5,0.4-0.9,0.9-0.9s0.9,0.4,0.9,0.9
					C35.3,18.2,34.9,18.6,34.4,18.6"/>
				<path id="Fill-253-Copy" class="st2" d="M67.9,18.6L67.9,18.6c-0.5,0-0.9-0.4-0.9-0.9c0-0.5,0.4-0.9,0.9-0.9
					c0.5,0,0.9,0.4,0.9,0.9C68.8,18.2,68.4,18.6,67.9,18.6"/>
				<path id="Fill-255" class="st2" d="M40,18.6L40,18.6c-0.5,0-0.9-0.4-0.9-0.9c0-0.5,0.4-0.9,0.9-0.9s0.9,0.4,0.9,0.9
					C40.9,18.2,40.5,18.6,40,18.6"/>
				<path id="Fill-255-Copy" class="st2" d="M73.5,18.6L73.5,18.6c-0.5,0-0.9-0.4-0.9-0.9c0-0.5,0.4-0.9,0.9-0.9
					c0.5,0,0.9,0.4,0.9,0.9C74.4,18.2,74,18.6,73.5,18.6"/>
				<path id="Fill-257" class="st2" d="M45.6,18.6L45.6,18.6c-0.5,0-0.9-0.4-0.9-0.9c0-0.5,0.4-0.9,0.9-0.9s0.9,0.4,0.9,0.9
					C46.5,18.2,46.1,18.6,45.6,18.6"/>
				<path id="Fill-257-Copy" class="st2" d="M79.1,18.6L79.1,18.6c-0.5,0-0.9-0.4-0.9-0.9c0-0.5,0.4-0.9,0.9-0.9
					c0.5,0,0.9,0.4,0.9,0.9C80,18.2,79.6,18.6,79.1,18.6"/>
				<path id="Fill-259" class="st2" d="M51.2,18.6L51.2,18.6c-0.5,0-0.9-0.4-0.9-0.9c0-0.5,0.4-0.9,0.9-0.9c0.5,0,0.9,0.4,0.9,0.9
					C52.1,18.2,51.7,18.6,51.2,18.6"/>
				<path id="Fill-261" class="st2" d="M56.7,18.6L56.7,18.6c-0.5,0-0.9-0.4-0.9-0.9c0-0.5,0.4-0.9,0.9-0.9s0.9,0.4,0.9,0.9
					C57.7,18.2,57.3,18.6,56.7,18.6"/>
				<path id="Fill-263" class="st2" d="M62.3,18.6L62.3,18.6c-0.5,0-0.9-0.4-0.9-0.9c0-0.5,0.4-0.9,0.9-0.9s0.9,0.4,0.9,0.9
					C63.3,18.2,62.8,18.6,62.3,18.6"/>
				<path id="Fill-265" class="st2" d="M34.4,24.2L34.4,24.2c-0.5,0-0.9-0.4-0.9-0.9c0-0.5,0.4-0.9,0.9-0.9s0.9,0.4,0.9,0.9
					C35.3,23.8,34.9,24.2,34.4,24.2"/>
				<path id="Fill-265-Copy" class="st2" d="M67.9,24.2L67.9,24.2c-0.5,0-0.9-0.4-0.9-0.9c0-0.5,0.4-0.9,0.9-0.9
					c0.5,0,0.9,0.4,0.9,0.9C68.8,23.8,68.4,24.2,67.9,24.2"/>
				<path id="Fill-267" class="st2" d="M40,24.2L40,24.2c-0.5,0-0.9-0.4-0.9-0.9c0-0.5,0.4-0.9,0.9-0.9s0.9,0.4,0.9,0.9
					C40.9,23.8,40.5,24.2,40,24.2"/>
				<path id="Fill-267-Copy" class="st2" d="M73.5,24.2L73.5,24.2c-0.5,0-0.9-0.4-0.9-0.9c0-0.5,0.4-0.9,0.9-0.9
					c0.5,0,0.9,0.4,0.9,0.9C74.4,23.8,74,24.2,73.5,24.2"/>
				<path id="Fill-269" class="st2" d="M45.6,24.2L45.6,24.2c-0.5,0-0.9-0.4-0.9-0.9c0-0.5,0.4-0.9,0.9-0.9s0.9,0.4,0.9,0.9
					C46.5,23.8,46.1,24.2,45.6,24.2"/>
				<path id="Fill-269-Copy" class="st2" d="M79.1,24.2L79.1,24.2c-0.5,0-0.9-0.4-0.9-0.9c0-0.5,0.4-0.9,0.9-0.9
					c0.5,0,0.9,0.4,0.9,0.9C80,23.8,79.6,24.2,79.1,24.2"/>
				<path id="Fill-271" class="st2" d="M51.2,24.2L51.2,24.2c-0.5,0-0.9-0.4-0.9-0.9c0-0.5,0.4-0.9,0.9-0.9c0.5,0,0.9,0.4,0.9,0.9
					C52.1,23.8,51.7,24.2,51.2,24.2"/>
				<path id="Fill-273" class="st2" d="M56.7,24.2L56.7,24.2c-0.5,0-0.9-0.4-0.9-0.9c0-0.5,0.4-0.9,0.9-0.9s0.9,0.4,0.9,0.9
					C57.7,23.8,57.3,24.2,56.7,24.2"/>
				<path id="Fill-275" class="st2" d="M62.3,24.2L62.3,24.2c-0.5,0-0.9-0.4-0.9-0.9c0-0.5,0.4-0.9,0.9-0.9s0.9,0.4,0.9,0.9
					C63.3,23.8,62.8,24.2,62.3,24.2"/>
				<path id="Fill-277" class="st2" d="M34.4,29.8L34.4,29.8c-0.5,0-0.9-0.4-0.9-0.9c0-0.5,0.4-0.9,0.9-0.9s0.9,0.4,0.9,0.9
					C35.3,29.4,34.9,29.8,34.4,29.8"/>
				<path id="Fill-277-Copy" class="st2" d="M67.9,29.8L67.9,29.8c-0.5,0-0.9-0.4-0.9-0.9c0-0.5,0.4-0.9,0.9-0.9
					c0.5,0,0.9,0.4,0.9,0.9C68.8,29.4,68.4,29.8,67.9,29.8"/>
				<path id="Fill-279" class="st2" d="M40,29.8L40,29.8c-0.5,0-0.9-0.4-0.9-0.9c0-0.5,0.4-0.9,0.9-0.9s0.9,0.4,0.9,0.9
					C40.9,29.4,40.5,29.8,40,29.8"/>
				<path id="Fill-279-Copy" class="st2" d="M73.5,29.8L73.5,29.8c-0.5,0-0.9-0.4-0.9-0.9c0-0.5,0.4-0.9,0.9-0.9
					c0.5,0,0.9,0.4,0.9,0.9C74.4,29.4,74,29.8,73.5,29.8"/>
				<path id="Fill-281" class="st2" d="M45.6,29.8L45.6,29.8c-0.5,0-0.9-0.4-0.9-0.9c0-0.5,0.4-0.9,0.9-0.9s0.9,0.4,0.9,0.9
					C46.5,29.4,46.1,29.8,45.6,29.8"/>
				<path id="Fill-281-Copy" class="st2" d="M79.1,29.8L79.1,29.8c-0.5,0-0.9-0.4-0.9-0.9c0-0.5,0.4-0.9,0.9-0.9
					c0.5,0,0.9,0.4,0.9,0.9C80,29.4,79.6,29.8,79.1,29.8"/>
				<path id="Fill-283" class="st2" d="M51.2,29.8L51.2,29.8c-0.5,0-0.9-0.4-0.9-0.9c0-0.5,0.4-0.9,0.9-0.9c0.5,0,0.9,0.4,0.9,0.9
					C52.1,29.4,51.7,29.8,51.2,29.8"/>
				<path id="Fill-285" class="st2" d="M56.7,29.8L56.7,29.8c-0.5,0-0.9-0.4-0.9-0.9c0-0.5,0.4-0.9,0.9-0.9s0.9,0.4,0.9,0.9
					C57.7,29.4,57.3,29.8,56.7,29.8"/>
				<path id="Fill-287" class="st2" d="M62.3,29.8L62.3,29.8c-0.5,0-0.9-0.4-0.9-0.9c0-0.5,0.4-0.9,0.9-0.9s0.9,0.4,0.9,0.9
					C63.3,29.4,62.8,29.8,62.3,29.8"/>
				<path id="Fill-289" class="st2" d="M34.4,35.3L34.4,35.3c-0.5,0-0.9-0.4-0.9-0.9s0.4-0.9,0.9-0.9s0.9,0.4,0.9,0.9
					S34.9,35.3,34.4,35.3"/>
				<path id="Fill-289-Copy" class="st2" d="M67.9,35.3L67.9,35.3c-0.5,0-0.9-0.4-0.9-0.9s0.4-0.9,0.9-0.9c0.5,0,0.9,0.4,0.9,0.9
					S68.4,35.3,67.9,35.3"/>
				<path id="Fill-291" class="st2" d="M40,35.3L40,35.3c-0.5,0-0.9-0.4-0.9-0.9s0.4-0.9,0.9-0.9s0.9,0.4,0.9,0.9S40.5,35.3,40,35.3
					"/>
				<path id="Fill-291-Copy" class="st2" d="M73.5,35.3L73.5,35.3c-0.5,0-0.9-0.4-0.9-0.9s0.4-0.9,0.9-0.9c0.5,0,0.9,0.4,0.9,0.9
					S74,35.3,73.5,35.3"/>
				<path id="Fill-293" class="st2" d="M45.6,35.3L45.6,35.3c-0.5,0-0.9-0.4-0.9-0.9s0.4-0.9,0.9-0.9s0.9,0.4,0.9,0.9
					S46.1,35.3,45.6,35.3"/>
				<path id="Fill-293-Copy" class="st2" d="M79.1,35.3L79.1,35.3c-0.5,0-0.9-0.4-0.9-0.9s0.4-0.9,0.9-0.9c0.5,0,0.9,0.4,0.9,0.9
					S79.6,35.3,79.1,35.3"/>
				<path id="Fill-295" class="st2" d="M51.2,35.3L51.2,35.3c-0.5,0-0.9-0.4-0.9-0.9s0.4-0.9,0.9-0.9c0.5,0,0.9,0.4,0.9,0.9
					S51.7,35.3,51.2,35.3"/>
				<path id="Fill-297" class="st2" d="M56.7,35.3L56.7,35.3c-0.5,0-0.9-0.4-0.9-0.9s0.4-0.9,0.9-0.9s0.9,0.4,0.9,0.9
					S57.3,35.3,56.7,35.3"/>
				<path id="Fill-299" class="st2" d="M62.3,35.3L62.3,35.3c-0.5,0-0.9-0.4-0.9-0.9s0.4-0.9,0.9-0.9s0.9,0.4,0.9,0.9
					S62.8,35.3,62.3,35.3"/>
				<path id="Fill-301" class="st2" d="M34.4,40.9L34.4,40.9c-0.5,0-0.9-0.4-0.9-0.9s0.4-0.9,0.9-0.9s0.9,0.4,0.9,0.9
					S34.9,40.9,34.4,40.9"/>
				<path id="Fill-301-Copy" class="st2" d="M67.9,40.9L67.9,40.9c-0.5,0-0.9-0.4-0.9-0.9s0.4-0.9,0.9-0.9c0.5,0,0.9,0.4,0.9,0.9
					S68.4,40.9,67.9,40.9"/>
				<path id="Fill-303" class="st2" d="M40,40.9L40,40.9c-0.5,0-0.9-0.4-0.9-0.9s0.4-0.9,0.9-0.9s0.9,0.4,0.9,0.9S40.5,40.9,40,40.9
					"/>
				<path id="Fill-303-Copy" class="st2" d="M73.5,40.9L73.5,40.9c-0.5,0-0.9-0.4-0.9-0.9s0.4-0.9,0.9-0.9c0.5,0,0.9,0.4,0.9,0.9
					S74,40.9,73.5,40.9"/>
				<path id="Fill-305" class="st2" d="M45.6,40.9L45.6,40.9c-0.5,0-0.9-0.4-0.9-0.9s0.4-0.9,0.9-0.9s0.9,0.4,0.9,0.9
					S46.1,40.9,45.6,40.9"/>
				<path id="Fill-305-Copy" class="st2" d="M79.1,40.9L79.1,40.9c-0.5,0-0.9-0.4-0.9-0.9s0.4-0.9,0.9-0.9c0.5,0,0.9,0.4,0.9,0.9
					S79.6,40.9,79.1,40.9"/>
				<path id="Fill-307" class="st2" d="M51.2,40.9L51.2,40.9c-0.5,0-0.9-0.4-0.9-0.9s0.4-0.9,0.9-0.9c0.5,0,0.9,0.4,0.9,0.9
					S51.7,40.9,51.2,40.9"/>
				<path id="Fill-309" class="st2" d="M56.7,40.9L56.7,40.9c-0.5,0-0.9-0.4-0.9-0.9s0.4-0.9,0.9-0.9s0.9,0.4,0.9,0.9
					S57.3,40.9,56.7,40.9"/>
				<path id="Fill-311" class="st2" d="M62.3,40.9L62.3,40.9c-0.5,0-0.9-0.4-0.9-0.9s0.4-0.9,0.9-0.9s0.9,0.4,0.9,0.9
					S62.8,40.9,62.3,40.9"/>
				<path id="Fill-313" class="st2" d="M34.4,46.5L34.4,46.5c-0.5,0-0.9-0.4-0.9-0.9s0.4-0.9,0.9-0.9s0.9,0.4,0.9,0.9
					S34.9,46.5,34.4,46.5"/>
				<path id="Fill-313-Copy" class="st2" d="M67.9,46.5L67.9,46.5c-0.5,0-0.9-0.4-0.9-0.9s0.4-0.9,0.9-0.9c0.5,0,0.9,0.4,0.9,0.9
					S68.4,46.5,67.9,46.5"/>
				<path id="Fill-315" class="st2" d="M40,46.5L40,46.5c-0.5,0-0.9-0.4-0.9-0.9s0.4-0.9,0.9-0.9s0.9,0.4,0.9,0.9S40.5,46.5,40,46.5
					"/>
				<path id="Fill-315-Copy" class="st2" d="M73.5,46.5L73.5,46.5c-0.5,0-0.9-0.4-0.9-0.9s0.4-0.9,0.9-0.9c0.5,0,0.9,0.4,0.9,0.9
					S74,46.5,73.5,46.5"/>
				<path id="Fill-317" class="st2" d="M45.6,46.5L45.6,46.5c-0.5,0-0.9-0.4-0.9-0.9s0.4-0.9,0.9-0.9s0.9,0.4,0.9,0.9
					S46.1,46.5,45.6,46.5"/>
				<path id="Fill-317-Copy" class="st2" d="M79.1,46.5L79.1,46.5c-0.5,0-0.9-0.4-0.9-0.9s0.4-0.9,0.9-0.9c0.5,0,0.9,0.4,0.9,0.9
					S79.6,46.5,79.1,46.5"/>
				<path id="Fill-319" class="st2" d="M51.2,46.5L51.2,46.5c-0.5,0-0.9-0.4-0.9-0.9s0.4-0.9,0.9-0.9c0.5,0,0.9,0.4,0.9,0.9
					S51.7,46.5,51.2,46.5"/>
				<path id="Fill-321" class="st2" d="M56.7,46.5L56.7,46.5c-0.5,0-0.9-0.4-0.9-0.9s0.4-0.9,0.9-0.9s0.9,0.4,0.9,0.9
					S57.3,46.5,56.7,46.5"/>
				<path id="Fill-323" class="st2" d="M62.3,46.5L62.3,46.5c-0.5,0-0.9-0.4-0.9-0.9s0.4-0.9,0.9-0.9s0.9,0.4,0.9,0.9
					S62.8,46.5,62.3,46.5"/>
				<path id="Fill-325" class="st2" d="M34.4,52.1L34.4,52.1c-0.5,0-0.9-0.4-0.9-0.9c0-0.5,0.4-0.9,0.9-0.9s0.9,0.4,0.9,0.9
					C35.3,51.7,34.9,52.1,34.4,52.1"/>
				<path id="Fill-325-Copy" class="st2" d="M67.9,52.1L67.9,52.1c-0.5,0-0.9-0.4-0.9-0.9c0-0.5,0.4-0.9,0.9-0.9
					c0.5,0,0.9,0.4,0.9,0.9C68.8,51.7,68.4,52.1,67.9,52.1"/>
				<path id="Fill-327" class="st2" d="M40,52.1L40,52.1c-0.5,0-0.9-0.4-0.9-0.9c0-0.5,0.4-0.9,0.9-0.9s0.9,0.4,0.9,0.9
					C40.9,51.7,40.5,52.1,40,52.1"/>
				<path id="Fill-327-Copy" class="st2" d="M73.5,52.1L73.5,52.1c-0.5,0-0.9-0.4-0.9-0.9c0-0.5,0.4-0.9,0.9-0.9
					c0.5,0,0.9,0.4,0.9,0.9C74.4,51.7,74,52.1,73.5,52.1"/>
				<path id="Fill-329" class="st2" d="M45.6,52.1L45.6,52.1c-0.5,0-0.9-0.4-0.9-0.9c0-0.5,0.4-0.9,0.9-0.9s0.9,0.4,0.9,0.9
					C46.5,51.7,46.1,52.1,45.6,52.1"/>
				<path id="Fill-329-Copy" class="st2" d="M79.1,52.1L79.1,52.1c-0.5,0-0.9-0.4-0.9-0.9c0-0.5,0.4-0.9,0.9-0.9
					c0.5,0,0.9,0.4,0.9,0.9C80,51.7,79.6,52.1,79.1,52.1"/>
				<path id="Fill-331" class="st2" d="M51.2,52.1L51.2,52.1c-0.5,0-0.9-0.4-0.9-0.9c0-0.5,0.4-0.9,0.9-0.9c0.5,0,0.9,0.4,0.9,0.9
					C52.1,51.7,51.7,52.1,51.2,52.1"/>
				<path id="Fill-333" class="st2" d="M56.7,52.1L56.7,52.1c-0.5,0-0.9-0.4-0.9-0.9c0-0.5,0.4-0.9,0.9-0.9s0.9,0.4,0.9,0.9
					C57.7,51.7,57.3,52.1,56.7,52.1"/>
				<path id="Fill-335" class="st2" d="M62.3,52.1L62.3,52.1c-0.5,0-0.9-0.4-0.9-0.9c0-0.5,0.4-0.9,0.9-0.9s0.9,0.4,0.9,0.9
					C63.3,51.7,62.8,52.1,62.3,52.1"/>
				<path id="Fill-337" class="st2" d="M0.9,57.7L0.9,57.7c-0.5,0-0.9-0.4-0.9-0.9s0.4-0.9,0.9-0.9s0.9,0.4,0.9,0.9
					S1.4,57.7,0.9,57.7"/>
				<path id="Fill-339" class="st2" d="M6.5,57.7L6.5,57.7c-0.5,0-0.9-0.4-0.9-0.9s0.4-0.9,0.9-0.9s0.9,0.4,0.9,0.9S7,57.7,6.5,57.7
					"/>
				<path id="Fill-341" class="st2" d="M12.1,57.7L12.1,57.7c-0.5,0-0.9-0.4-0.9-0.9s0.4-0.9,0.9-0.9s0.9,0.4,0.9,0.9
					S12.6,57.7,12.1,57.7"/>
				<path id="Fill-343" class="st2" d="M17.7,57.7L17.7,57.7c-0.5,0-0.9-0.4-0.9-0.9s0.4-0.9,0.9-0.9c0.5,0,0.9,0.4,0.9,0.9
					S18.2,57.7,17.7,57.7"/>
				<path id="Fill-345" class="st2" d="M23.3,57.7L23.3,57.7c-0.5,0-0.9-0.4-0.9-0.9s0.4-0.9,0.9-0.9c0.5,0,0.9,0.4,0.9,0.9
					S23.8,57.7,23.3,57.7"/>
				<path id="Fill-347" class="st2" d="M28.8,57.7L28.8,57.7c-0.5,0-0.9-0.4-0.9-0.9s0.4-0.9,0.9-0.9c0.5,0,0.9,0.4,0.9,0.9
					S29.4,57.7,28.8,57.7"/>
				<path id="Fill-349" class="st2" d="M0.9,63.3L0.9,63.3c-0.5,0-0.9-0.4-0.9-0.9s0.4-0.9,0.9-0.9s0.9,0.4,0.9,0.9
					S1.4,63.3,0.9,63.3"/>
				<path id="Fill-351" class="st2" d="M6.5,63.3L6.5,63.3c-0.5,0-0.9-0.4-0.9-0.9s0.4-0.9,0.9-0.9s0.9,0.4,0.9,0.9S7,63.3,6.5,63.3
					"/>
				<path id="Fill-353" class="st2" d="M12.1,63.3L12.1,63.3c-0.5,0-0.9-0.4-0.9-0.9s0.4-0.9,0.9-0.9s0.9,0.4,0.9,0.9
					S12.6,63.3,12.1,63.3"/>
				<path id="Fill-355" class="st2" d="M17.7,63.3L17.7,63.3c-0.5,0-0.9-0.4-0.9-0.9s0.4-0.9,0.9-0.9c0.5,0,0.9,0.4,0.9,0.9
					S18.2,63.3,17.7,63.3"/>
				<path id="Fill-357" class="st2" d="M23.3,63.3L23.3,63.3c-0.5,0-0.9-0.4-0.9-0.9s0.4-0.9,0.9-0.9c0.5,0,0.9,0.4,0.9,0.9
					S23.8,63.3,23.3,63.3"/>
				<path id="Fill-359" class="st2" d="M28.8,63.3L28.8,63.3c-0.5,0-0.9-0.4-0.9-0.9s0.4-0.9,0.9-0.9c0.5,0,0.9,0.4,0.9,0.9
					S29.4,63.3,28.8,63.3"/>
				<path id="Fill-361" class="st2" d="M0.9,68.8L0.9,68.8c-0.5,0-0.9-0.4-0.9-0.9C0,67.4,0.4,67,0.9,67s0.9,0.4,0.9,0.9
					C1.9,68.4,1.4,68.8,0.9,68.8"/>
				<path id="Fill-363" class="st2" d="M6.5,68.8L6.5,68.8c-0.5,0-0.9-0.4-0.9-0.9C5.6,67.4,6,67,6.5,67s0.9,0.4,0.9,0.9
					C7.4,68.4,7,68.8,6.5,68.8"/>
				<path id="Fill-365" class="st2" d="M12.1,68.8L12.1,68.8c-0.5,0-0.9-0.4-0.9-0.9c0-0.5,0.4-0.9,0.9-0.9s0.9,0.4,0.9,0.9
					C13,68.4,12.6,68.8,12.1,68.8"/>
				<path id="Fill-367" class="st2" d="M17.7,68.8L17.7,68.8c-0.5,0-0.9-0.4-0.9-0.9c0-0.5,0.4-0.9,0.9-0.9c0.5,0,0.9,0.4,0.9,0.9
					C18.6,68.4,18.2,68.8,17.7,68.8"/>
				<path id="Fill-369" class="st2" d="M23.3,68.8L23.3,68.8c-0.5,0-0.9-0.4-0.9-0.9c0-0.5,0.4-0.9,0.9-0.9c0.5,0,0.9,0.4,0.9,0.9
					C24.2,68.4,23.8,68.8,23.3,68.8"/>
				<path id="Fill-371" class="st2" d="M28.8,68.8L28.8,68.8c-0.5,0-0.9-0.4-0.9-0.9c0-0.5,0.4-0.9,0.9-0.9c0.5,0,0.9,0.4,0.9,0.9
					C29.8,68.4,29.4,68.8,28.8,68.8"/>
				<path id="Fill-373" class="st2" d="M0.9,74.4L0.9,74.4C0.4,74.4,0,74,0,73.5c0-0.5,0.4-0.9,0.9-0.9s0.9,0.4,0.9,0.9
					C1.9,74,1.4,74.4,0.9,74.4"/>
				<path id="Fill-375" class="st2" d="M6.5,74.4L6.5,74.4c-0.5,0-0.9-0.4-0.9-0.9c0-0.5,0.4-0.9,0.9-0.9s0.9,0.4,0.9,0.9
					C7.4,74,7,74.4,6.5,74.4"/>
				<path id="Fill-377" class="st2" d="M12.1,74.4L12.1,74.4c-0.5,0-0.9-0.4-0.9-0.9c0-0.5,0.4-0.9,0.9-0.9S13,73,13,73.5
					C13,74,12.6,74.4,12.1,74.4"/>
				<path id="Fill-379" class="st2" d="M17.7,74.4L17.7,74.4c-0.5,0-0.9-0.4-0.9-0.9c0-0.5,0.4-0.9,0.9-0.9c0.5,0,0.9,0.4,0.9,0.9
					C18.6,74,18.2,74.4,17.7,74.4"/>
				<path id="Fill-381" class="st2" d="M23.3,74.4L23.3,74.4c-0.5,0-0.9-0.4-0.9-0.9c0-0.5,0.4-0.9,0.9-0.9c0.5,0,0.9,0.4,0.9,0.9
					C24.2,74,23.8,74.4,23.3,74.4"/>
				<path id="Fill-383" class="st2" d="M28.8,74.4L28.8,74.4c-0.5,0-0.9-0.4-0.9-0.9c0-0.5,0.4-0.9,0.9-0.9c0.5,0,0.9,0.4,0.9,0.9
					C29.8,74,29.4,74.4,28.8,74.4"/>
				<path id="Fill-385" class="st2" d="M0.9,80L0.9,80C0.4,80,0,79.6,0,79.1c0-0.5,0.4-0.9,0.9-0.9s0.9,0.4,0.9,0.9
					C1.9,79.6,1.4,80,0.9,80"/>
				<path id="Fill-387" class="st2" d="M6.5,80L6.5,80c-0.5,0-0.9-0.4-0.9-0.9c0-0.5,0.4-0.9,0.9-0.9s0.9,0.4,0.9,0.9
					C7.4,79.6,7,80,6.5,80"/>
				<path id="Fill-389" class="st2" d="M12.1,80L12.1,80c-0.5,0-0.9-0.4-0.9-0.9c0-0.5,0.4-0.9,0.9-0.9s0.9,0.4,0.9,0.9
					C13,79.6,12.6,80,12.1,80"/>
				<path id="Fill-391" class="st2" d="M17.7,80L17.7,80c-0.5,0-0.9-0.4-0.9-0.9c0-0.5,0.4-0.9,0.9-0.9c0.5,0,0.9,0.4,0.9,0.9
					C18.6,79.6,18.2,80,17.7,80"/>
				<path id="Fill-393" class="st2" d="M23.3,80L23.3,80c-0.5,0-0.9-0.4-0.9-0.9c0-0.5,0.4-0.9,0.9-0.9c0.5,0,0.9,0.4,0.9,0.9
					C24.2,79.6,23.8,80,23.3,80"/>
				<path id="Fill-395" class="st2" d="M28.8,80L28.8,80c-0.5,0-0.9-0.4-0.9-0.9c0-0.5,0.4-0.9,0.9-0.9c0.5,0,0.9,0.4,0.9,0.9
					C29.8,79.6,29.4,80,28.8,80"/>
				<path id="Fill-421" class="st2" d="M34.4,57.7L34.4,57.7c-0.5,0-0.9-0.4-0.9-0.9s0.4-0.9,0.9-0.9s0.9,0.4,0.9,0.9
					S34.9,57.7,34.4,57.7"/>
				<path id="Fill-421-Copy" class="st2" d="M67.9,57.7L67.9,57.7c-0.5,0-0.9-0.4-0.9-0.9s0.4-0.9,0.9-0.9c0.5,0,0.9,0.4,0.9,0.9
					S68.4,57.7,67.9,57.7"/>
				<path id="Fill-423" class="st2" d="M40,57.7L40,57.7c-0.5,0-0.9-0.4-0.9-0.9s0.4-0.9,0.9-0.9s0.9,0.4,0.9,0.9S40.5,57.7,40,57.7
					"/>
				<path id="Fill-423-Copy" class="st2" d="M73.5,57.7L73.5,57.7c-0.5,0-0.9-0.4-0.9-0.9s0.4-0.9,0.9-0.9c0.5,0,0.9,0.4,0.9,0.9
					S74,57.7,73.5,57.7"/>
				<path id="Fill-425" class="st2" d="M45.6,57.7L45.6,57.7c-0.5,0-0.9-0.4-0.9-0.9s0.4-0.9,0.9-0.9s0.9,0.4,0.9,0.9
					S46.1,57.7,45.6,57.7"/>
				<path id="Fill-425-Copy" class="st2" d="M79.1,57.7L79.1,57.7c-0.5,0-0.9-0.4-0.9-0.9s0.4-0.9,0.9-0.9c0.5,0,0.9,0.4,0.9,0.9
					S79.6,57.7,79.1,57.7"/>
				<path id="Fill-427" class="st2" d="M51.2,57.7L51.2,57.7c-0.5,0-0.9-0.4-0.9-0.9s0.4-0.9,0.9-0.9c0.5,0,0.9,0.4,0.9,0.9
					S51.7,57.7,51.2,57.7"/>
				<path id="Fill-429" class="st2" d="M56.7,57.7L56.7,57.7c-0.5,0-0.9-0.4-0.9-0.9s0.4-0.9,0.9-0.9s0.9,0.4,0.9,0.9
					S57.3,57.7,56.7,57.7"/>
				<path id="Fill-431" class="st2" d="M62.3,57.7L62.3,57.7c-0.5,0-0.9-0.4-0.9-0.9s0.4-0.9,0.9-0.9s0.9,0.4,0.9,0.9
					S62.8,57.7,62.3,57.7"/>
				<path id="Fill-433" class="st2" d="M34.4,63.3L34.4,63.3c-0.5,0-0.9-0.4-0.9-0.9s0.4-0.9,0.9-0.9s0.9,0.4,0.9,0.9
					S34.9,63.3,34.4,63.3"/>
				<path id="Fill-433-Copy" class="st2" d="M67.9,63.3L67.9,63.3c-0.5,0-0.9-0.4-0.9-0.9s0.4-0.9,0.9-0.9c0.5,0,0.9,0.4,0.9,0.9
					S68.4,63.3,67.9,63.3"/>
				<path id="Fill-435" class="st2" d="M40,63.3L40,63.3c-0.5,0-0.9-0.4-0.9-0.9s0.4-0.9,0.9-0.9s0.9,0.4,0.9,0.9S40.5,63.3,40,63.3
					"/>
				<path id="Fill-435-Copy" class="st2" d="M73.5,63.3L73.5,63.3c-0.5,0-0.9-0.4-0.9-0.9s0.4-0.9,0.9-0.9c0.5,0,0.9,0.4,0.9,0.9
					S74,63.3,73.5,63.3"/>
				<path id="Fill-437" class="st2" d="M45.6,63.3L45.6,63.3c-0.5,0-0.9-0.4-0.9-0.9s0.4-0.9,0.9-0.9s0.9,0.4,0.9,0.9
					S46.1,63.3,45.6,63.3"/>
				<path id="Fill-437-Copy" class="st2" d="M79.1,63.3L79.1,63.3c-0.5,0-0.9-0.4-0.9-0.9s0.4-0.9,0.9-0.9c0.5,0,0.9,0.4,0.9,0.9
					S79.6,63.3,79.1,63.3"/>
				<path id="Fill-439" class="st2" d="M51.2,63.3L51.2,63.3c-0.5,0-0.9-0.4-0.9-0.9s0.4-0.9,0.9-0.9c0.5,0,0.9,0.4,0.9,0.9
					S51.7,63.3,51.2,63.3"/>
				<path id="Fill-441" class="st2" d="M56.7,63.3L56.7,63.3c-0.5,0-0.9-0.4-0.9-0.9s0.4-0.9,0.9-0.9s0.9,0.4,0.9,0.9
					S57.3,63.3,56.7,63.3"/>
				<path id="Fill-443" class="st2" d="M62.3,63.3L62.3,63.3c-0.5,0-0.9-0.4-0.9-0.9s0.4-0.9,0.9-0.9s0.9,0.4,0.9,0.9
					S62.8,63.3,62.3,63.3"/>
				<path id="Fill-445" class="st2" d="M34.4,68.8L34.4,68.8c-0.5,0-0.9-0.4-0.9-0.9c0-0.5,0.4-0.9,0.9-0.9s0.9,0.4,0.9,0.9
					C35.3,68.4,34.9,68.8,34.4,68.8"/>
				<path id="Fill-445-Copy" class="st2" d="M67.9,68.8L67.9,68.8c-0.5,0-0.9-0.4-0.9-0.9c0-0.5,0.4-0.9,0.9-0.9
					c0.5,0,0.9,0.4,0.9,0.9C68.8,68.4,68.4,68.8,67.9,68.8"/>
				<path id="Fill-447" class="st2" d="M40,68.8L40,68.8c-0.5,0-0.9-0.4-0.9-0.9c0-0.5,0.4-0.9,0.9-0.9s0.9,0.4,0.9,0.9
					C40.9,68.4,40.5,68.8,40,68.8"/>
				<path id="Fill-447-Copy" class="st2" d="M73.5,68.8L73.5,68.8c-0.5,0-0.9-0.4-0.9-0.9c0-0.5,0.4-0.9,0.9-0.9
					c0.5,0,0.9,0.4,0.9,0.9C74.4,68.4,74,68.8,73.5,68.8"/>
				<path id="Fill-449" class="st2" d="M45.6,68.8L45.6,68.8c-0.5,0-0.9-0.4-0.9-0.9c0-0.5,0.4-0.9,0.9-0.9s0.9,0.4,0.9,0.9
					C46.5,68.4,46.1,68.8,45.6,68.8"/>
				<path id="Fill-449-Copy" class="st2" d="M79.1,68.8L79.1,68.8c-0.5,0-0.9-0.4-0.9-0.9c0-0.5,0.4-0.9,0.9-0.9
					c0.5,0,0.9,0.4,0.9,0.9C80,68.4,79.6,68.8,79.1,68.8"/>
				<path id="Fill-451" class="st2" d="M51.2,68.8L51.2,68.8c-0.5,0-0.9-0.4-0.9-0.9c0-0.5,0.4-0.9,0.9-0.9c0.5,0,0.9,0.4,0.9,0.9
					C52.1,68.4,51.7,68.8,51.2,68.8"/>
				<path id="Fill-453" class="st2" d="M56.7,68.8L56.7,68.8c-0.5,0-0.9-0.4-0.9-0.9c0-0.5,0.4-0.9,0.9-0.9s0.9,0.4,0.9,0.9
					C57.7,68.4,57.3,68.8,56.7,68.8"/>
				<path id="Fill-455" class="st2" d="M62.3,68.8L62.3,68.8c-0.5,0-0.9-0.4-0.9-0.9c0-0.5,0.4-0.9,0.9-0.9s0.9,0.4,0.9,0.9
					C63.3,68.4,62.8,68.8,62.3,68.8"/>
				<path id="Fill-457" class="st2" d="M34.4,74.4L34.4,74.4c-0.5,0-0.9-0.4-0.9-0.9c0-0.5,0.4-0.9,0.9-0.9s0.9,0.4,0.9,0.9
					C35.3,74,34.9,74.4,34.4,74.4"/>
				<path id="Fill-457-Copy" class="st2" d="M67.9,74.4L67.9,74.4c-0.5,0-0.9-0.4-0.9-0.9c0-0.5,0.4-0.9,0.9-0.9
					c0.5,0,0.9,0.4,0.9,0.9C68.8,74,68.4,74.4,67.9,74.4"/>
				<path id="Fill-459" class="st2" d="M40,74.4L40,74.4c-0.5,0-0.9-0.4-0.9-0.9c0-0.5,0.4-0.9,0.9-0.9s0.9,0.4,0.9,0.9
					C40.9,74,40.5,74.4,40,74.4"/>
				<path id="Fill-459-Copy" class="st2" d="M73.5,74.4L73.5,74.4c-0.5,0-0.9-0.4-0.9-0.9c0-0.5,0.4-0.9,0.9-0.9
					c0.5,0,0.9,0.4,0.9,0.9C74.4,74,74,74.4,73.5,74.4"/>
				<path id="Fill-461" class="st2" d="M45.6,74.4L45.6,74.4c-0.5,0-0.9-0.4-0.9-0.9c0-0.5,0.4-0.9,0.9-0.9s0.9,0.4,0.9,0.9
					C46.5,74,46.1,74.4,45.6,74.4"/>
				<path id="Fill-461-Copy" class="st2" d="M79.1,74.4L79.1,74.4c-0.5,0-0.9-0.4-0.9-0.9c0-0.5,0.4-0.9,0.9-0.9
					c0.5,0,0.9,0.4,0.9,0.9C80,74,79.6,74.4,79.1,74.4"/>
				<path id="Fill-463" class="st2" d="M51.2,74.4L51.2,74.4c-0.5,0-0.9-0.4-0.9-0.9c0-0.5,0.4-0.9,0.9-0.9c0.5,0,0.9,0.4,0.9,0.9
					C52.1,74,51.7,74.4,51.2,74.4"/>
				<path id="Fill-465" class="st2" d="M56.7,74.4L56.7,74.4c-0.5,0-0.9-0.4-0.9-0.9c0-0.5,0.4-0.9,0.9-0.9s0.9,0.4,0.9,0.9
					C57.7,74,57.3,74.4,56.7,74.4"/>
				<path id="Fill-467" class="st2" d="M62.3,74.4L62.3,74.4c-0.5,0-0.9-0.4-0.9-0.9c0-0.5,0.4-0.9,0.9-0.9s0.9,0.4,0.9,0.9
					C63.3,74,62.8,74.4,62.3,74.4"/>
				<path id="Fill-469" class="st2" d="M34.4,80L34.4,80c-0.5,0-0.9-0.4-0.9-0.9c0-0.5,0.4-0.9,0.9-0.9s0.9,0.4,0.9,0.9
					C35.3,79.6,34.9,80,34.4,80"/>
				<path id="Fill-469-Copy" class="st2" d="M67.9,80L67.9,80c-0.5,0-0.9-0.4-0.9-0.9c0-0.5,0.4-0.9,0.9-0.9c0.5,0,0.9,0.4,0.9,0.9
					C68.8,79.6,68.4,80,67.9,80"/>
				<path id="Fill-471" class="st2" d="M40,80L40,80c-0.5,0-0.9-0.4-0.9-0.9c0-0.5,0.4-0.9,0.9-0.9s0.9,0.4,0.9,0.9
					C40.9,79.6,40.5,80,40,80"/>
				<path id="Fill-471-Copy" class="st2" d="M73.5,80L73.5,80c-0.5,0-0.9-0.4-0.9-0.9c0-0.5,0.4-0.9,0.9-0.9c0.5,0,0.9,0.4,0.9,0.9
					C74.4,79.6,74,80,73.5,80"/>
				<path id="Fill-473" class="st2" d="M45.6,80L45.6,80c-0.5,0-0.9-0.4-0.9-0.9c0-0.5,0.4-0.9,0.9-0.9s0.9,0.4,0.9,0.9
					C46.5,79.6,46.1,80,45.6,80"/>
				<path id="Fill-473-Copy" class="st2" d="M79.1,80L79.1,80c-0.5,0-0.9-0.4-0.9-0.9c0-0.5,0.4-0.9,0.9-0.9c0.5,0,0.9,0.4,0.9,0.9
					C80,79.6,79.6,80,79.1,80"/>
				<path id="Fill-475" class="st2" d="M51.2,80L51.2,80c-0.5,0-0.9-0.4-0.9-0.9c0-0.5,0.4-0.9,0.9-0.9c0.5,0,0.9,0.4,0.9,0.9
					C52.1,79.6,51.7,80,51.2,80"/>
				<path id="Fill-477" class="st2" d="M56.7,80L56.7,80c-0.5,0-0.9-0.4-0.9-0.9c0-0.5,0.4-0.9,0.9-0.9s0.9,0.4,0.9,0.9
					C57.7,79.6,57.3,80,56.7,80"/>
				<path id="Fill-479" class="st2" d="M62.3,80L62.3,80c-0.5,0-0.9-0.4-0.9-0.9c0-0.5,0.4-0.9,0.9-0.9s0.9,0.4,0.9,0.9
					C63.3,79.6,62.8,80,62.3,80"/>
			</g>
		</g>
		<g id="Group-3" transform="translate(36.080079, 0.000000)">
			<g id="Rectangle">
				<g class="st3">
					<polygon id="path-1_00000098202104755815325110000017546191127013737886_" class="st4" points="0,0 468.3,0 468.3,233 0,233 
											"/>
				</g>
				<g>
					<polygon id="path-1_00000024002040104813213060000004659130716532852918_" class="st5" points="0,0 468.3,0 468.3,233 0,233 
											"/>
				</g>
			</g>
			
				<rect id="Rectangle_00000181780536609969179140000000158660183530407356_" x="3.9" y="30.8" class="st6" width="459.8" height="197.4"/>
			<rect id="Rectangle-Copy-83" x="3.9" y="4.8" class="st6" width="459" height="22.4"/>
			<path id="Rectangle-Copy-78" class="st7" d="M389.9,10.8h21.3c0.6,0,1,0.4,1,1v7.5c0,0.6-0.4,1-1,1h-21.3c-0.6,0-1-0.4-1-1v-7.5
				C388.9,11.2,389.4,10.8,389.9,10.8z"/>
			<path id="Rectangle-Copy-79" class="st7" d="M416.9,10.8h21.3c0.6,0,1,0.4,1,1v7.5c0,0.6-0.4,1-1,1h-21.3c-0.6,0-1-0.4-1-1v-7.5
				C415.9,11.2,416.4,10.8,416.9,10.8z"/>
			<path id="Rectangle-Copy-80" class="st7" d="M443.9,10.8h10.9c0.6,0,1,0.4,1,1v7.5c0,0.6-0.4,1-1,1h-10.9c-0.6,0-1-0.4-1-1v-7.5
				C442.9,11.2,443.4,10.8,443.9,10.8z"/>
			<rect id="Rectangle-Copy-62" x="8.9" y="10.8" class="st7" width="48.3" height="9.5"/>
			<rect id="Rectangle-Copy-63" x="60.9" y="10.8" class="st7" width="48.3" height="9.5"/>
			<rect id="Rectangle-Copy-64" x="114.9" y="10.8" class="st7" width="48.3" height="9.5"/>
			<path id="Rectangle-Copy-65" class="st7" d="M410.9,35.8h42.3c1.7,0,3,1.3,3,3v3.5c0,1.7-1.3,3-3,3h-42.3c-1.7,0-3-1.3-3-3v-3.5
				C407.9,37.1,409.3,35.8,410.9,35.8z"/>
			<path id="Rectangle-Copy-66" class="st7" d="M356.9,35.8h42.3c1.7,0,3,1.3,3,3v3.5c0,1.7-1.3,3-3,3h-42.3c-1.7,0-3-1.3-3-3v-3.5
				C353.9,37.1,355.3,35.8,356.9,35.8z"/>
			<rect id="Rectangle-Copy" x="10.4" y="72.6" class="st8" width="9.5" height="9.5"/>
			<rect id="Rectangle-Copy-30" x="9.9" y="35.8" class="st9" width="19.8" height="9.5"/>
			<rect id="Rectangle-Copy-36" x="21.6" y="72.6" class="st9" width="9.5" height="9.5"/>
			<line id="Path-7" class="st10" x1="10.4" y1="50.3" x2="463.4" y2="50.3"/>
			<line id="Path-7-Copy-3" class="st10" x1="42.3" y1="81.7" x2="244.6" y2="81.7"/>
			<line id="Path-9" class="st10" x1="0.3" y1="26.5" x2="469.1" y2="26.7"/>
			<line id="Path-9-Copy" class="st11" x1="0.3" y1="4.1" x2="469.1" y2="4.3"/>
			<g id="Group" transform="translate(41.406593, 97.620690)">
				<path id="Rectangle_00000153697581909270773460000000253911692317094331_" class="st12" d="M3,0h197.6c1.7,0,3,1.3,3,3v88.8
					c0,1.7-1.3,3-3,3H3c-1.7,0-3-1.3-3-3V3C0,1.3,1.3,0,3,0z"/>
				<line id="Path-2" class="st12" x1="0" y1="13.4" x2="203.6" y2="13.4"/>
				
					<rect id="Rectangle_00000058550211842654286530000005997169749632079523_" x="0" y="0" class="st13" width="203.6" height="13.8"/>
				<line id="Path-2-Copy" class="st12" x1="0" y1="29.7" x2="203.6" y2="29.7"/>
				<line id="Path-2-Copy-2" class="st12" x1="0" y1="46.1" x2="203.6" y2="46.1"/>
				<line id="Path-2-Copy-3" class="st12" x1="0" y1="61.6" x2="203.6" y2="61.6"/>
				<line id="Path-2-Copy-4" class="st12" x1="0" y1="78" x2="203.6" y2="78"/>
				<line id="Path-3" class="st12" x1="118.6" y1="0" x2="118.6" y2="94.8"/>
				<line id="Path-3-Copy" class="st12" x1="164.3" y1="0" x2="164.3" y2="94.8"/>
				<rect id="Rectangle_00000038381285520453708920000006119663470998555295_" x="4.3" y="19" class="st14" width="6" height="6"/>
				<rect id="Rectangle-Copy-5" x="4.3" y="82.8" class="st15" width="6" height="6"/>
				<rect id="Rectangle-Copy-4" x="4.3" y="66.4" class="st16" width="6" height="6"/>
				<rect id="Rectangle-Copy-2" x="4.3" y="35.3" class="st14" width="6" height="6"/>
				<rect id="Rectangle-Copy-3" x="4.3" y="50.9" class="st17" width="6" height="6"/>
			</g>
			
				<g id="Group-40" transform="translate(369.945016, 139.769305) rotate(-48.000000) translate(-369.945016, -139.769305) translate(306.945016, 76.769305)">
				<path id="Path" class="st18" d="M125.4,63.2c0-34.8-27.8-63-62.2-63C37,0.2,14.6,16.6,5.4,39.9"/>
				<path id="Path_00000114064790048235352630000003826613399610819773_" class="st19" d="M62.9,125.2c16.4,0,31.3-6.3,42.5-16.5
					c12.6-11.5,20.5-28.1,20.5-46.5"/>
				<path id="Path_00000181785326159555288290000000296108216308726921_" class="st20" d="M5.3,39.3c-2.9,7.2-4.5,15-4.5,23.2
					c0,34.7,28.2,62.8,63,62.8"/>
			</g>
		</g>
		<g id="Group-8" transform="translate(161.723151, 81.795953)">
			<circle id="Oval" class="st21" cx="45.9" cy="29.6" r="15.5"/>
			<line id="Path-14" class="st22" x1="35.1" y1="39.7" x2="19.6" y2="55.2"/>
		</g>
		<g>
			<g id="Master_x2F_Pose_x2F_Standing_00000034811349997039857700000017907693535471440784_">
				<g id="Head_x2F_Front_00000145747606792330811730000003561074237243702972_" transform="translate(82 0) scale(1 1)">
					<g id="Head_x2F_Front_x2F_Caesar_00000081630323044829424150000017355951437372289470_">
						<g id="Head_00000124158104456730046920000010529946395841224074_">
							
								<linearGradient id="SKIN_00000129166148109089498530000008307083553921144965_" gradientUnits="userSpaceOnUse" x1="40.7848" y1="140.3609" x2="61.1908" y2="140.3609">
								<stop  offset="0" style="stop-color:#FFE4DD"/>
								<stop  offset="1" style="stop-color:#F3D6CE"/>
							</linearGradient>
							
								<path id="SKIN_00000135656779790223719180000001103691611946943395_" style="fill-rule:evenodd;clip-rule:evenodd;fill:url(#SKIN_00000129166148109089498530000008307083553921144965_);" d="
								M51.6,143.3c3.3,1.4,6.4,1.8,7.7,1.2c3.3-1.4,1.8-14.2-1.7-18.8c-3.4-4.6-17.6-4.7-16.8,5.3c0.3,3.5,2.2,6.4,4.7,8.6
								l-1.2,18.5l11.2-1.7L51.6,143.3z"/>
						</g>
						<path id="Combined_Shape_00000164496930497755723080000005484464527692332936_" class="st24" d="M44.2,128.1
							c6.4-0.9,10.9-1.9,13.3-2.9c-0.4-2.2-3.1-4.3-9.1-3.4c-6.7,1-9.7,5.4-9,9.9c0.6,4.1,4,8.7,6,8.6c0.5-0.2,0.9-0.9,1.2-1.8
							c-0.9-0.3-1.6-1.1-1.8-2.1c-0.2-1.4,0.7-2.7,1.9-2.9c0.5-0.1,0.9,0,1.3,0.2c0.6-1.5,1.5-2.7,3-2.8l-1.3-2.7l-5.7,0.4
							L44.2,128.1z"/>
					</g>
				</g>
				<g id="Lower_Body_x2F_Standing_00000005243715507216685520000006596421082836251547_" transform="translate(0 187) scale(1 1)">
					<g id="Lower_Body_x2F_Standing_x2F_Skinny_Jeans_Walk_00000032617222465520034170000007715191786080423609_">
						<path id="Leg_00000116203455838332534900000005756566239877842847_" class="st25" d="M128.4,10.2L159.6,66l22.2,41.3l8.9-1.3
							L153.9,6.4L128.4,10.2z"/>
						<path id="Leg_00000073696002660808655300000013710654026661592762_" class="st5" d="M122.9,11c2.8,20.3,7.1,47.7,6.7,49
							c-0.4,1.4-30.9,34.1-30.9,34.1l5.8,7.1c0,0,37.2-32.7,38.8-36.6c1.6-3.9,7.3-38,9.9-58.2L122.9,11z"/>
						<path id="Shoe_00000079476595960251014410000004660832011177290686_" class="st26" d="M91.4,100.6l6.9-7.1l7.4,6.5
							c2,8.4,8.4,18.1,8.4,18.1l-1.2,1.4l-13.4-11.8l-4-4.8l-0.6,0.7L91.4,100.6z"/>
						<path id="Shoe_2_00000151524401430533769880000016626693439412975260_" class="st26" d="M182.3,115.8l-1-9.8l9.8-1.5
							c7.7,3.8,19.3,5.2,19.3,5.2l0.3,1.9l-17.7,2.6l-6.2,0l0.1,0.9L182.3,115.8z"/>
					</g>
				</g>
				<g id="Upper_Body_00000181082089298863826630000008605034959214544515_" transform="translate(22 82) scale(1 1)">
					<g id="Upper_Body_x2F_Pointing_Up_00000094595715792428229340000013016136245935311803_">
						
							<linearGradient id="SKIN_00000111909761215389967110000008480478248762642875_" gradientUnits="userSpaceOnUse" x1="139.0198" y1="78.5148" x2="170.0496" y2="78.5148">
							<stop  offset="0" style="stop-color:#FFE4DD"/>
							<stop  offset="1" style="stop-color:#F3D6CE"/>
						</linearGradient>
						
							<path id="SKIN_00000105388182513656574690000007472918537280671636_" style="fill-rule:evenodd;clip-rule:evenodd;fill:url(#SKIN_00000111909761215389967110000008480478248762642875_);" d="
							M155.9,53.6L139,61.5l5.6,6.8l12.5-10.1c6.3-1.3,9.3-2.4,8.8-3.3c-0.4-0.7-1.1-0.7-1.8-0.7c-0.5,0-1,0-1.3-0.4
							c-0.6-0.8,0.8-3.2,2.3-5.4c1.5-2.3,0-2.1-0.8-1.8C161.6,48.2,158.8,50.5,155.9,53.6z M158.6,101.5l-16.5-8.7l-2.1,8.6
							l15.6,3.9c4.9,4.3,7.5,5.9,7.9,5.1c0.3-0.7-0.1-1.3-0.5-1.9c-0.3-0.4-0.6-0.8-0.5-1.2c0.2-1,3-1.3,5.7-1.5
							c2.7-0.2,1.7-1.3,1-1.7C166.3,102.8,162.8,102,158.6,101.5z"/>
						<path id="Coat_Back_00000010280411585050713060000018396532070792044945_" class="st28" d="M114.7,66.9
							c10.3,13.9,23.7,23.7,42.5,33.1l-5.3,8.2c-20-4.2-30.6-6.9-37.6-20.4c-1.8-3.4-4.3-14.6-6-20.5L114.7,66.9z"/>
						<path id="Shirt_00000005256047179290337170000004331756312694239130_" class="st29" d="M99.6,120.5l35.8-5.4
							c0,0-17.7-35.3-20.1-49.1c-0.1-0.5-1.1-1.2-1.4-1c-4,1.8-9.2,0.5-9.2,0.5C98.3,80.5,97.9,97.7,99.6,120.5z"/>
						<path id="Coat_Front_00000030484643284259392770000016668240781342977714_" class="st30" d="M116.9,85
							c9.2,23.2,11.9,42.8-0.5,44.7l-19.1,2.9c-6.1-19.9-2.3-49.4,2.9-64.7c0.2-0.6,0.6-1.7,2.1-1.9l5.5-0.8c0,0,0,0,0,0
							c1.7-0.2,3.5-0.5,5.5-0.7c10.3-1.2,24.7-2.9,40-10.4l3.3,9.2C143.5,74.7,129.9,84.1,116.9,85z"/>
					</g>
				</g>
			</g>
		</g>
	</g>
</g>
</svg>
